<svg version="1.1" xmlns="http://www.w3.org/2000/svg" viewBox="0 0 939.8886159618901 728.0863027335193" width="939.8886159618901" height="728.0863027335193">
  <!-- svg-source:excalidraw -->
  
  <defs>
    <style class="style-fonts">
      @font-face {
        font-family: "Virgil";
        src: url("https://excalidraw.com/Virgil.woff2");
      }
      @font-face {
        font-family: "Cascadia";
        src: url("https://excalidraw.com/Cascadia.woff2");
      }
      @font-face {
        font-family: "Assistant";
        src: url("https://excalidraw.com/Assistant-Regular.woff2");
      }
    </style>
    
  </defs>
  <g stroke-linecap="round" transform="translate(304.4181924094032 112.88462777967311) rotate(89.4354136562254 312.4503323678475 211.63593902202035)"><path d="M-1 1.3 C208.02 3.21, 416.96 2.59, 624.15 -0.42 M-0.13 0.27 C162.79 -3.81, 325.37 -3.63, 624.71 0.08 M626.8 0.08 C624.22 92.53, 623.04 187.18, 626.17 424.72 M624.83 -0.33 C626.51 117.38, 626.46 235.65, 624.6 423.17 M624.24 422.57 C451.78 425.84, 277.38 424.27, 1.46 422.33 M625.66 424.01 C477.35 425.54, 329.04 426.97, 0.36 423.91 M-0.27 425.15 C-2.32 314.06, -5.55 207.19, -1.48 1.49 M-1.01 423.81 C2.89 255.93, 2.96 91.21, 0.9 -1" stroke="#343a40" stroke-width="4" fill="none"></path></g><g stroke-linecap="round" transform="translate(323.2279526913203 132.22705431505574) rotate(89.4354136562254 294.83343723242433 196.02401665715064)"><path d="M1.43 -1.31 C223.12 -2.15, 444.95 -1.99, 590.09 -0.74 M-0.49 -0.7 C212.67 0.61, 425.91 1.24, 589.67 0.51 M591.82 2.17 C590.33 157.07, 589.17 310.99, 589.14 393.57 M590.65 -1.06 C587.16 82.53, 587.94 164.75, 590.54 391.86 M590.02 390.81 C400.48 397.56, 212.31 396.81, 0.02 392.59 M589 391.41 C470.84 387.83, 352.05 388.49, -0.71 392.49 M-1.15 391.37 C-3.65 260.65, -3.83 129.28, 1.16 -2.03 M-0.02 393.19 C2.89 282.99, 2.8 174.48, -1.04 0.54" stroke="#f8f9fa" stroke-width="4" fill="none"></path></g><g stroke-linecap="round" transform="translate(317.0350875448253 128.71663311254997) rotate(89.4354136562254 294.83343723242433 196.02401665715064)"><path d="M0.96 0.97 C216.46 5, 432.09 3.13, 590.64 -1.04 M-0.22 -0.07 C168.47 4.67, 336.69 4.63, 590.43 0.18 M589.28 1.97 C592.35 155.1, 593.37 310.14, 587.55 390.88 M589.45 0.67 C594.06 98.44, 594.38 194.61, 589.9 391.77 M589.04 393.39 C360.4 389, 131.65 388.94, -1.57 393.64 M589.72 391.42 C457.81 388.31, 324.94 388.72, 0.29 392.33 M-2.04 392.42 C0.02 304.73, 3.4 213.83, -0.53 -1.34 M0.27 391.57 C0.27 241.81, -0.95 92.95, -0.41 -0.72" stroke="#f8f9fa" stroke-width="4" fill="none"></path></g><g stroke-linecap="round" transform="translate(328.0350875448253 123.71663311255043) rotate(89.4354136562254 294.83343723242433 196.02401665715064)"><path d="M0.63 1.12 C128.87 -3.6, 257.86 -3.89, 589.43 -0.98 M0.13 0.55 C125.42 0.94, 251.6 0.62, 590.42 0.74 M588.13 0.79 C588.39 155.76, 586.8 307.3, 588.47 394.01 M590.22 1.04 C589.67 81.49, 589.03 163.08, 590.69 392.3 M589.42 392.64 C458.3 396.55, 325.32 397.61, -1.22 390.71 M589.82 392.08 C459.16 388.78, 330.37 388.63, -0.6 391.65 M-2.22 392.83 C5.16 283.8, 3.47 178.28, 1.91 -0.05 M0.18 391.63 C-2.1 236.48, -1.46 79.11, 0.52 0.36" stroke="#f8f9fa" stroke-width="4" fill="none"></path></g><g stroke-linecap="round" transform="translate(312.21671150497195 124.24685598929454) rotate(89.4354136562254 306.37179381381884 203.69544980238243)"><path d="M0.43 -0.74 C221.9 -4.47, 441.62 -4.41, 611.35 -0.44 M0 0.51 C178.98 -3.21, 357.17 -2.65, 613.49 -0.13 M612.24 1.46 C607.72 155.75, 608.6 315.6, 610.71 406.97 M613.58 -0.18 C615.12 145.53, 615.88 291.83, 611.89 406.96 M612.76 407.93 C375.83 410.79, 140.85 407.85, -1.28 407.49 M612.03 407.83 C477.28 407.88, 340.63 407.2, -0.23 406.69 M1.11 405.45 C3.82 277.31, 6.15 149.74, 2.18 0.51 M-1 407.91 C-1.08 301.31, -0.2 196.96, 0.05 -0.55" stroke="#f8f9fa" stroke-width="4" fill="none"></path></g><g stroke-linecap="round" transform="translate(305.78148753041523 120.59905385752381) rotate(89.4354136562254 306.37179381381884 203.69544980238243)"><path d="M0.98 -1.04 C226.48 1.29, 452.02 1.84, 612.6 0.26 M0.76 0.18 C227 -2.39, 453.24 -3.26, 613.42 -0.53 M610.72 -1.11 C610.58 137.96, 609.69 271.74, 614.03 408.45 M612.96 -0.26 C617.12 158.89, 615.28 316.86, 613.68 407.22 M611.17 408.98 C405.15 407.7, 198.72 409.14, -1.26 407.69 M613.03 407.67 C425.72 409.67, 239.67 409.37, 0.13 406.62 M-0.51 406.11 C-0.44 271.46, -0.08 136.12, -0.92 0.34 M-0.39 406.7 C4.56 300.17, 4.12 191.71, -0.26 0.15" stroke="#f8f9fa" stroke-width="4" fill="none"></path></g><g stroke-linecap="round" transform="translate(317.2119743964463 115.40337800932821) rotate(89.4354136562254 306.37179381381884 203.69544980238243)"><path d="M-0.23 -0.98 C154.02 2.75, 310.68 3.44, 613.85 0.01 M0.75 0.74 C223.7 -1.26, 446.58 -1.66, 613.02 -0.18 M611.6 1.87 C606.59 148.59, 609.91 299.08, 614.73 409.06 M613.72 0.24 C612.78 115.22, 614.57 231.13, 613.15 407.41 M611.53 406.05 C407.05 412.37, 202.65 412.57, 0.07 405.97 M612.14 407 C395.2 408.42, 178.26 408.36, 0.27 407.79 M1.82 407.35 C3.22 321.39, 0.13 234.7, -0.8 -2 M0.49 407.74 C1.64 265.52, 1.32 124.9, -0.55 -0.01" stroke="#f8f9fa" stroke-width="4" fill="none"></path></g><g stroke-linecap="round" transform="translate(318.9854902084171 127.82046492555173) rotate(89.4354136562254 294.83343723242433 196.02401665715064)"><path d="M0.02 0.09 L585.83 -0.92 L587.25 395.29 L-0.47 393.03" stroke="none" stroke-width="0" fill="#1e1e1e"></path><path d="M0.94 0.23 C224.74 -1.79, 452.2 -2.96, 591.01 0.74 M0.66 -0.53 C167.97 -4.86, 336.95 -4.5, 588.99 0.65 M590.05 1.98 C589.12 97.98, 585.65 196.29, 591.84 389.9 M590.8 -0.24 C588.35 152.27, 588.05 302.89, 588.55 392.75 M589.27 392 C451.29 397.46, 312.9 396.27, -1.43 391.46 M590.21 391.98 C380.81 388.19, 171.36 388.3, -0.31 392.19 M-1.54 391.19 C-5.77 301.67, -3.92 210.96, -0.14 1.97 M-0.96 391.04 C3.44 250.62, 2.95 106.43, -1.01 -1.15" stroke="#f8f9fa" stroke-width="4" fill="none"></path></g><g stroke-linecap="round" transform="translate(28.227952691320752 214.00697134704888) rotate(89.4354136562254 294.83343723242433 196.02401665715064)"><path d="M-3.83 -0.92 L587.25 3.24 L589.19 393.03 L-0.72 393.55" stroke="none" stroke-width="0" fill="#ffffff"></path><path d="M-0.67 0.01 C200.87 -1.82, 400.3 0.08, 589.43 0.24 M-0.2 -0.52 C231.72 2.97, 461.54 3.78, 589.26 -0.48 M591.86 0.1 C589.15 137.96, 592.6 272.71, 591.68 391.09 M590.23 0.69 C594.37 138.64, 592.99 278.52, 588.91 391.5 M589.59 392.92 C355.76 391.58, 120.77 391.33, 0.87 391.4 M589.85 391.83 C457.98 391.51, 326.46 391.77, -0.57 392.79 M-1.57 391.58 C3.3 281.98, 2.88 176.38, 1.46 -2.04 M-0.56 392.88 C2.71 299.66, 2.76 208.32, 0.01 0.03" stroke="#343a40" stroke-width="4" fill="none"></path></g><g stroke-linecap="round" transform="translate(22.035087544825274 210.4965501445431) rotate(89.4354136562254 294.83343723242433 196.02401665715064)"><path d="M-1.12 -0.95 C228.66 -2.65, 455.04 -1.67, 590.51 -1.42 M-0.11 0.25 C227.65 -2.36, 454.74 -2.46, 589.56 -0.14 M590.5 2.23 C592.44 112.89, 592.21 224.23, 590.63 391.24 M590.65 -0.92 C585.95 88.74, 585.86 178.02, 588.95 391.51 M589.2 391.23 C443.91 394.74, 295.01 396.72, -1.4 392.67 M589.24 392.71 C382.71 390.7, 175.03 389.92, -0.22 391.89 M0.59 393.51 C4.57 243.74, 5.01 99.46, 2.31 -2.05 M-0.07 392.33 C-3.61 242.54, -2.36 91.48, 0.34 0.79" stroke="#343a40" stroke-width="4" fill="none"></path></g><g stroke-linecap="round" transform="translate(33.03508754482573 205.49655014454356) rotate(89.4354136562254 294.83343723242433 196.02401665715064)"><path d="M-0.81 0.15 C142.34 2.5, 285.49 1.94, 589.06 0.7 M-0.71 -0.1 C181.73 -3.65, 362.44 -3.69, 590.37 -0.34 M588.91 0.79 C592.51 113.43, 592.98 224.1, 588.73 390.51 M588.65 -0.31 C592 125.1, 591.35 251.99, 589.38 392.09 M590.58 392.28 C412.43 394.78, 234.57 393.18, 0.77 391.84 M589.48 391.3 C384.15 389.49, 178.75 390.16, 0.23 391.61 M1.16 392.62 C-2.26 282.1, 1.89 166.74, -2.28 -0.21 M-0.76 392.43 C-3.23 253.2, -2.85 114.91, 1.13 0.32" stroke="#343a40" stroke-width="4" fill="none"></path></g><g stroke-linecap="round" transform="translate(17.2167115049715 206.0267730212879) rotate(89.4354136562254 306.37179381381907 203.69544980238243)"><path d="M-0.74 0.01 C243.71 -0.86, 484.57 0.71, 612.32 0.39 M-0.43 -0.2 C142.73 -3.34, 287.22 -2.86, 612.93 -0.73 M612.1 1.25 C618.13 107.26, 616.96 216.47, 613.33 406.61 M612.39 -0.34 C613.87 115.83, 613.86 233.36, 612.04 407.84 M612.99 407.12 C415.4 404.57, 215.33 402.13, 1.34 406.11 M612.92 408.08 C403.49 406.87, 193.43 407.13, 0 406.65 M1.54 407.07 C2.46 319.05, 3.31 230.01, -1.1 1.81 M0.27 407.16 C0.11 262.86, -0.04 118.51, -0.88 -0.65" stroke="#343a40" stroke-width="4" fill="none"></path></g><g stroke-linecap="round" transform="translate(10.781487530415689 202.37897088951695) rotate(89.4354136562254 306.37179381381907 203.69544980238243)"><path d="M1.34 -0.61 C186.78 0.93, 373.46 0.36, 611.68 -1.5 M-0.49 -0.79 C216.48 0.91, 431.59 0.48, 612.47 0.78 M613.75 -1.07 C611.26 119.49, 612.01 238.59, 612.42 407.58 M613.48 -0.46 C612.04 89.91, 610.62 178.68, 613.01 407.7 M614.05 408.94 C483.5 405.67, 355.81 405.27, 0.67 408.7 M613 407.2 C432.79 411.69, 253.43 410.88, -0.64 407.01 M0.31 408.53 C-1.98 262.29, -4.25 115.83, 1.19 0.14 M0.39 406.98 C-0.86 253.64, -1.99 100.5, -0.2 -0.37" stroke="#343a40" stroke-width="4" fill="none"></path></g><g stroke-linecap="round" transform="translate(22.21197439644675 197.18329504132157) rotate(89.4354136562254 306.37179381381907 203.69544980238243)"><path d="M-0.16 0.96 C183.76 2.26, 367.31 0.37, 613.58 -0.86 M0.78 -0.31 C168.82 4.13, 337 5.64, 612.69 -0.23 M612.58 -0.2 C615.37 144.43, 614.46 290.62, 610.94 406.69 M613.46 0.8 C615.02 110.16, 615.99 219.73, 611.75 407.56 M612.64 406.51 C440.8 410.86, 266.83 413.45, -0.11 407.75 M612.45 407.47 C376.07 405.49, 138.75 405.85, 0.48 407.95 M1.16 408.98 C-1.73 292.93, 0.57 175, 1.68 0.54 M0.24 406.76 C-2.46 292.84, -1.77 179.21, 0.47 -0.01" stroke="#343a40" stroke-width="4" fill="none"></path></g><g stroke-linecap="round"><g transform="translate(7.546073306762992 350.781514065927) rotate(346.1017144132606 468.27833482349183 22.785355217921847)"><path d="M0.53 2.07 C31.18 -3.25, 89.1 -47.62, 181.17 -30.55 C273.24 -13.47, 427.18 109.18, 552.95 104.49 C678.71 99.8, 872.28 -31.09, 935.77 -58.69 M-2.63 0.73 C28.08 -4.29, 86.46 -44.89, 180.04 -27.29 C273.61 -9.69, 432.84 112.32, 558.83 106.32 C684.81 100.31, 872.79 -35.58, 935.92 -63.32" stroke="#9c36b5" stroke-width="4" fill="none"></path></g></g><mask></mask><g stroke-linecap="round"><g transform="translate(8.56392523955492 347.5158384132409) rotate(346.1017144132606 468.27833482349183 22.785355217921733)"><path d="M0 0 C29.86 -4.98, 86.69 -47.67, 179.14 -29.86 C271.59 -12.05, 428.47 112.09, 554.71 106.86 C680.94 101.62, 872.91 -33.26, 936.56 -61.28 M0 0 C29.86 -4.98, 86.69 -47.67, 179.14 -29.86 C271.59 -12.05, 428.47 112.09, 554.71 106.86 C680.94 101.62, 872.91 -33.26, 936.56 -61.28" stroke="#9c36b5" stroke-width="4" fill="none"></path></g></g><mask></mask><g stroke-linecap="round"><g transform="translate(7.28683496911799 345.2589916396835) rotate(346.1017144132606 468.27833482349183 22.785355217921847)"><path d="M0 0 C29.86 -4.98, 86.69 -47.67, 179.14 -29.86 C271.59 -12.05, 428.47 112.09, 554.71 106.86 C680.94 101.62, 872.91 -33.26, 936.56 -61.28 M0 0 C29.86 -4.98, 86.69 -47.67, 179.14 -29.86 C271.59 -12.05, 428.47 112.09, 554.71 106.86 C680.94 101.62, 872.91 -33.26, 936.56 -61.28" stroke="#9c36b5" stroke-width="4" fill="none"></path></g></g><mask></mask><g stroke-linecap="round"><g transform="translate(5.8097952964976685 345.7196857104485) rotate(346.1017144132606 468.27833482349183 22.785355217921733)"><path d="M-1.75 1.32 C27.53 -3.55, 85.55 -47.46, 178.12 -29.59 C270.7 -11.71, 427.07 113.46, 553.7 108.56 C680.33 103.66, 873.61 -30.84, 937.88 -59.01 M2.5 -0.43 C31.09 -4.76, 83.86 -43.21, 175.33 -25.81 C266.81 -8.41, 424.04 110.29, 551.35 103.96 C678.65 97.62, 874.85 -36.64, 939.18 -63.81" stroke="#9c36b5" stroke-width="4" fill="none"></path></g></g><mask></mask><g stroke-linecap="round"><g transform="translate(6.666623754678767 343.03417311156124) rotate(346.1017144132606 468.27833482349183 22.785355217921733)"><path d="M0 0 C29.86 -4.98, 86.69 -47.67, 179.14 -29.86 C271.59 -12.05, 428.47 112.09, 554.71 106.86 C680.94 101.62, 872.91 -33.26, 936.56 -61.28 M0 0 C29.86 -4.98, 86.69 -47.67, 179.14 -29.86 C271.59 -12.05, 428.47 112.09, 554.71 106.86 C680.94 101.62, 872.91 -33.26, 936.56 -61.28" stroke="#9c36b5" stroke-width="4" fill="none"></path></g></g><mask></mask><g stroke-linecap="round"><g transform="translate(5.3895334842382 340.7773263380042) rotate(346.1017144132606 468.27833482349183 22.785355217921733)"><path d="M0 0 C29.86 -4.98, 86.69 -47.67, 179.14 -29.86 C271.59 -12.05, 428.47 112.09, 554.71 106.86 C680.94 101.62, 872.91 -33.26, 936.56 -61.28 M0 0 C29.86 -4.98, 86.69 -47.67, 179.14 -29.86 C271.59 -12.05, 428.47 112.09, 554.71 106.86 C680.94 101.62, 872.91 -33.26, 936.56 -61.28" stroke="#9c36b5" stroke-width="4" fill="none"></path></g></g><mask></mask><g stroke-linecap="round"><g transform="translate(14.398863317984251 359.9998604633612) rotate(346.1017144132606 468.27833482349183 22.785355217921733)"><path d="M-0.61 -1.69 C28.65 -7.33, 85.14 -49.72, 177.73 -32.06 C270.31 -14.4, 428.83 108.87, 554.9 104.25 C680.96 99.64, 870.31 -32, 934.13 -59.77 M4.25 3.56 C34.26 -1.95, 91.87 -46.7, 183.36 -29.63 C274.85 -12.57, 428.19 111.85, 553.19 105.95 C678.2 100.06, 869.75 -36.98, 933.4 -64.99" stroke="#9c36b5" stroke-width="4" fill="none"></path></g></g><mask></mask><g stroke-linecap="round"><g transform="translate(15.694644716546463 356.73278837172177) rotate(346.1017144132606 468.27833482349183 22.785355217921733)"><path d="M0 0 C29.86 -4.98, 86.69 -47.67, 179.14 -29.86 C271.59 -12.05, 428.47 112.09, 554.71 106.86 C680.94 101.62, 872.91 -33.26, 936.56 -61.28 M0 0 C29.86 -4.98, 86.69 -47.67, 179.14 -29.86 C271.59 -12.05, 428.47 112.09, 554.71 106.86 C680.94 101.62, 872.91 -33.26, 936.56 -61.28" stroke="#9c36b5" stroke-width="4" fill="none"></path></g></g><mask></mask><g stroke-linecap="round"><g transform="translate(14.417554446110444 354.47594159816435) rotate(346.1017144132606 468.27833482349183 22.785355217921847)"><path d="M0 0 C29.86 -4.98, 86.69 -47.67, 179.14 -29.86 C271.59 -12.05, 428.47 112.09, 554.71 106.86 C680.94 101.62, 872.91 -33.26, 936.56 -61.28 M0 0 C29.86 -4.98, 86.69 -47.67, 179.14 -29.86 C271.59 -12.05, 428.47 112.09, 554.71 106.86 C680.94 101.62, 872.91 -33.26, 936.56 -61.28" stroke="#9c36b5" stroke-width="4" fill="none"></path></g></g><mask></mask><g stroke-linecap="round"><g transform="translate(12.656843374215896 354.98174561323196) rotate(346.1017144132606 468.27833482349183 22.785355217921733)"><path d="M-2.42 1.51 C27.62 -3.22, 87.76 -48.3, 180.44 -30.99 C273.11 -13.68, 427.33 110.19, 553.63 105.38 C679.94 100.56, 874.65 -32.55, 938.26 -59.88 M1.45 -0.14 C31.22 -4.25, 87.27 -45.95, 178.9 -27.98 C270.53 -10, 424.43 113.88, 551.24 107.69 C678.05 101.49, 875.01 -36.39, 939.76 -65.15" stroke="#9c36b5" stroke-width="4" fill="none"></path></g></g><mask></mask><g stroke-linecap="round"><g transform="translate(13.7973432316644 352.2511230700418) rotate(346.1017144132606 468.27833482349183 22.785355217921847)"><path d="M0 0 C29.86 -4.98, 86.69 -47.67, 179.14 -29.86 C271.59 -12.05, 428.47 112.09, 554.71 106.86 C680.94 101.62, 872.91 -33.26, 936.56 -61.28 M0 0 C29.86 -4.98, 86.69 -47.67, 179.14 -29.86 C271.59 -12.05, 428.47 112.09, 554.71 106.86 C680.94 101.62, 872.91 -33.26, 936.56 -61.28" stroke="#9c36b5" stroke-width="4" fill="none"></path></g></g><mask></mask><g stroke-linecap="round"><g transform="translate(12.520252961229744 349.9942762964853) rotate(346.1017144132606 468.27833482349183 22.785355217921733)"><path d="M0 0 C29.86 -4.98, 86.69 -47.67, 179.14 -29.86 C271.59 -12.05, 428.47 112.09, 554.71 106.86 C680.94 101.62, 872.91 -33.26, 936.56 -61.28 M0 0 C29.86 -4.98, 86.69 -47.67, 179.14 -29.86 C271.59 -12.05, 428.47 112.09, 554.71 106.86 C680.94 101.62, 872.91 -33.26, 936.56 -61.28" stroke="#9c36b5" stroke-width="4" fill="none"></path></g></g><mask></mask><g stroke-linecap="round"><g transform="translate(9.186091738256437 332.68351737451303) rotate(346.1017144132606 468.27833482349183 22.785355217921847)"><path d="M-2.53 1.84 C27.89 -3.22, 88.14 -48.7, 181.22 -31.34 C274.29 -13.98, 430.26 110.95, 555.94 106.01 C681.62 101.07, 871.64 -32.86, 935.29 -60.99 M1.29 0.37 C31.64 -4.25, 87.85 -46.56, 180.11 -28.51 C272.36 -10.46, 428.95 113.61, 554.8 108.66 C680.64 103.71, 871.8 -29.67, 935.18 -58.23" stroke="#9c36b5" stroke-width="4" fill="none"></path></g></g><mask></mask><g stroke-linecap="round"><g transform="translate(9.579039634346373 329.4172821044723) rotate(346.1017144132606 468.27833482349183 22.785355217921733)"><path d="M0 0 C29.86 -4.98, 86.69 -47.67, 179.14 -29.86 C271.59 -12.05, 428.47 112.09, 554.71 106.86 C680.94 101.62, 872.91 -33.26, 936.56 -61.28 M0 0 C29.86 -4.98, 86.69 -47.67, 179.14 -29.86 C271.59 -12.05, 428.47 112.09, 554.71 106.86 C680.94 101.62, 872.91 -33.26, 936.56 -61.28" stroke="#9c36b5" stroke-width="4" fill="none"></path></g></g><mask></mask><g stroke-linecap="round"><g transform="translate(8.30194936390535 327.160435330915) rotate(346.1017144132606 468.27833482349183 22.785355217921733)"><path d="M0 0 C29.86 -4.98, 86.69 -47.67, 179.14 -29.86 C271.59 -12.05, 428.47 112.09, 554.71 106.86 C680.94 101.62, 872.91 -33.26, 936.56 -61.28 M0 0 C29.86 -4.98, 86.69 -47.67, 179.14 -29.86 C271.59 -12.05, 428.47 112.09, 554.71 106.86 C680.94 101.62, 872.91 -33.26, 936.56 -61.28" stroke="#9c36b5" stroke-width="4" fill="none"></path></g></g><mask></mask><g stroke-linecap="round"><g transform="translate(7.22252927968384 328.07435849989633) rotate(346.1017144132606 468.27833482349183 22.785355217921847)"><path d="M-1.27 0.29 C28.6 -4.79, 88.11 -49.3, 180.43 -31.36 C272.76 -13.41, 426.92 112.86, 552.69 107.97 C678.45 103.08, 870.84 -32.83, 935.02 -60.67 M3.24 -2.02 C32.74 -6.68, 86.36 -46.05, 178.9 -28.54 C271.43 -11.03, 432.45 107.91, 558.43 103.04 C684.4 98.18, 872.01 -31.06, 934.77 -57.74" stroke="#9c36b5" stroke-width="4" fill="none"></path></g></g><mask></mask><g stroke-linecap="round"><g transform="translate(7.681738149471585 324.93561680279356) rotate(346.1017144132606 468.27833482349183 22.785355217921733)"><path d="M0 0 C29.86 -4.98, 86.69 -47.67, 179.14 -29.86 C271.59 -12.05, 428.47 112.09, 554.71 106.86 C680.94 101.62, 872.91 -33.26, 936.56 -61.28 M0 0 C29.86 -4.98, 86.69 -47.67, 179.14 -29.86 C271.59 -12.05, 428.47 112.09, 554.71 106.86 C680.94 101.62, 872.91 -33.26, 936.56 -61.28" stroke="#9c36b5" stroke-width="4" fill="none"></path></g></g><mask></mask><g stroke-linecap="round"><g transform="translate(6.404647879031927 322.67877002923615) rotate(346.1017144132606 468.27833482349183 22.785355217921847)"><path d="M0 0 C29.86 -4.98, 86.69 -47.67, 179.14 -29.86 C271.59 -12.05, 428.47 112.09, 554.71 106.86 C680.94 101.62, 872.91 -33.26, 936.56 -61.28 M0 0 C29.86 -4.98, 86.69 -47.67, 179.14 -29.86 C271.59 -12.05, 428.47 112.09, 554.71 106.86 C680.94 101.62, 872.91 -33.26, 936.56 -61.28" stroke="#9c36b5" stroke-width="4" fill="none"></path></g></g><mask></mask><g stroke-linecap="round"><g transform="translate(16.106833563961118 341.7138163138783) rotate(346.1017144132606 468.27833482349183 22.785355217921733)"><path d="M-1.54 0.61 C28.86 -4.19, 87.96 -45.07, 180.37 -27.69 C272.78 -10.31, 427.06 110.38, 552.95 104.89 C678.84 99.4, 871.38 -32.98, 935.72 -60.62 M2.83 -1.53 C33.15 -7.19, 86.13 -49.6, 178.8 -31.52 C271.47 -13.44, 432.65 111.29, 558.83 106.93 C685 102.58, 872.85 -29.85, 935.85 -57.65" stroke="#9c36b5" stroke-width="4" fill="none"></path></g></g><mask></mask><g stroke-linecap="round"><g transform="translate(16.709759111337917 338.6342320629534) rotate(346.1017144132606 468.27833482349183 22.785355217921733)"><path d="M0 0 C29.86 -4.98, 86.69 -47.67, 179.14 -29.86 C271.59 -12.05, 428.47 112.09, 554.71 106.86 C680.94 101.62, 872.91 -33.26, 936.56 -61.28 M0 0 C29.86 -4.98, 86.69 -47.67, 179.14 -29.86 C271.59 -12.05, 428.47 112.09, 554.71 106.86 C680.94 101.62, 872.91 -33.26, 936.56 -61.28" stroke="#9c36b5" stroke-width="4" fill="none"></path></g></g><mask></mask><g stroke-linecap="round"><g transform="translate(15.432668840898714 336.37738528939553) rotate(346.1017144132606 468.27833482349183 22.785355217921847)"><path d="M0 0 C29.86 -4.98, 86.69 -47.67, 179.14 -29.86 C271.59 -12.05, 428.47 112.09, 554.71 106.86 C680.94 101.62, 872.91 -33.26, 936.56 -61.28 M0 0 C29.86 -4.98, 86.69 -47.67, 179.14 -29.86 C271.59 -12.05, 428.47 112.09, 554.71 106.86 C680.94 101.62, 872.91 -33.26, 936.56 -61.28" stroke="#9c36b5" stroke-width="4" fill="none"></path></g></g><mask></mask><g stroke-linecap="round"><g transform="translate(13.823131977670528 336.88190165522644) rotate(346.1017144132606 468.27833482349183 22.785355217921733)"><path d="M-0.84 0.67 C29.71 -3.92, 88.53 -46.93, 181.54 -29.52 C274.55 -12.12, 431.31 110.77, 557.25 105.09 C683.18 99.41, 873.9 -35.54, 937.15 -63.59 M3.9 -1.44 C34.46 -5.34, 88.45 -43.83, 180.6 -25.71 C272.76 -7.6, 430.58 113.33, 556.82 107.24 C683.06 101.16, 875.29 -33.81, 938.06 -62.23" stroke="#9c36b5" stroke-width="4" fill="none"></path></g></g><mask></mask><g stroke-linecap="round"><g transform="translate(14.81245762645949 334.15256676127296) rotate(346.1017144132606 468.27833482349183 22.785355217921847)"><path d="M0 0 C29.86 -4.98, 86.69 -47.67, 179.14 -29.86 C271.59 -12.05, 428.47 112.09, 554.71 106.86 C680.94 101.62, 872.91 -33.26, 936.56 -61.28 M0 0 C29.86 -4.98, 86.69 -47.67, 179.14 -29.86 C271.59 -12.05, 428.47 112.09, 554.71 106.86 C680.94 101.62, 872.91 -33.26, 936.56 -61.28" stroke="#9c36b5" stroke-width="4" fill="none"></path></g></g><mask></mask><g stroke-linecap="round"><g transform="translate(13.535367356020288 331.8957199877168) rotate(346.1017144132606 468.27833482349183 22.785355217921847)"><path d="M0 0 C29.86 -4.98, 86.69 -47.67, 179.14 -29.86 C271.59 -12.05, 428.47 112.09, 554.71 106.86 C680.94 101.62, 872.91 -33.26, 936.56 -61.28 M0 0 C29.86 -4.98, 86.69 -47.67, 179.14 -29.86 C271.59 -12.05, 428.47 112.09, 554.71 106.86 C680.94 101.62, 872.91 -33.26, 936.56 -61.28" stroke="#9c36b5" stroke-width="4" fill="none"></path></g></g><mask></mask><g stroke-linecap="round"><g transform="translate(6.399167790411866 323.8233680951664) rotate(346.1017144132606 468.27833482349183 22.785355217921847)"><path d="M2.02 -2.77 C31.75 -7.95, 84.03 -47.01, 176.49 -28.36 C268.95 -9.71, 430.51 114.97, 556.78 109.12 C683.05 103.27, 871.22 -34.66, 934.11 -63.46 M-0.32 1.89 C30.41 -2.91, 88.72 -49.71, 181.46 -32.55 C274.2 -15.4, 430.79 109.73, 556.1 104.82 C681.42 99.91, 869.73 -33.89, 933.36 -62.04" stroke="#9c36b5" stroke-width="4" fill="none"></path></g></g><mask></mask><g stroke-linecap="round"><g transform="translate(7.417019723202884 320.5576924424802) rotate(346.1017144132606 468.27833482349183 22.785355217921847)"><path d="M0 0 C29.86 -4.98, 86.69 -47.67, 179.14 -29.86 C271.59 -12.05, 428.47 112.09, 554.71 106.86 C680.94 101.62, 872.91 -33.26, 936.56 -61.28 M0 0 C29.86 -4.98, 86.69 -47.67, 179.14 -29.86 C271.59 -12.05, 428.47 112.09, 554.71 106.86 C680.94 101.62, 872.91 -33.26, 936.56 -61.28" stroke="#9c36b5" stroke-width="4" fill="none"></path></g></g><mask></mask><g stroke-linecap="round"><g transform="translate(6.139929452766864 318.3008456689224) rotate(346.1017144132606 468.27833482349183 22.785355217921847)"><path d="M0 0 C29.86 -4.98, 86.69 -47.67, 179.14 -29.86 C271.59 -12.05, 428.47 112.09, 554.71 106.86 C680.94 101.62, 872.91 -33.26, 936.56 -61.28 M0 0 C29.86 -4.98, 86.69 -47.67, 179.14 -29.86 C271.59 -12.05, 428.47 112.09, 554.71 106.86 C680.94 101.62, 872.91 -33.26, 936.56 -61.28" stroke="#9c36b5" stroke-width="4" fill="none"></path></g></g><mask></mask><g stroke-linecap="round"><g transform="translate(4.662889780146088 318.7615397396878) rotate(346.1017144132606 468.27833482349183 22.785355217921847)"><path d="M-2.45 -2.18 C26.65 -7.93, 83.41 -50.78, 176.67 -32.25 C269.93 -13.73, 430.29 113.39, 557.11 108.97 C683.94 104.56, 874.73 -30.34, 937.62 -58.74 M1.42 2.81 C31.17 -2.88, 89.2 -46.89, 181.73 -29.93 C274.26 -12.96, 430.44 110.17, 556.61 104.6 C682.79 99.02, 875.14 -35.87, 938.78 -63.4" stroke="#9c36b5" stroke-width="4" fill="none"></path></g></g><mask></mask><g stroke-linecap="round"><g transform="translate(5.519718238326732 316.07602714080053) rotate(346.1017144132606 468.27833482349183 22.785355217921847)"><path d="M0 0 C29.86 -4.98, 86.69 -47.67, 179.14 -29.86 C271.59 -12.05, 428.47 112.09, 554.71 106.86 C680.94 101.62, 872.91 -33.26, 936.56 -61.28 M0 0 C29.86 -4.98, 86.69 -47.67, 179.14 -29.86 C271.59 -12.05, 428.47 112.09, 554.71 106.86 C680.94 101.62, 872.91 -33.26, 936.56 -61.28" stroke="#9c36b5" stroke-width="4" fill="none"></path></g></g><mask></mask><g stroke-linecap="round"><g transform="translate(4.242627967887074 313.81918036724323) rotate(346.1017144132606 468.27833482349183 22.785355217921847)"><path d="M0 0 C29.86 -4.98, 86.69 -47.67, 179.14 -29.86 C271.59 -12.05, 428.47 112.09, 554.71 106.86 C680.94 101.62, 872.91 -33.26, 936.56 -61.28 M0 0 C29.86 -4.98, 86.69 -47.67, 179.14 -29.86 C271.59 -12.05, 428.47 112.09, 554.71 106.86 C680.94 101.62, 872.91 -33.26, 936.56 -61.28" stroke="#9c36b5" stroke-width="4" fill="none"></path></g></g><mask></mask><g stroke-linecap="round"><g transform="translate(13.251957801632216 333.04171449260025) rotate(346.1017144132606 468.27833482349183 22.785355217921847)"><path d="M1.07 2.54 C30.17 -2.81, 85.12 -47.2, 177.04 -30.01 C268.96 -12.82, 426 111.02, 552.57 105.65 C679.14 100.29, 872.66 -34.46, 936.45 -62.2 M-1.8 1.45 C27.97 -3.63, 88.96 -44.24, 182.3 -26.46 C275.64 -8.69, 432.46 113.71, 558.24 108.11 C684.02 102.5, 873.38 -32.14, 936.98 -60.09" stroke="#9c36b5" stroke-width="4" fill="none"></path></g></g><mask></mask><g stroke-linecap="round"><g transform="translate(14.547739200195338 329.77464240096083) rotate(346.1017144132606 468.27833482349183 22.785355217921847)"><path d="M0 0 C29.86 -4.98, 86.69 -47.67, 179.14 -29.86 C271.59 -12.05, 428.47 112.09, 554.71 106.86 C680.94 101.62, 872.91 -33.26, 936.56 -61.28 M0 0 C29.86 -4.98, 86.69 -47.67, 179.14 -29.86 C271.59 -12.05, 428.47 112.09, 554.71 106.86 C680.94 101.62, 872.91 -33.26, 936.56 -61.28" stroke="#9c36b5" stroke-width="4" fill="none"></path></g></g><mask></mask><g stroke-linecap="round"><g transform="translate(13.270648929759318 327.51779562740353) rotate(346.1017144132606 468.27833482349183 22.785355217921847)"><path d="M0 0 C29.86 -4.98, 86.69 -47.67, 179.14 -29.86 C271.59 -12.05, 428.47 112.09, 554.71 106.86 C680.94 101.62, 872.91 -33.26, 936.56 -61.28 M0 0 C29.86 -4.98, 86.69 -47.67, 179.14 -29.86 C271.59 -12.05, 428.47 112.09, 554.71 106.86 C680.94 101.62, 872.91 -33.26, 936.56 -61.28" stroke="#9c36b5" stroke-width="4" fill="none"></path></g></g><mask></mask><g stroke-linecap="round"><g transform="translate(11.50993785786477 328.023599642471) rotate(346.1017144132606 468.27833482349183 22.785355217921847)"><path d="M-0.1 -0.92 C29.9 -5.61, 85.29 -47.26, 177.91 -29.35 C270.54 -11.43, 429.48 111.74, 555.64 106.59 C681.8 101.44, 871.23 -32.58, 934.89 -60.25 M-3.6 -3.88 C26.11 -9.37, 82.02 -52.99, 175.01 -34.08 C268 -15.17, 427.75 113.39, 554.34 109.55 C680.94 105.72, 871.17 -29.25, 934.56 -57.08" stroke="#9c36b5" stroke-width="4" fill="none"></path></g></g><mask></mask><g stroke-linecap="round"><g transform="translate(12.650437715312819 325.29297709928073) rotate(346.1017144132606 468.27833482349183 22.785355217921847)"><path d="M0 0 C29.86 -4.98, 86.69 -47.67, 179.14 -29.86 C271.59 -12.05, 428.47 112.09, 554.71 106.86 C680.94 101.62, 872.91 -33.26, 936.56 -61.28 M0 0 C29.86 -4.98, 86.69 -47.67, 179.14 -29.86 C271.59 -12.05, 428.47 112.09, 554.71 106.86 C680.94 101.62, 872.91 -33.26, 936.56 -61.28" stroke="#9c36b5" stroke-width="4" fill="none"></path></g></g><mask></mask><g stroke-linecap="round"><g transform="translate(11.373347444877709 323.03613032572434) rotate(346.1017144132606 468.27833482349183 22.785355217921847)"><path d="M0 0 C29.86 -4.98, 86.69 -47.67, 179.14 -29.86 C271.59 -12.05, 428.47 112.09, 554.71 106.86 C680.94 101.62, 872.91 -33.26, 936.56 -61.28 M0 0 C29.86 -4.98, 86.69 -47.67, 179.14 -29.86 C271.59 -12.05, 428.47 112.09, 554.71 106.86 C680.94 101.62, 872.91 -33.26, 936.56 -61.28" stroke="#9c36b5" stroke-width="4" fill="none"></path></g></g><mask></mask><g stroke-linecap="round"><g transform="translate(8.039186221905311 305.7253714037522) rotate(346.1017144132606 468.27833482349183 22.785355217921847)"><path d="M-1.67 1.04 C28.21 -3.57, 87.47 -45.28, 180.19 -27.95 C272.91 -10.62, 428.71 110.98, 554.66 105.02 C680.61 99.05, 871.92 -36.44, 935.89 -63.74 M2.62 -0.86 C32.13 -6.24, 86.82 -49.93, 178.52 -31.93 C270.22 -13.93, 426.56 112.22, 552.82 107.13 C679.09 102.04, 872.24 -33.75, 936.11 -62.47" stroke="#9c36b5" stroke-width="4" fill="none"></path></g></g><mask></mask><g stroke-linecap="round"><g transform="translate(8.432134117994337 302.45913613371135) rotate(346.1017144132606 468.27833482349183 22.785355217921847)"><path d="M0 0 C29.86 -4.98, 86.69 -47.67, 179.14 -29.86 C271.59 -12.05, 428.47 112.09, 554.71 106.86 C680.94 101.62, 872.91 -33.26, 936.56 -61.28 M0 0 C29.86 -4.98, 86.69 -47.67, 179.14 -29.86 C271.59 -12.05, 428.47 112.09, 554.71 106.86 C680.94 101.62, 872.91 -33.26, 936.56 -61.28" stroke="#9c36b5" stroke-width="4" fill="none"></path></g></g><mask></mask><g stroke-linecap="round"><g transform="translate(7.15504384755377 300.20228936015405) rotate(346.1017144132606 468.27833482349183 22.785355217921847)"><path d="M0 0 C29.86 -4.98, 86.69 -47.67, 179.14 -29.86 C271.59 -12.05, 428.47 112.09, 554.71 106.86 C680.94 101.62, 872.91 -33.26, 936.56 -61.28 M0 0 C29.86 -4.98, 86.69 -47.67, 179.14 -29.86 C271.59 -12.05, 428.47 112.09, 554.71 106.86 C680.94 101.62, 872.91 -33.26, 936.56 -61.28" stroke="#9c36b5" stroke-width="4" fill="none"></path></g></g><mask></mask><g stroke-linecap="round"><g transform="translate(6.075623763331805 301.1162125291355) rotate(346.1017144132606 468.27833482349183 22.785355217921847)"><path d="M-0.67 -2.46 C29.52 -6.72, 88.12 -45.81, 181.07 -27.39 C274.03 -8.97, 431.14 113.54, 557.09 108.05 C683.05 102.56, 873.72 -32.49, 936.81 -60.31 M4.17 2.38 C34.16 -2.45, 87.82 -47.86, 179.89 -31.06 C271.96 -14.26, 430.31 107.52, 556.58 103.17 C682.86 98.81, 873.58 -29.1, 937.53 -57.17" stroke="#9c36b5" stroke-width="4" fill="none"></path></g></g><mask></mask><g stroke-linecap="round"><g transform="translate(6.534832633120004 297.9774708320326) rotate(346.1017144132606 468.27833482349183 22.785355217921847)"><path d="M0 0 C29.86 -4.98, 86.69 -47.67, 179.14 -29.86 C271.59 -12.05, 428.47 112.09, 554.71 106.86 C680.94 101.62, 872.91 -33.26, 936.56 -61.28 M0 0 C29.86 -4.98, 86.69 -47.67, 179.14 -29.86 C271.59 -12.05, 428.47 112.09, 554.71 106.86 C680.94 101.62, 872.91 -33.26, 936.56 -61.28" stroke="#9c36b5" stroke-width="4" fill="none"></path></g></g><mask></mask><g stroke-linecap="round"><g transform="translate(5.257742362680347 295.7206240584753) rotate(346.1017144132606 468.27833482349183 22.785355217921847)"><path d="M0 0 C29.86 -4.98, 86.69 -47.67, 179.14 -29.86 C271.59 -12.05, 428.47 112.09, 554.71 106.86 C680.94 101.62, 872.91 -33.26, 936.56 -61.28 M0 0 C29.86 -4.98, 86.69 -47.67, 179.14 -29.86 C271.59 -12.05, 428.47 112.09, 554.71 106.86 C680.94 101.62, 872.91 -33.26, 936.56 -61.28" stroke="#9c36b5" stroke-width="4" fill="none"></path></g></g><mask></mask><g stroke-linecap="round"><g transform="translate(14.959928047609992 314.7556703431176) rotate(346.1017144132606 468.27833482349183 22.785355217921847)"><path d="M0.26 0.98 C29.56 -3.79, 85.38 -44.92, 178.21 -27.42 C271.05 -9.92, 430.47 111.24, 557.28 105.97 C684.1 100.7, 876.31 -31.34, 939.1 -59.03 M-3.05 -0.96 C25.58 -6.58, 82.15 -49.37, 175.47 -31.11 C268.79 -12.85, 430.71 114.06, 556.87 108.6 C683.03 103.15, 868.94 -35.97, 932.42 -63.84" stroke="#9c36b5" stroke-width="4" fill="none"></path></g></g><mask></mask><g stroke-linecap="round"><g transform="translate(15.562853594986791 311.67608609219246) rotate(346.1017144132606 468.27833482349183 22.785355217921847)"><path d="M0 0 C29.86 -4.98, 86.69 -47.67, 179.14 -29.86 C271.59 -12.05, 428.47 112.09, 554.71 106.86 C680.94 101.62, 872.91 -33.26, 936.56 -61.28 M0 0 C29.86 -4.98, 86.69 -47.67, 179.14 -29.86 C271.59 -12.05, 428.47 112.09, 554.71 106.86 C680.94 101.62, 872.91 -33.26, 936.56 -61.28" stroke="#9c36b5" stroke-width="4" fill="none"></path></g></g><mask></mask><g stroke-linecap="round"><g transform="translate(14.285763324547133 309.4192393186347) rotate(346.1017144132606 468.27833482349183 22.785355217921847)"><path d="M0 0 C29.86 -4.98, 86.69 -47.67, 179.14 -29.86 C271.59 -12.05, 428.47 112.09, 554.71 106.86 C680.94 101.62, 872.91 -33.26, 936.56 -61.28 M0 0 C29.86 -4.98, 86.69 -47.67, 179.14 -29.86 C271.59 -12.05, 428.47 112.09, 554.71 106.86 C680.94 101.62, 872.91 -33.26, 936.56 -61.28" stroke="#9c36b5" stroke-width="4" fill="none"></path></g></g><mask></mask><g stroke-linecap="round"><g transform="translate(12.676226461318493 309.92375568446573) rotate(346.1017144132606 468.27833482349183 22.785355217921847)"><path d="M2.54 2.26 C31.54 -2.38, 84.11 -45.99, 176.58 -28.71 C269.04 -11.44, 430.36 111.07, 557.33 105.93 C684.31 100.79, 874.84 -32.15, 938.41 -59.56 M0.48 1.01 C30.08 -4.4, 88.84 -51.03, 181.59 -33.11 C274.33 -15.19, 430.55 113.79, 556.95 108.53 C683.36 103.27, 876.74 -35.77, 940 -64.66" stroke="#9c36b5" stroke-width="4" fill="none"></path></g></g><mask></mask><g stroke-linecap="round"><g transform="translate(13.66555211010791 307.1944207905119) rotate(346.1017144132606 468.27833482349183 22.785355217921847)"><path d="M0 0 C29.86 -4.98, 86.69 -47.67, 179.14 -29.86 C271.59 -12.05, 428.47 112.09, 554.71 106.86 C680.94 101.62, 872.91 -33.26, 936.56 -61.28 M0 0 C29.86 -4.98, 86.69 -47.67, 179.14 -29.86 C271.59 -12.05, 428.47 112.09, 554.71 106.86 C680.94 101.62, 872.91 -33.26, 936.56 -61.28" stroke="#9c36b5" stroke-width="4" fill="none"></path></g></g><mask></mask><g stroke-linecap="round"><g transform="translate(12.388461839669162 304.937574016956) rotate(346.1017144132606 468.27833482349183 22.785355217921847)"><path d="M0 0 C29.86 -4.98, 86.69 -47.67, 179.14 -29.86 C271.59 -12.05, 428.47 112.09, 554.71 106.86 C680.94 101.62, 872.91 -33.26, 936.56 -61.28 M0 0 C29.86 -4.98, 86.69 -47.67, 179.14 -29.86 C271.59 -12.05, 428.47 112.09, 554.71 106.86 C680.94 101.62, 872.91 -33.26, 936.56 -61.28" stroke="#9c36b5" stroke-width="4" fill="none"></path></g></g><mask></mask><g stroke-linecap="round"><g transform="translate(4.955378524939988 367.93613102155655) rotate(346.1017144132606 468.27833482349183 22.785355217921847)"><path d="M-1.35 0.07 C28.66 -4.7, 86.36 -49.19, 178.82 -31.19 C271.29 -13.19, 427.4 112.74, 553.46 108.05 C679.52 103.35, 871.48 -31.15, 935.19 -59.36 M3.12 -2.36 C32.84 -6.53, 85.1 -45.87, 176.41 -28.28 C267.72 -10.7, 424.54 109.17, 550.97 103.16 C677.41 97.15, 870.13 -37.12, 935.03 -64.35" stroke="#9c36b5" stroke-width="4" fill="none"></path></g></g><mask></mask><g stroke-linecap="round"><g transform="translate(5.973230457731006 364.67045536886985) rotate(346.1017144132606 468.27833482349183 22.785355217921847)"><path d="M0 0 C29.86 -4.98, 86.69 -47.67, 179.14 -29.86 C271.59 -12.05, 428.47 112.09, 554.71 106.86 C680.94 101.62, 872.91 -33.26, 936.56 -61.28 M0 0 C29.86 -4.98, 86.69 -47.67, 179.14 -29.86 C271.59 -12.05, 428.47 112.09, 554.71 106.86 C680.94 101.62, 872.91 -33.26, 936.56 -61.28" stroke="#9c36b5" stroke-width="4" fill="none"></path></g></g><mask></mask><g stroke-linecap="round"><g transform="translate(4.696140187294986 362.41360859531255) rotate(346.1017144132606 468.27833482349183 22.785355217921847)"><path d="M0 0 C29.86 -4.98, 86.69 -47.67, 179.14 -29.86 C271.59 -12.05, 428.47 112.09, 554.71 106.86 C680.94 101.62, 872.91 -33.26, 936.56 -61.28 M0 0 C29.86 -4.98, 86.69 -47.67, 179.14 -29.86 C271.59 -12.05, 428.47 112.09, 554.71 106.86 C680.94 101.62, 872.91 -33.26, 936.56 -61.28" stroke="#9c36b5" stroke-width="4" fill="none"></path></g></g><mask></mask><g stroke-linecap="round"><g transform="translate(3.21910051467421 362.87430266607794) rotate(346.1017144132606 468.27833482349183 22.785355217921847)"><path d="M-1.37 1.93 C28.55 -3.23, 85.21 -47.07, 178.26 -29.77 C271.32 -12.47, 430.94 110.7, 556.94 105.72 C682.95 100.74, 870.71 -31.79, 934.3 -59.65 M3.08 0.5 C32.66 -4.27, 83.34 -44.04, 175.55 -26.09 C267.76 -8.14, 430 114.66, 556.35 108.21 C682.7 101.76, 870.37 -36.66, 933.65 -64.8" stroke="#9c36b5" stroke-width="4" fill="none"></path></g></g><mask></mask><g stroke-linecap="round"><g transform="translate(4.075928972854854 360.1887900671902) rotate(346.1017144132606 468.27833482349183 22.785355217921847)"><path d="M0 0 C29.86 -4.98, 86.69 -47.67, 179.14 -29.86 C271.59 -12.05, 428.47 112.09, 554.71 106.86 C680.94 101.62, 872.91 -33.26, 936.56 -61.28 M0 0 C29.86 -4.98, 86.69 -47.67, 179.14 -29.86 C271.59 -12.05, 428.47 112.09, 554.71 106.86 C680.94 101.62, 872.91 -33.26, 936.56 -61.28" stroke="#9c36b5" stroke-width="4" fill="none"></path></g></g><mask></mask><g stroke-linecap="round"><g transform="translate(2.798838702415196 357.9319432936329) rotate(346.1017144132606 468.27833482349183 22.785355217921847)"><path d="M0 0 C29.86 -4.98, 86.69 -47.67, 179.14 -29.86 C271.59 -12.05, 428.47 112.09, 554.71 106.86 C680.94 101.62, 872.91 -33.26, 936.56 -61.28 M0 0 C29.86 -4.98, 86.69 -47.67, 179.14 -29.86 C271.59 -12.05, 428.47 112.09, 554.71 106.86 C680.94 101.62, 872.91 -33.26, 936.56 -61.28" stroke="#9c36b5" stroke-width="4" fill="none"></path></g></g><mask></mask><g stroke-linecap="round"><g transform="translate(11.808168536160338 377.1544774189899) rotate(346.1017144132606 468.27833482349183 22.785355217921847)"><path d="M-2.26 1.63 C27.55 -3.18, 88.51 -48.03, 181.07 -30.03 C273.63 -12.03, 427.33 115.25, 553.1 109.61 C678.88 103.98, 871.43 -35.5, 935.72 -63.83 M1.71 0.05 C31.12 -4.2, 88.43 -44.08, 179.88 -26.49 C271.33 -8.9, 424.43 111.6, 550.42 105.58 C676.42 99.56, 871.49 -35.18, 935.85 -62.61" stroke="#9c36b5" stroke-width="4" fill="none"></path></g></g><mask></mask><g stroke-linecap="round"><g transform="translate(13.10394993472346 373.8874053273505) rotate(346.1017144132606 468.27833482349183 22.785355217921847)"><path d="M0 0 C29.86 -4.98, 86.69 -47.67, 179.14 -29.86 C271.59 -12.05, 428.47 112.09, 554.71 106.86 C680.94 101.62, 872.91 -33.26, 936.56 -61.28 M0 0 C29.86 -4.98, 86.69 -47.67, 179.14 -29.86 C271.59 -12.05, 428.47 112.09, 554.71 106.86 C680.94 101.62, 872.91 -33.26, 936.56 -61.28" stroke="#9c36b5" stroke-width="4" fill="none"></path></g></g><mask></mask><g stroke-linecap="round"><g transform="translate(11.82685966428744 371.6305585537932) rotate(346.1017144132606 468.27833482349183 22.785355217921847)"><path d="M0 0 C29.86 -4.98, 86.69 -47.67, 179.14 -29.86 C271.59 -12.05, 428.47 112.09, 554.71 106.86 C680.94 101.62, 872.91 -33.26, 936.56 -61.28 M0 0 C29.86 -4.98, 86.69 -47.67, 179.14 -29.86 C271.59 -12.05, 428.47 112.09, 554.71 106.86 C680.94 101.62, 872.91 -33.26, 936.56 -61.28" stroke="#9c36b5" stroke-width="4" fill="none"></path></g></g><mask></mask><g stroke-linecap="round"><g transform="translate(10.066148592392892 372.13636256886116) rotate(346.1017144132606 468.27833482349183 22.785355217921847)"><path d="M-0.83 -2.55 C29.67 -7.84, 88.41 -46.77, 181.44 -28.97 C274.46 -11.16, 431.52 109.3, 557.32 104.3 C683.12 99.31, 873.47 -31.19, 936.23 -58.95 M3.91 2.24 C34.4 -2.73, 88.28 -50.79, 180.45 -33.49 C272.62 -16.2, 430.9 111.07, 556.93 106.03 C682.96 100.99, 873.19 -35.74, 936.64 -63.72" stroke="#9c36b5" stroke-width="4" fill="none"></path></g></g><mask></mask><g stroke-linecap="round"><g transform="translate(11.20664844984094 369.40574002567087) rotate(346.1017144132606 468.27833482349183 22.785355217921847)"><path d="M0 0 C29.86 -4.98, 86.69 -47.67, 179.14 -29.86 C271.59 -12.05, 428.47 112.09, 554.71 106.86 C680.94 101.62, 872.91 -33.26, 936.56 -61.28 M0 0 C29.86 -4.98, 86.69 -47.67, 179.14 -29.86 C271.59 -12.05, 428.47 112.09, 554.71 106.86 C680.94 101.62, 872.91 -33.26, 936.56 -61.28" stroke="#9c36b5" stroke-width="4" fill="none"></path></g></g><mask></mask><g stroke-linecap="round"><g transform="translate(9.92955817940583 367.1488932521145) rotate(346.1017144132606 468.27833482349183 22.785355217921847)"><path d="M0 0 C29.86 -4.98, 86.69 -47.67, 179.14 -29.86 C271.59 -12.05, 428.47 112.09, 554.71 106.86 C680.94 101.62, 872.91 -33.26, 936.56 -61.28 M0 0 C29.86 -4.98, 86.69 -47.67, 179.14 -29.86 C271.59 -12.05, 428.47 112.09, 554.71 106.86 C680.94 101.62, 872.91 -33.26, 936.56 -61.28" stroke="#9c36b5" stroke-width="4" fill="none"></path></g></g><mask></mask><g stroke-linecap="round"><g transform="translate(6.595396956433433 349.8381343301419) rotate(346.1017144132606 468.27833482349183 22.785355217921847)"><path d="M-0.32 2.33 C28.66 -2.38, 83.9 -48.71, 176.5 -30.85 C269.1 -12.98, 428.93 114.99, 555.29 109.52 C681.65 104.05, 871.37 -35.33, 934.67 -63.67 M-3.94 1.13 C25.63 -2.96, 88.51 -45.14, 181.47 -27.75 C274.42 -10.37, 428.34 111.21, 553.8 105.44 C679.26 99.67, 869.96 -34.92, 934.22 -62.36" stroke="#9c36b5" stroke-width="4" fill="none"></path></g></g><mask></mask><g stroke-linecap="round"><g transform="translate(6.988344852522459 346.57189906010103) rotate(346.1017144132606 468.27833482349183 22.785355217921847)"><path d="M0 0 C29.86 -4.98, 86.69 -47.67, 179.14 -29.86 C271.59 -12.05, 428.47 112.09, 554.71 106.86 C680.94 101.62, 872.91 -33.26, 936.56 -61.28 M0 0 C29.86 -4.98, 86.69 -47.67, 179.14 -29.86 C271.59 -12.05, 428.47 112.09, 554.71 106.86 C680.94 101.62, 872.91 -33.26, 936.56 -61.28" stroke="#9c36b5" stroke-width="4" fill="none"></path></g></g><mask></mask><g stroke-linecap="round"><g transform="translate(5.711254582081892 344.31505228654373) rotate(346.1017144132606 468.27833482349183 22.785355217921847)"><path d="M0 0 C29.86 -4.98, 86.69 -47.67, 179.14 -29.86 C271.59 -12.05, 428.47 112.09, 554.71 106.86 C680.94 101.62, 872.91 -33.26, 936.56 -61.28 M0 0 C29.86 -4.98, 86.69 -47.67, 179.14 -29.86 C271.59 -12.05, 428.47 112.09, 554.71 106.86 C680.94 101.62, 872.91 -33.26, 936.56 -61.28" stroke="#9c36b5" stroke-width="4" fill="none"></path></g></g><mask></mask><g stroke-linecap="round"><g transform="translate(4.631834497859927 345.2289754555252) rotate(346.1017144132606 468.27833482349183 22.785355217921847)"><path d="M-1.89 -2.38 C27.62 -7.68, 84.59 -47.14, 177.62 -29.1 C270.65 -11.05, 429.63 110.98, 556.3 105.87 C682.97 100.77, 874.15 -31.81, 937.61 -59.72 M2.28 2.49 C32.66 -2.49, 91.02 -51.35, 183.2 -33.69 C275.38 -16.03, 429.43 113.65, 555.36 108.45 C681.29 103.25, 875.67 -36.69, 938.77 -64.91" stroke="#9c36b5" stroke-width="4" fill="none"></path></g></g><mask></mask><g stroke-linecap="round"><g transform="translate(5.091043367648126 342.0902337584223) rotate(346.1017144132606 468.27833482349183 22.785355217921847)"><path d="M0 0 C29.86 -4.98, 86.69 -47.67, 179.14 -29.86 C271.59 -12.05, 428.47 112.09, 554.71 106.86 C680.94 101.62, 872.91 -33.26, 936.56 -61.28 M0 0 C29.86 -4.98, 86.69 -47.67, 179.14 -29.86 C271.59 -12.05, 428.47 112.09, 554.71 106.86 C680.94 101.62, 872.91 -33.26, 936.56 -61.28" stroke="#9c36b5" stroke-width="4" fill="none"></path></g></g><mask></mask><g stroke-linecap="round"><g transform="translate(3.8139530972084685 339.833386984865) rotate(346.1017144132606 468.27833482349183 22.785355217921847)"><path d="M0 0 C29.86 -4.98, 86.69 -47.67, 179.14 -29.86 C271.59 -12.05, 428.47 112.09, 554.71 106.86 C680.94 101.62, 872.91 -33.26, 936.56 -61.28 M0 0 C29.86 -4.98, 86.69 -47.67, 179.14 -29.86 C271.59 -12.05, 428.47 112.09, 554.71 106.86 C680.94 101.62, 872.91 -33.26, 936.56 -61.28" stroke="#9c36b5" stroke-width="4" fill="none"></path></g></g><mask></mask><g stroke-linecap="round"><g transform="translate(13.516138782138114 358.8684332695077) rotate(346.1017144132606 468.27833482349183 22.785355217921847)"><path d="M1.06 1.56 C30.74 -3.31, 87.52 -48.1, 179.7 -30.2 C271.88 -12.3, 428.35 114.03, 554.12 108.95 C679.89 103.88, 870.77 -32.24, 934.32 -60.64 M-1.81 -0.06 C27.41 -4.39, 85.46 -44.2, 177.76 -26.76 C270.06 -9.32, 426.01 109.71, 552 104.56 C677.99 99.41, 869.02 -30.16, 933.69 -57.68" stroke="#9c36b5" stroke-width="4" fill="none"></path></g></g><mask></mask><g stroke-linecap="round"><g transform="translate(14.119064329514913 355.7888490185826) rotate(346.1017144132606 468.27833482349183 22.785355217921847)"><path d="M0 0 C29.86 -4.98, 86.69 -47.67, 179.14 -29.86 C271.59 -12.05, 428.47 112.09, 554.71 106.86 C680.94 101.62, 872.91 -33.26, 936.56 -61.28 M0 0 C29.86 -4.98, 86.69 -47.67, 179.14 -29.86 C271.59 -12.05, 428.47 112.09, 554.71 106.86 C680.94 101.62, 872.91 -33.26, 936.56 -61.28" stroke="#9c36b5" stroke-width="4" fill="none"></path></g></g><mask></mask><g stroke-linecap="round"><g transform="translate(12.841974059075255 353.5320022450244) rotate(346.1017144132606 468.27833482349183 22.785355217921847)"><path d="M0 0 C29.86 -4.98, 86.69 -47.67, 179.14 -29.86 C271.59 -12.05, 428.47 112.09, 554.71 106.86 C680.94 101.62, 872.91 -33.26, 936.56 -61.28 M0 0 C29.86 -4.98, 86.69 -47.67, 179.14 -29.86 C271.59 -12.05, 428.47 112.09, 554.71 106.86 C680.94 101.62, 872.91 -33.26, 936.56 -61.28" stroke="#9c36b5" stroke-width="4" fill="none"></path></g></g><mask></mask><g stroke-linecap="round"><g transform="translate(11.232437195846614 354.03651861085586) rotate(346.1017144132606 468.27833482349183 22.785355217921847)"><path d="M-2.24 0.65 C27.53 -4.7, 85.6 -47.58, 178.02 -29.98 C270.44 -12.38, 425.98 111.25, 552.3 106.25 C678.62 101.25, 872.3 -31.73, 935.95 -59.99 M1.74 -1.47 C31.09 -6.53, 82.5 -44.83, 175.18 -26.41 C267.86 -8, 430.98 115.52, 557.82 109.04 C684.66 102.55, 872.83 -36.57, 936.21 -65.32" stroke="#9c36b5" stroke-width="4" fill="none"></path></g></g><mask></mask><g stroke-linecap="round"><g transform="translate(12.221762844636032 351.30718371690205) rotate(346.1017144132606 468.27833482349183 22.785355217921847)"><path d="M0 0 C29.86 -4.98, 86.69 -47.67, 179.14 -29.86 C271.59 -12.05, 428.47 112.09, 554.71 106.86 C680.94 101.62, 872.91 -33.26, 936.56 -61.28 M0 0 C29.86 -4.98, 86.69 -47.67, 179.14 -29.86 C271.59 -12.05, 428.47 112.09, 554.71 106.86 C680.94 101.62, 872.91 -33.26, 936.56 -61.28" stroke="#9c36b5" stroke-width="4" fill="none"></path></g></g><mask></mask><g stroke-linecap="round"><g transform="translate(10.944672574197284 349.05033694334566) rotate(346.1017144132606 468.27833482349183 22.785355217921847)"><path d="M0 0 C29.86 -4.98, 86.69 -47.67, 179.14 -29.86 C271.59 -12.05, 428.47 112.09, 554.71 106.86 C680.94 101.62, 872.91 -33.26, 936.56 -61.28 M0 0 C29.86 -4.98, 86.69 -47.67, 179.14 -29.86 C271.59 -12.05, 428.47 112.09, 554.71 106.86 C680.94 101.62, 872.91 -33.26, 936.56 -61.28" stroke="#9c36b5" stroke-width="4" fill="none"></path></g></g><mask></mask><g stroke-linecap="round"><g transform="translate(10.288227986630773 394.2405627179843) rotate(347.9422231372008 468.27833482349183 22.785355217921733)"><path d="M1.25 -0.63 C31.64 -6.13, 87.91 -50.55, 180.02 -32.36 C272.14 -14.16, 427.94 113.75, 553.95 108.52 C679.96 103.28, 872.42 -35.33, 936.09 -63.76 M-1.51 -3.44 C28.79 -8.74, 86.06 -47.97, 178.27 -30.08 C270.47 -12.2, 425.37 109.29, 551.73 103.89 C678.09 98.49, 873.01 -34.92, 936.43 -62.49" stroke="#9c36b5" stroke-width="4" fill="none"></path></g></g><mask></mask><g stroke-linecap="round"><g transform="translate(11.396945698160835 391.03536299585573) rotate(347.9422231372008 468.27833482349183 22.785355217921733)"><path d="M0 0 C29.86 -4.98, 86.69 -47.67, 179.14 -29.86 C271.59 -12.05, 428.47 112.09, 554.71 106.86 C680.94 101.62, 872.91 -33.26, 936.56 -61.28 M0 0 C29.86 -4.98, 86.69 -47.67, 179.14 -29.86 C271.59 -12.05, 428.47 112.09, 554.71 106.86 C680.94 101.62, 872.91 -33.26, 936.56 -61.28" stroke="#9c36b5" stroke-width="4" fill="none"></path></g></g><mask></mask><g stroke-linecap="round"><g transform="translate(10.192998354697465 388.73866368764766) rotate(347.9422231372008 468.27833482349183 22.78535521792179)"><path d="M0 0 C29.86 -4.98, 86.69 -47.67, 179.14 -29.86 C271.59 -12.05, 428.47 112.09, 554.71 106.86 C680.94 101.62, 872.91 -33.26, 936.56 -61.28 M0 0 C29.86 -4.98, 86.69 -47.67, 179.14 -29.86 C271.59 -12.05, 428.47 112.09, 554.71 106.86 C680.94 101.62, 872.91 -33.26, 936.56 -61.28" stroke="#9c36b5" stroke-width="4" fill="none"></path></g></g><mask></mask><g stroke-linecap="round"><g transform="translate(8.725307577162312 389.1156158306227) rotate(347.9422231372008 468.27833482349183 22.785355217921733)"><path d="M-0.46 -2.47 C29.43 -7.85, 86.21 -48.98, 178.6 -30.62 C270.99 -12.26, 427.4 113.19, 553.87 107.7 C680.34 102.21, 873.64 -35.34, 937.4 -63.56 M-4.16 2.36 C25.38 -2.76, 83.44 -44.11, 176.06 -27.4 C268.69 -10.69, 424.55 108.42, 551.61 102.62 C678.67 96.83, 874.9 -34.94, 938.45 -62.19" stroke="#9c36b5" stroke-width="4" fill="none"></path></g></g><mask></mask><g stroke-linecap="round"><g transform="translate(9.644562520792078 386.49507335746637) rotate(347.9422231372008 468.27833482349183 22.785355217921733)"><path d="M0 0 C29.86 -4.98, 86.69 -47.67, 179.14 -29.86 C271.59 -12.05, 428.47 112.09, 554.71 106.86 C680.94 101.62, 872.91 -33.26, 936.56 -61.28 M0 0 C29.86 -4.98, 86.69 -47.67, 179.14 -29.86 C271.59 -12.05, 428.47 112.09, 554.71 106.86 C680.94 101.62, 872.91 -33.26, 936.56 -61.28" stroke="#9c36b5" stroke-width="4" fill="none"></path></g></g><mask></mask><g stroke-linecap="round"><g transform="translate(8.440615177323252 384.1983740492583) rotate(347.9422231372008 468.27833482349183 22.785355217921847)"><path d="M0 0 C29.86 -4.98, 86.69 -47.67, 179.14 -29.86 C271.59 -12.05, 428.47 112.09, 554.71 106.86 C680.94 101.62, 872.91 -33.26, 936.56 -61.28 M0 0 C29.86 -4.98, 86.69 -47.67, 179.14 -29.86 C271.59 -12.05, 428.47 112.09, 554.71 106.86 C680.94 101.62, 872.91 -33.26, 936.56 -61.28" stroke="#9c36b5" stroke-width="4" fill="none"></path></g></g><mask></mask><g stroke-linecap="round"><g transform="translate(16.833301132659926 403.6560751789949) rotate(347.9422231372008 468.27833482349183 22.785355217921733)"><path d="M0.85 -2.28 C30.82 -7.45, 86.51 -48.69, 179.02 -30.2 C271.53 -11.71, 429.77 114.22, 555.9 108.68 C682.02 103.14, 872.35 -35.31, 935.78 -63.42 M-2.14 2.66 C27.53 -2.14, 83.9 -43.67, 176.72 -26.76 C269.53 -9.84, 428.2 110.01, 554.73 104.14 C681.27 98.27, 872.91 -34.89, 935.93 -61.97" stroke="#9c36b5" stroke-width="4" fill="none"></path></g></g><mask></mask><g stroke-linecap="round"><g transform="translate(18.227961869487444 400.4765782176248) rotate(347.9422231372008 468.27833482349183 22.78535521792179)"><path d="M0 0 C29.86 -4.98, 86.69 -47.67, 179.14 -29.86 C271.59 -12.05, 428.47 112.09, 554.71 106.86 C680.94 101.62, 872.91 -33.26, 936.56 -61.28 M0 0 C29.86 -4.98, 86.69 -47.67, 179.14 -29.86 C271.59 -12.05, 428.47 112.09, 554.71 106.86 C680.94 101.62, 872.91 -33.26, 936.56 -61.28" stroke="#9c36b5" stroke-width="4" fill="none"></path></g></g><mask></mask><g stroke-linecap="round"><g transform="translate(17.02401452602362 398.17987890941674) rotate(347.9422231372008 468.27833482349183 22.785355217921733)"><path d="M0 0 C29.86 -4.98, 86.69 -47.67, 179.14 -29.86 C271.59 -12.05, 428.47 112.09, 554.71 106.86 C680.94 101.62, 872.91 -33.26, 936.56 -61.28 M0 0 C29.86 -4.98, 86.69 -47.67, 179.14 -29.86 C271.59 -12.05, 428.47 112.09, 554.71 106.86 C680.94 101.62, 872.91 -33.26, 936.56 -61.28" stroke="#9c36b5" stroke-width="4" fill="none"></path></g></g><mask></mask><g stroke-linecap="round"><g transform="translate(15.254988495159978 398.64407793214104) rotate(347.9422231372008 468.27833482349183 22.78535521792179)"><path d="M-0.78 -2.13 C28.86 -7.19, 86.35 -47.14, 179.02 -28.53 C271.69 -9.92, 428.86 114.66, 555.24 109.51 C681.62 104.37, 873.91 -30.8, 937.29 -59.39 M3.99 2.88 C33.14 -3.18, 85.1 -49.91, 176.72 -32.82 C268.34 -15.73, 426.8 110.69, 553.73 105.43 C680.65 100.17, 873.87 -36.57, 938.28 -64.39" stroke="#9c36b5" stroke-width="4" fill="none"></path></g></g><mask></mask><g stroke-linecap="round"><g transform="translate(16.475578692113686 395.93628857923545) rotate(347.9422231372008 468.27833482349183 22.78535521792179)"><path d="M0 0 C29.86 -4.98, 86.69 -47.67, 179.14 -29.86 C271.59 -12.05, 428.47 112.09, 554.71 106.86 C680.94 101.62, 872.91 -33.26, 936.56 -61.28 M0 0 C29.86 -4.98, 86.69 -47.67, 179.14 -29.86 C271.59 -12.05, 428.47 112.09, 554.71 106.86 C680.94 101.62, 872.91 -33.26, 936.56 -61.28" stroke="#9c36b5" stroke-width="4" fill="none"></path></g></g><mask></mask><g stroke-linecap="round"><g transform="translate(15.271631348648043 393.63958927102817) rotate(347.9422231372008 468.27833482349183 22.78535521792179)"><path d="M0 0 C29.86 -4.98, 86.69 -47.67, 179.14 -29.86 C271.59 -12.05, 428.47 112.09, 554.71 106.86 C680.94 101.62, 872.91 -33.26, 936.56 -61.28 M0 0 C29.86 -4.98, 86.69 -47.67, 179.14 -29.86 C271.59 -12.05, 428.47 112.09, 554.71 106.86 C680.94 101.62, 872.91 -33.26, 936.56 -61.28" stroke="#9c36b5" stroke-width="4" fill="none"></path></g></g><mask></mask><g stroke-linecap="round"><g transform="translate(12.468588807007109 376.2327999096332) rotate(347.9422231372008 468.27833482349183 22.785355217921733)"><path d="M0.74 1.9 C30.34 -3.64, 86.15 -48.05, 178.15 -30.57 C270.14 -13.1, 426.09 112.09, 552.69 106.75 C679.3 101.41, 873.55 -34.92, 937.78 -62.6 M-2.31 0.46 C26.78 -3.46, 81.91 -45.56, 175.37 -27.33 C268.83 -9.11, 431.16 115.36, 558.43 109.8 C685.71 104.24, 876.2 -32.84, 939.02 -60.7" stroke="#9c36b5" stroke-width="4" fill="none"></path></g></g><mask></mask><g stroke-linecap="round"><g transform="translate(12.992815204345334 372.97874652943494) rotate(347.9422231372008 468.27833482349183 22.785355217921733)"><path d="M0 0 C29.86 -4.98, 86.69 -47.67, 179.14 -29.86 C271.59 -12.05, 428.47 112.09, 554.71 106.86 C680.94 101.62, 872.91 -33.26, 936.56 -61.28 M0 0 C29.86 -4.98, 86.69 -47.67, 179.14 -29.86 C271.59 -12.05, 428.47 112.09, 554.71 106.86 C680.94 101.62, 872.91 -33.26, 936.56 -61.28" stroke="#9c36b5" stroke-width="4" fill="none"></path></g></g><mask></mask><g stroke-linecap="round"><g transform="translate(11.788867860876053 370.6820472212265) rotate(347.9422231372008 468.27833482349183 22.785355217921733)"><path d="M0 0 C29.86 -4.98, 86.69 -47.67, 179.14 -29.86 C271.59 -12.05, 428.47 112.09, 554.71 106.86 C680.94 101.62, 872.91 -33.26, 936.56 -61.28 M0 0 C29.86 -4.98, 86.69 -47.67, 179.14 -29.86 C271.59 -12.05, 428.47 112.09, 554.71 106.86 C680.94 101.62, 872.91 -33.26, 936.56 -61.28" stroke="#9c36b5" stroke-width="4" fill="none"></path></g></g><mask></mask><g stroke-linecap="round"><g transform="translate(10.666840690963909 371.55233076192485) rotate(347.9422231372008 468.27833482349183 22.785355217921847)"><path d="M1.22 -1.31 C31.66 -5.95, 88.38 -46.12, 180.63 -27.92 C272.87 -9.71, 428.65 113.55, 554.69 107.94 C680.73 102.34, 873.29 -33.12, 936.86 -61.53 M-1.56 4.15 C28.82 -1.26, 86.79 -48.35, 179.2 -31.87 C271.6 -15.4, 426.48 107.54, 552.88 103.01 C679.28 98.48, 874.35 -31.52, 937.6 -59.06" stroke="#9c36b5" stroke-width="4" fill="none"></path></g></g><mask></mask><g stroke-linecap="round"><g transform="translate(11.240432026976578 368.4384568910466) rotate(347.9422231372008 468.27833482349183 22.785355217921847)"><path d="M0 0 C29.86 -4.98, 86.69 -47.67, 179.14 -29.86 C271.59 -12.05, 428.47 112.09, 554.71 106.86 C680.94 101.62, 872.91 -33.26, 936.56 -61.28 M0 0 C29.86 -4.98, 86.69 -47.67, 179.14 -29.86 C271.59 -12.05, 428.47 112.09, 554.71 106.86 C680.94 101.62, 872.91 -33.26, 936.56 -61.28" stroke="#9c36b5" stroke-width="4" fill="none"></path></g></g><mask></mask><g stroke-linecap="round"><g transform="translate(10.03648468351048 366.1417575828384) rotate(347.9422231372008 468.27833482349183 22.785355217921847)"><path d="M0 0 C29.86 -4.98, 86.69 -47.67, 179.14 -29.86 C271.59 -12.05, 428.47 112.09, 554.71 106.86 C680.94 101.62, 872.91 -33.26, 936.56 -61.28 M0 0 C29.86 -4.98, 86.69 -47.67, 179.14 -29.86 C271.59 -12.05, 428.47 112.09, 554.71 106.86 C680.94 101.62, 872.91 -33.26, 936.56 -61.28" stroke="#9c36b5" stroke-width="4" fill="none"></path></g></g><mask></mask><g stroke-linecap="round"><g transform="translate(19.170379150673853 385.47860948033394) rotate(347.9422231372008 468.27833482349183 22.78535521792179)"><path d="M0.3 -0.24 C30.08 -5.6, 86.43 -49.07, 178.68 -31.06 C270.93 -13.06, 427.26 112.59, 553.83 107.78 C680.39 102.98, 874.52 -31.41, 938.08 -59.9 M-2.98 -2.85 C26.39 -7.93, 83.77 -45.69, 176.19 -28.09 C268.61 -10.49, 424.33 108.94, 551.54 102.76 C678.76 96.58, 874.81 -37.51, 939.49 -65.18" stroke="#9c36b5" stroke-width="4" fill="none"></path></g></g><mask></mask><g stroke-linecap="round"><g transform="translate(19.823831375671034 382.41996175120505) rotate(347.9422231372008 468.27833482349183 22.785355217921733)"><path d="M0 0 C29.86 -4.98, 86.69 -47.67, 179.14 -29.86 C271.59 -12.05, 428.47 112.09, 554.71 106.86 C680.94 101.62, 872.91 -33.26, 936.56 -61.28 M0 0 C29.86 -4.98, 86.69 -47.67, 179.14 -29.86 C271.59 -12.05, 428.47 112.09, 554.71 106.86 C680.94 101.62, 872.91 -33.26, 936.56 -61.28" stroke="#9c36b5" stroke-width="4" fill="none"></path></g></g><mask></mask><g stroke-linecap="round"><g transform="translate(18.619884032204027 380.12326244299595) rotate(347.9422231372008 468.27833482349183 22.785355217921733)"><path d="M0 0 C29.86 -4.98, 86.69 -47.67, 179.14 -29.86 C271.59 -12.05, 428.47 112.09, 554.71 106.86 C680.94 101.62, 872.91 -33.26, 936.56 -61.28 M0 0 C29.86 -4.98, 86.69 -47.67, 179.14 -29.86 C271.59 -12.05, 428.47 112.09, 554.71 106.86 C680.94 101.62, 872.91 -33.26, 936.56 -61.28" stroke="#9c36b5" stroke-width="4" fill="none"></path></g></g><mask></mask><g stroke-linecap="round"><g transform="translate(16.963527864519165 380.5324648265233) rotate(347.9422231372008 468.27833482349183 22.785355217921733)"><path d="M1.52 1.39 C31.3 -4.05, 85.23 -49.19, 177.79 -31.72 C270.36 -14.25, 430.71 111.13, 556.91 106.19 C683.11 101.25, 871.56 -33.5, 934.98 -61.35 M-1.09 -0.33 C28.27 -5.54, 81.93 -47.31, 174.82 -29.1 C267.72 -10.89, 429.65 113.88, 556.3 108.94 C682.95 103.99, 871.69 -30.65, 934.71 -58.77" stroke="#9c36b5" stroke-width="4" fill="none"></path></g></g><mask></mask><g stroke-linecap="round"><g transform="translate(18.071448198300914 377.87967211281443) rotate(347.9422231372008 468.27833482349183 22.785355217921847)"><path d="M0 0 C29.86 -4.98, 86.69 -47.67, 179.14 -29.86 C271.59 -12.05, 428.47 112.09, 554.71 106.86 C680.94 101.62, 872.91 -33.26, 936.56 -61.28 M0 0 C29.86 -4.98, 86.69 -47.67, 179.14 -29.86 C271.59 -12.05, 428.47 112.09, 554.71 106.86 C680.94 101.62, 872.91 -33.26, 936.56 -61.28" stroke="#9c36b5" stroke-width="4" fill="none"></path></g></g><mask></mask><g stroke-linecap="round"><g transform="translate(16.867500854832087 375.58297280460715) rotate(347.9422231372008 468.27833482349183 22.785355217921847)"><path d="M0 0 C29.86 -4.98, 86.69 -47.67, 179.14 -29.86 C271.59 -12.05, 428.47 112.09, 554.71 106.86 C680.94 101.62, 872.91 -33.26, 936.56 -61.28 M0 0 C29.86 -4.98, 86.69 -47.67, 179.14 -29.86 C271.59 -12.05, 428.47 112.09, 554.71 106.86 C680.94 101.62, 872.91 -33.26, 936.56 -61.28" stroke="#9c36b5" stroke-width="4" fill="none"></path></g></g><mask></mask></svg>