<svg version="1.1" xmlns="http://www.w3.org/2000/svg" viewBox="0 0 869.2030541124586 382.7233250954306" width="869.2030541124586" height="382.7233250954306" filter="invert(93%) hue-rotate(180deg)">
  <!-- svg-source:excalidraw -->
  
  <defs>
    <style class="style-fonts">
      @font-face {
        font-family: "Virgil";
        src: url("https://excalidraw.com/Virgil.woff2");
      }
      @font-face {
        font-family: "Cascadia";
        src: url("https://excalidraw.com/Cascadia.woff2");
      }
      @font-face {
        font-family: "Assistant";
        src: url("https://excalidraw.com/Assistant-Regular.woff2");
      }
    </style>
    
  </defs>
  <g stroke-linecap="round" transform="translate(524.1226691842676 61.5042047326757) rotate(89.4354136562254 150.75611075355414 100.23224856353568)"><path d="M0 0 C0 0, 0 0, 0 0 M0 0 C0 0, 0 0, 0 0 M-1.78 7.85 C2.24 3.07, 2.51 1.05, 3.57 -0.97 M-0.8 6.51 C1.64 4.16, 2.33 3.28, 4.55 0.97 M1.27 10.67 C2.28 9.94, 9.42 5.08, 13.76 1.43 M-1.33 10.65 C4.01 7.84, 7.13 5.13, 9.5 1.34 M-0.72 18.2 C8.47 11.54, 8.01 8.63, 14.39 1.33 M-0.29 17.52 C5.38 13.32, 10.41 3.31, 14.14 1.11 M2.76 20.31 C5.79 18.21, 18.31 4.08, 17.51 3.76 M1.25 24.44 C9.34 16.42, 14.27 6.6, 20.06 0.82 M-3.62 28.82 C7.59 20.98, 17.39 6.57, 23.27 0.55 M-0.28 30.95 C11.04 19.62, 21.93 6.06, 27.52 -0.67 M2.92 38.96 C6.99 23.72, 15.17 13.44, 30.22 -0.6 M-1.86 35.04 C5.35 29.23, 14.88 20.04, 30.85 0.56 M-3.22 46.22 C10.87 30.36, 24.87 20.76, 38.01 1.12 M1.18 40.63 C7.32 33.68, 17.56 21, 36.36 -0.58 M-2.94 51.45 C14.67 30.65, 33.66 7.57, 39.76 0.5 M0.69 47.36 C10.33 35.65, 22.19 25.19, 41.06 1.35 M3.35 54.46 C17.01 36.95, 34.24 21.46, 47.9 3.17 M1.67 54.91 C10.96 42.06, 24.28 25.41, 46.8 -0.08 M-2.46 62.91 C13.71 47.76, 30.42 29.77, 54.57 2.52 M0.51 60.56 C15.62 46.44, 27.02 32.28, 54.99 0.32 M-0.41 69.98 C23.04 44.07, 36.01 23.22, 57.5 -3.48 M-1.02 67.52 C12.9 52.46, 24.68 38.59, 56.81 1.02 M0.68 75.41 C20.87 44.66, 46.46 16.72, 60.37 -3.37 M1.72 74.72 C14.37 59.26, 26.91 44.88, 63.81 1.24 M-3.68 78.69 C15.03 59.67, 34.27 36.26, 66.7 -3.34 M-0.3 80.62 C22.59 53.95, 45.74 24.24, 70.22 -1.42 M-1.87 84.68 C21.55 51.94, 51.15 30.52, 72.22 -2.35 M2.26 85.56 C15.45 66.66, 34.5 45.21, 75.52 0.54 M-0.33 92.44 C25.13 66.96, 43.4 38.58, 82.72 0.77 M1.29 91.26 C15.93 70.19, 35.24 52.68, 78.71 2.1 M-3.82 100.92 C21.64 73.84, 42.62 45.51, 82.48 0.14 M-0.73 99.21 C34.13 60.69, 68.3 19.05, 84.95 1.3 M1.75 102.01 C26.8 74.98, 54.72 42.28, 92.07 -0.26 M0.73 102.41 C21.5 81.18, 43.17 56.58, 91.78 0.76 M-1.58 109.75 C27.96 82.43, 50.58 53.12, 96.81 -1.71 M1.72 111.22 C18.75 83.72, 41.8 55.71, 95.79 -0.73 M-0.02 113.86 C23.51 83.58, 50.19 57.25, 104.58 -1.88 M-0.17 113.67 C31.33 75.91, 65.82 35.25, 98.81 1.36 M-2.23 120.72 C33.47 87.11, 61.01 57.71, 106.22 -1.98 M0.42 121.03 C31.53 83.14, 65.58 45.39, 106.58 0.85 M0.44 130.91 C23.31 92.87, 57.18 58.04, 109.39 2.16 M-1.41 128.08 C30.43 93.79, 60.3 57.77, 110.99 -1.6 M-0.89 136.35 C48.86 84.92, 89.39 29.52, 114.32 -2.32 M0.7 134.99 C24.63 105.41, 52.22 74.01, 116.04 1.84 M0.5 137.49 C39.56 93.19, 74.09 44.89, 118.95 -0.19 M-0.18 139.07 C41.25 91.66, 84.46 43.18, 123.37 -0.01 M-1.34 148.82 C48.94 94.16, 88.17 49.31, 128.06 -2.97 M-0.26 145.11 C47.58 93.58, 96.68 34.46, 127.69 -1.54 M-2.82 155.52 C30.51 112.38, 71.32 71.78, 132.98 -2.99 M-0.71 152.9 C41.43 105.98, 82.32 60.33, 132.8 1.73 M2.86 160.52 C53.9 95.8, 107.94 34.28, 134.14 -1.91 M-0.12 159.69 C39.06 115.47, 78.57 72.98, 136.12 1.64 M0.18 166.92 C56.8 96.93, 112.69 33.31, 142.77 -3.43 M1.7 164.06 C52.94 100.19, 108.27 37.7, 144 1.45 M-2.51 170.29 C36.28 128.81, 77.23 77.89, 150.99 -2.84 M1.13 170.89 C56.04 110.35, 112.22 49.23, 146.9 0.84 M-1.25 173.25 C66.56 109.64, 127.01 36.37, 150.92 2.51 M0.08 177.01 C45.6 121.56, 92.9 66.62, 155.49 0.25 M-1.99 179.81 C63.67 110.51, 126.06 41.56, 158.89 -1.7 M0.09 183.9 C30.76 143.11, 60.02 106.9, 158.71 1.29 M0.23 189.29 C41.68 132.95, 88.09 81.65, 165.51 -3.16 M1.37 190.33 C45.57 138.19, 91.8 82.88, 165.97 0.47 M-1.37 194.67 C45 138.49, 100.38 79.81, 167.39 1.33 M0.63 194.25 C55.92 133.32, 109.6 70.3, 169.53 -0.08 M2.01 202.67 C74.03 119.1, 139.36 43.48, 177.25 -3.28 M0.68 201.97 C65.7 128.71, 131.37 51.46, 175.73 0.74 M8.32 202.63 C75.25 116.54, 143.93 40.53, 182.84 -0.38 M6.62 201.04 C63.19 133.08, 120.69 64.56, 181.35 0.8 M12.68 200.61 C48.82 151.98, 94.61 106.71, 183.53 -2.97 M10.29 199.7 C81.46 123.66, 148.24 45.89, 184.91 1.13 M17.7 202.49 C86.15 125.77, 150.85 47.04, 193.68 2.32 M16.69 200.98 C56.16 154.42, 98.89 104.94, 192.04 0.44 M23.37 200.46 C68.38 148.3, 114.23 94.88, 196.67 0.82 M23.02 200.76 C82.34 130.05, 142.23 60.35, 194.99 -1.74 M27.39 200.29 C73.32 140.25, 124.28 86.74, 198.99 -0.77 M25.63 199.8 C80.74 132.8, 139.43 65.49, 200.12 -0.93 M32.93 201.72 C77.59 156.05, 117.61 103.19, 209.52 -3.41 M32.73 198.96 C67.64 157.67, 106.19 113.93, 207.4 -0.46 M36.35 200.52 C100.45 124.92, 161.96 54.67, 211.48 2.02 M36.55 201.68 C84.45 147.95, 130.46 95.83, 212.66 -0.97 M41.24 200.46 C92.95 135.95, 150.07 75.08, 217.55 -0.56 M41.87 199.72 C109.14 122.53, 175.4 44.25, 218.69 -0.52 M46.18 202.69 C88.01 156.23, 127.37 116.32, 222.82 3.16 M47.68 200.99 C112.65 124, 177.97 49, 221.63 0.03 M51.76 199.58 C105.25 143.16, 157.09 79.98, 228.34 -2.63 M52.89 200.22 C119.07 123.68, 184.83 48.13, 228.45 0.19 M57.93 198.16 C106.51 138.77, 160.43 78.84, 231.99 -1.97 M57.12 199.79 C95.98 154.68, 134.57 110.87, 233.86 0.7 M64.57 202.62 C111.53 148.93, 159.51 92.57, 238.76 -0.57 M62.99 200.65 C127.58 130.64, 188.07 59.88, 237.09 1.13 M68.95 198.58 C105.33 158.78, 141.29 111.2, 242.21 0.73 M70.78 199.82 C135.92 122.24, 203.96 43.98, 244.22 0.19 M75.71 202.52 C133.62 132.64, 187.08 71.07, 247.14 -2.06 M74.37 200.82 C109.83 157.49, 145.73 115.8, 249.98 0.81 M82.37 201.13 C145.98 117.22, 213.96 42.15, 251.37 2.99 M78.61 200.99 C127.22 139.11, 177.82 81.47, 252.97 -0.24 M82.9 200.68 C153.81 120.52, 222.95 39.49, 258.75 1.46 M85.81 201.89 C125.88 148.53, 172.3 99.04, 259.39 -0.29 M91.27 198.01 C162.43 121.15, 230.97 36.17, 267.91 2.6 M91 199.79 C160.84 121.24, 230.64 41.82, 264.21 1.18 M94.38 198.27 C145.2 142.55, 195.6 86.48, 272.67 3.32 M96.79 202.37 C159.35 126.41, 225.36 51.19, 270.72 -1.13 M100.87 198.55 C149.96 148.98, 194.41 98.73, 276.03 0.28 M102.39 200.3 C165.46 124.98, 229.64 50.34, 274.81 -1.16 M106.76 199.35 C174.82 115.6, 248.17 38.69, 277.95 -1.81 M105.83 199.72 C148.96 156.23, 189.18 111.17, 281.38 -0.94 M112.64 200.78 C173.1 133.29, 227.42 65.5, 289.38 2.83 M111.87 200.06 C173.92 130.64, 237.58 58.61, 285.46 0.29 M114.57 201.43 C154.4 157.43, 195.85 107.48, 288.39 -2.14 M115.31 201.37 C159.89 148.68, 206.33 96.62, 291.79 -0.79 M121.24 200.9 C160.96 152.83, 202.85 109.93, 297.39 0.98 M121.55 201.04 C174.19 142.46, 222.58 84.9, 295.94 -0.63 M125.98 198.61 C171.99 148.94, 220.7 95.03, 301.41 2.82 M126.69 201.08 C180.59 134.8, 235.02 71.26, 300.69 1.12 M130.16 202.79 C179.87 140.14, 231.78 82.22, 300.39 4.63 M131.8 201.81 C196.01 130.39, 255.18 61.25, 300.76 6.73 M140.82 203.81 C179.62 149.37, 228.06 97.43, 303.49 11.16 M138.95 199.39 C204.44 127.46, 267.63 54.8, 302.51 13.73 M142.54 202.11 C191.54 148.89, 235.93 90.22, 300.68 18.4 M142.95 198.92 C204.24 134.54, 265.23 67.01, 300.77 17.25 M146.85 200.84 C191.32 157.85, 229.65 112.39, 304 24.23 M150.16 202.39 C196.18 149.49, 243.27 94.93, 300.74 25.25 M151.14 202.26 C206.34 134.4, 269.4 65.32, 301.8 30.06 M153.55 201.85 C182.87 165, 213.2 129.94, 300.78 29.02 M162.62 199 C192.69 158.77, 226.45 116.71, 303 38.93 M158.77 200.14 C191.14 164.68, 222.05 131.77, 303.31 38.57 M167.72 198.69 C207.52 148.03, 255.31 93.53, 303.69 42.08 M164.71 202.32 C207.01 151.45, 248.71 103.37, 303.51 41.14 M167.14 197.76 C206.43 154.89, 251.06 105.65, 301.46 48.47 M169.25 201.74 C206.03 156.83, 246.6 111.08, 300.72 48.35 M174.06 199.99 C202.97 160.4, 239.86 129.23, 303.35 57.94 M174.01 203.02 C202.71 169.63, 234.23 131.64, 301.18 53.79 M178.6 203.87 C228.58 149.71, 278.06 94.66, 300.46 64.74 M179.92 199.48 C217.04 160.97, 248.28 123.96, 301.31 60.25 M184.71 201.49 C217.54 161.28, 256.41 130.5, 299.91 66.68 M184.26 202.95 C221.6 161.88, 259.12 118.92, 301.13 67.94 M188.66 196.74 C223.05 170.37, 247.85 141.31, 304.94 70.96 M191.85 198.95 C227.57 162.33, 261.6 123.91, 301.18 72.99 M196.51 197.87 C226.33 159.29, 267.97 123.87, 304.74 83.06 M197.09 200.36 C229.82 160.62, 262.21 122.92, 302.52 78.96 M200.56 202.36 C225.2 170.64, 252.43 138.82, 302.17 88.26 M202.7 198.95 C230.86 169.57, 259.23 136.46, 302.82 87.12 M205.16 197.81 C238.36 164.73, 269.67 121.92, 298.94 92.87 M205.9 203 C233.73 170.05, 257.56 142.33, 303.8 92.29 M211.15 202.78 C236.51 168.69, 267.19 130.17, 300.73 97.26 M213.08 200.8 C240.91 168.26, 269.68 137.02, 300.7 96.67 M217.68 203.69 C234.73 182.6, 248.37 160.73, 300.94 105.57 M217.98 202.29 C238.19 179.5, 254.19 155.35, 300.3 102.07 M222.61 203.7 C250.03 172.91, 271.38 142.13, 298.54 110.52 M224.41 202.51 C242.51 179.96, 262.54 154.61, 303.14 111.59 M224.39 199.57 C248.22 180.06, 262.16 165.32, 297.81 119.08 M228.42 199.3 C246.52 178.02, 264.07 160.05, 301.51 117.82 M230.43 198.53 C258.24 176.11, 282.48 144.61, 305.48 125.54 M232.98 200.72 C258.88 170.83, 282.87 144.47, 300.96 120.73 M234.95 203.2 C259.61 182.06, 280.75 153.24, 299.91 128.72 M238.18 202.75 C254.4 182.46, 271.25 164.04, 299.75 127.46 M243.4 204.37 C254.99 189.59, 270.98 169.66, 298.77 137.51 M243.91 200.74 C263.29 179.33, 280.32 159.14, 300.85 134.6 M250.29 198.01 C270.38 179.38, 284.05 165.24, 300.95 143.79 M248.06 199.04 C260.92 190.41, 273.48 177.13, 300.19 139.83 M255.63 202 C267.97 184.16, 283.37 169.31, 298.26 144.05 M253.18 198.53 C267.19 185.25, 281.5 170.87, 302.65 148.13 M258.7 201.13 C270.47 185.58, 288.31 167.48, 300.6 156.5 M260.69 202.2 C271.34 186.54, 283.04 173.6, 301.54 151.67 M266.54 203.88 C278.64 184.4, 291.99 175.57, 301.1 162.21 M265.59 198.7 C278.19 186.3, 290.45 171.49, 300.05 159.61 M271.75 203.37 C279.72 191.61, 282.59 185.72, 299.85 162.75 M270.57 199.92 C279.3 190.11, 287.87 182.23, 301.31 166.38 M276.88 202.17 C283.35 186.65, 297 175.76, 305.77 173.01 M276.79 200.53 C281.79 193.44, 286 189.82, 302.58 169.29 M280.32 197.23 C284.3 195.78, 295.73 185.84, 304.33 174.9 M282.01 199.57 C285.95 195.14, 291.23 188.61, 301.24 176.78 M284.02 197.46 C290.13 193.22, 295.76 186.45, 302.72 186.38 M286.64 200.71 C291.8 194.67, 296.48 188.06, 300.29 182.29 M290.95 197.86 C291.71 198.75, 297.67 193.82, 299.67 190.39 M291.37 201.79 C293.82 198.93, 296.06 195.81, 300.31 188.4 M296.79 200.58 C297.39 198.45, 298.71 198.68, 301.97 196.22 M296.44 200.79 C299.1 198.28, 300.06 196.06, 301.71 195.21" stroke="#1e1e1e" stroke-width="0.5" fill="none"></path><path d="M1.72 0.41 C114.04 -1.66, 233.06 -3.8, 303.96 1.35 M1.21 -0.97 C85.62 -5.01, 173.09 -4.34, 300.27 1.18 M302.11 3.08 C302.74 50.21, 297.36 100.92, 304.89 197.13 M303.27 -0.38 C300.89 78.58, 300.42 154.6, 299.78 201.55 M300.79 200.38 C230.65 206.3, 159.76 204.11, -2.61 199.4 M302.51 200.33 C194.95 196.67, 87.31 196.86, -0.57 200.73 M-2.39 199.13 C-5.76 153.76, -2.9 106.57, -0.22 3.05 M-1.49 198.9 C2.3 129.01, 1.54 53.28, -1.56 -1.78" stroke="#1e1e1e" stroke-width="1" fill="none"></path></g><g stroke-linecap="round" transform="translate(375.4506734302613 105.57363806936439) rotate(89.4354136562254 150.75611075355414 100.23224856353568)"><path d="M0 0 C0 0, 0 0, 0 0 M0 0 C0 0, 0 0, 0 0 M0.39 5.24 C0.15 3.85, 1.06 1.95, 3.88 -1.01 M0.32 5.65 C1.95 3.77, 3.52 2.24, 5.74 -0.09 M-1.99 14.76 C4.38 10.78, 10.08 5.66, 10.66 -1 M0.78 11.58 C4.66 8.43, 6.63 5.08, 11.7 0.32 M2.78 18.15 C1.17 16.65, 7.84 8.95, 19.04 -0.59 M-0.78 20.33 C3.07 11.86, 8.14 8.19, 16.31 -1.05 M-1.56 26.23 C9.66 13.64, 8.28 14.43, 23.75 -3.44 M1.33 25.34 C5.53 15.99, 13.08 8.5, 22.78 -0.17 M-2.3 32.42 C6.54 19.96, 14.3 11.71, 29.41 -0.12 M1.03 31.2 C10.63 19.1, 18.52 9.67, 25.69 -1.43 M-2.39 33.15 C2.95 25.13, 10.46 21.11, 29.19 3.88 M-1.38 37.42 C8.87 28.67, 14.5 20.64, 31.46 -1.23 M0.16 41.71 C13.61 32.89, 19.91 22.09, 34.74 0.82 M-1.62 44.06 C9.97 30.02, 20.88 17.42, 38.82 -0.28 M-2.52 49.4 C9.35 34.76, 16.07 28, 40.54 1.54 M0.06 47.67 C12.35 36.93, 21.02 24.61, 43.49 -2.09 M-0.51 55.08 C9.62 46.83, 20.2 34.1, 45.77 0.39 M-1.11 55.48 C10.86 39.34, 21.87 27.56, 46.36 -1.34 M-0.13 62.14 C18.12 42.72, 29.54 31.65, 50.7 -3.96 M1.78 61.02 C16.04 43.42, 33.27 25.17, 54.19 1.61 M3.68 68.03 C15.18 48.16, 37.24 19.12, 54.55 -3.58 M-0.65 66.43 C16.09 47.35, 32.39 29.6, 59.81 0.34 M-3.42 73.46 C20.33 46.64, 42.06 16.7, 59.88 -0.44 M1.4 74.26 C19.9 50.61, 39.02 27.34, 62.75 -0.12 M-2.01 79.49 C22.86 51.47, 41.88 27.08, 70.45 -1.54 M-1.63 81.3 C20.01 52.65, 45.28 26.59, 69.5 0.33 M-3.26 81.15 C26.95 60.21, 48.33 26.33, 71.59 1.98 M-0.61 86.85 C25.07 55.44, 50.38 27.13, 74.17 -1.62 M1.02 92.33 C15.87 67.67, 42.03 47.37, 76.12 -0.28 M-1.56 90.37 C24.44 63.96, 48.48 35.67, 78.64 -1.11 M-1.91 99.42 C23.43 66.78, 48.85 39.52, 88.66 -1.13 M0.4 99.68 C30.61 61.94, 57.9 31.78, 85.31 0.43 M-0.63 106.38 C20.24 81.5, 45.25 53.31, 87.56 -2.9 M-1.47 104.84 C20.2 80.52, 45.35 54.44, 89.24 -1.1 M1.69 111.92 C32.69 73.96, 66.93 33.66, 93.24 3.46 M-2.09 109.99 C24.29 74.54, 54.5 43.16, 94.87 1.01 M-1.08 115.12 C37.29 76.39, 79.62 27.87, 102.07 3.2 M-0.51 115.57 C35.6 75.49, 68.47 38.71, 100.19 -0.07 M3.93 120.26 C32.01 92.45, 58.43 55.21, 106.77 2.69 M0.26 121.97 C36.17 82.47, 70.78 42.42, 105.41 0.76 M-3.78 126.5 C38.82 79.68, 72.76 42.35, 110.26 2.3 M1.31 127.81 C29.72 95.44, 56.21 63.39, 113.2 0.18 M3.17 136.95 C29.37 97.44, 60.7 58.77, 113.37 1.96 M-0.72 133.72 C24.25 103.3, 48.23 77.81, 116.66 0.71 M1.1 139.88 C42.44 85.01, 88.83 35.71, 124.04 2.36 M-0.17 140.23 C31.66 106.52, 64.66 69.21, 122.83 -1.47 M3.08 142.23 C26.45 115.2, 56.02 79.48, 130.43 2.04 M-0.32 147.98 C27.72 115.11, 56.46 82.43, 126.15 1.3 M-2.93 154.36 C56.18 93.13, 104.41 30.3, 132.65 -0.87 M0.69 151.49 C38.73 109.73, 73.73 70.3, 134.29 0.43 M-0.03 160.51 C48.38 101.45, 96.96 36.84, 136.78 -0.22 M0.25 158.88 C38.19 116.73, 72.2 73.72, 139.11 0.83 M1.99 163.06 C57.19 98.44, 109.71 32.81, 146.21 3.19 M0.28 162.99 C35.58 121.16, 74.16 79.4, 142.52 0.2 M-2.14 174.04 C49.23 113.9, 99.3 59.38, 150.45 -2.83 M-0.98 170.99 C32.05 134, 63.18 94.65, 149.81 -1.03 M3.53 178.29 C43.19 132.98, 76 92.75, 153.89 -0.6 M-1.24 177.36 C60.3 105.66, 122.93 37.32, 155.43 -1.17 M-1.14 180.29 C32.02 149.52, 65.68 110.07, 155.56 3.55 M1.61 181.98 C57.48 113.41, 117.61 46.81, 158.3 1.51 M-0.48 186.84 C66.7 111.14, 131.88 35, 163.72 0.51 M0.4 190.82 C46.87 130.01, 96.39 75.28, 164.37 0.91 M-3.02 195.2 C49.04 142.29, 90.11 92.16, 170.06 -0.36 M1.27 196.29 C55.3 132.95, 110.08 68.38, 170.93 -1.13 M2.72 197.65 C47.45 142.22, 100.34 81.68, 177.48 1.63 M1.85 201.62 C37.25 156.47, 72.27 117.03, 176.64 -0.08 M5.72 198.4 C64.41 129.17, 130.66 54.94, 181.12 1.01 M5.79 201.36 C63.26 130.17, 125.46 62.4, 179.07 1.05 M9.11 199.79 C64.93 141.19, 113.51 75.79, 188.61 -1.79 M11.47 200.12 C49.72 158.68, 88.37 115.69, 187.11 -0.19 M18.28 201.34 C49.5 157.98, 89.62 118.87, 188.91 1.49 M14.95 201 C51.34 157.49, 91 115.33, 190.17 -0.07 M21.26 202.02 C71.09 142.25, 125.11 81.38, 198 1.09 M22.1 198.97 C58.03 153.6, 98.18 106.4, 196.14 0.14 M23.84 199.04 C82.36 136.65, 140.72 66.08, 202.32 2.77 M25.54 200.71 C89.35 132.04, 149.28 62.09, 200.38 -0.09 M35.23 203.07 C77.09 146.44, 123.13 94.31, 204.42 1.97 M31.57 199.3 C67.9 160.07, 105.72 118.48, 207.93 0.98 M39.92 199.16 C102.33 129.39, 163.85 58.33, 210.73 -1.61 M37.1 200.47 C91.52 139.23, 144.53 77.96, 212.03 0.36 M40.22 199.82 C114.25 121.58, 181.67 42.79, 220.29 1.74 M43.92 200.38 C100.4 137.38, 156.77 74.73, 216.28 -1.79 M47.14 199.65 C101.36 143.16, 152.03 85.11, 225.14 2.15 M48.28 199.22 C92.16 149.42, 136.46 98.54, 222.64 0.37 M52.67 203.89 C101.76 146.75, 152.85 87.08, 230.64 1.09 M54.51 201.94 C121.75 126.68, 187.97 48.75, 228.31 0.87 M55.61 198.23 C96.98 155.88, 138.37 108.87, 230.68 0.79 M58.4 199.57 C118.74 136.03, 176.48 72.01, 232.72 0.33 M65.17 203.86 C122.8 134.06, 178.49 66.42, 239.86 -1.98 M63.71 199.63 C105.01 153.34, 145.87 108.47, 236.91 1.87 M70.17 201.82 C114.85 146.49, 161.18 96.23, 246.72 1.31 M68.99 199.91 C112.55 147.99, 160.26 94.97, 244.27 0.39 M77.28 198.18 C122.85 142.82, 172.65 80.75, 245.81 0.68 M74.51 200.54 C139.63 125.54, 205.4 52.41, 250.26 1.88 M80.87 198.15 C146 123.18, 210.05 47.34, 254.18 2.58 M79.13 199.15 C144.49 127.08, 206.78 55.45, 256 -1.18 M82.33 201.74 C146.54 129.05, 210.81 59.27, 258.1 3.42 M84.14 199.71 C133.43 143.42, 182.13 85.08, 261.01 -0.42 M91.46 203.16 C154.71 125.77, 222.62 56.21, 268.16 -1.53 M90.13 201.45 C145.34 139.36, 199.93 75.68, 264.89 -0.06 M95.26 199.12 C142.95 149.93, 191.61 100.34, 272.24 -0.39 M94.45 201.36 C152.57 130.01, 211.41 61.91, 269.46 -0.22 M103.56 200.9 C153.03 147.07, 202.1 87.53, 277.98 -0.01 M100.79 202.02 C165.98 124.05, 234.28 43.28, 277.3 -0.09 M105.16 198.37 C176.47 124.58, 239.44 43.26, 278.43 -1.85 M107.14 201.54 C158.03 147.24, 206.98 87.69, 281.3 -0.14 M113.49 203.66 C177.1 124.07, 252.02 44.71, 288.18 0.53 M112.18 201.33 C158.39 150.21, 201 98.29, 285.26 0.94 M116.4 202.56 C164.91 146.67, 206.18 94.6, 290.05 1.39 M115.91 202.36 C183.29 128.97, 246.49 54.09, 290.28 0.9 M121.8 198.17 C168 151.44, 211.47 100.95, 296.47 -2.04 M122.86 200.34 C181.99 131.71, 240.02 64.97, 296.44 0.21 M126.47 200.26 C169.88 156.15, 207.57 114.49, 302.53 1.95 M126.96 200.91 C194.68 123.56, 262.06 47.04, 301.84 -0.22 M129.99 199.35 C202.75 118.81, 268.94 42.17, 303.59 4.57 M133.67 198.97 C179.82 145.54, 224.4 95.3, 301.46 7.79 M135.38 200.37 C167.88 161.4, 203.36 120.97, 305.13 10.53 M138.5 200.32 C177.58 155.95, 220.65 108.45, 302.13 12.26 M144.02 203.12 C185.72 147.48, 231.43 98.03, 304.33 16.22 M142.84 200.9 C182.75 161.74, 217.53 117.11, 301.13 17.08 M149.35 203.85 C200.82 145.17, 254.31 83.28, 301.76 23.84 M148.53 202.01 C185.63 153.66, 223.69 108.6, 303.14 26.59 M151.26 201.43 C206.22 143.47, 250.97 90.35, 298.82 33.1 M154.27 198.93 C191.47 155.48, 226.93 113.47, 301.07 30.53 M157.33 199.38 C196.53 149.25, 244.61 104.3, 298.57 35.3 M159.87 200.35 C212.18 144.84, 262.52 87.54, 302.33 37.88 M162.73 199.77 C195.28 161.41, 230.44 124.96, 302.7 45.15 M165.35 200.41 C197.27 161.33, 233.98 118.86, 302.3 44.19 M167.81 200.85 C206.66 162.72, 237.83 126.13, 301.62 50.4 M168.34 201.25 C210.33 153.86, 247.97 109.01, 300.86 49.03 M171.93 197.79 C225.13 149.32, 270.68 97, 299.25 58.12 M174.07 202.87 C204.75 165.05, 232.64 131.84, 303.48 53.87 M178.44 203.47 C211.04 167.55, 239.76 134.27, 301.04 59.26 M182.21 199.92 C219.11 159.02, 257.39 113.4, 301.53 59.27 M182.88 198.29 C224.89 164.36, 253.84 120.12, 301.98 65.39 M184.6 202.31 C220.58 161.01, 251.34 125.12, 300.51 65.83 M194.37 198.7 C216.54 176.76, 240.23 149.49, 302.56 69.94 M191.03 200.37 C214.82 174.77, 239.59 144.89, 302.74 74.68 M193.24 198.14 C224.57 176.04, 248.61 149.11, 302.59 81.16 M197.18 200.46 C232.44 159, 270.92 114.84, 301.38 81.07 M199.38 203.91 C237.5 159.58, 278.63 115.37, 300.92 83.81 M201.38 202.56 C232.97 166.38, 266.97 128.97, 302.52 86.64 M206.16 202.04 C230.91 169.36, 255.71 145.19, 300.64 92.23 M208.74 199.82 C239.9 162.99, 272.97 127.09, 302.59 93.28 M208.78 202.16 C235.34 168.22, 261.51 142.22, 302.18 95.52 M211.88 200.08 C238.42 170.56, 263.18 138.99, 299.86 98.91 M218.14 202.4 C237.98 172.15, 263.78 147.06, 299.04 103.11 M219.06 201.53 C242.63 167.01, 269.04 136.39, 302.46 103.81 M225.23 202.21 C248.41 168.38, 273.17 138.76, 299.71 109.68 M222.96 202.15 C245.49 171.08, 269.35 147.61, 300.59 110.18 M230.98 199.31 C247.5 183.92, 262.67 161.81, 299.33 116.74 M228.77 199.39 C254.21 173.27, 279.83 143.68, 302.51 116.43 M234.67 202.5 C253.41 179.52, 272.09 166.15, 304.89 125.8 M234.94 199.65 C252.55 181.21, 270.17 156.74, 302.05 121.03 M239.78 204.56 C264.85 172.08, 281.56 150.69, 300.34 127.48 M237.33 201.88 C257.75 178.67, 276.9 153.05, 300.06 128.3 M242.38 203.13 C259.36 181.33, 267.68 172.54, 302.38 135.11 M245.94 199.12 C260.21 182.35, 272.63 167.3, 302.44 132.71 M252.97 197.6 C261.39 189.94, 271.36 178.26, 298.25 137.65 M249.06 202.1 C262.4 189.82, 270.45 175.93, 302.32 140.48 M252.92 201.94 C269.55 185.15, 284.36 159.49, 301.51 149.27 M253.96 200.76 C267.19 189.68, 280.65 175.49, 302.12 145.86 M256.29 201.61 C274.82 183.03, 287.02 172.42, 301.18 150.5 M259.11 199.84 C270.3 186.53, 282.35 172.79, 302.99 152.95 M266.2 198.41 C275.09 193.88, 281.48 183.95, 302.89 161.36 M266.82 200.42 C280.41 184.75, 290.33 171.46, 300.28 159.54 M272.77 199.41 C275.51 193.04, 282.6 181.95, 300.61 166.96 M271.48 199.52 C280.9 190.98, 287.97 182.04, 303.61 163.36 M273.42 197.73 C285.49 188.35, 296.23 183.66, 298.49 170.41 M276.2 199.6 C281.52 194.49, 290.41 183.09, 300.99 169.71 M278.79 201.53 C290.04 192.3, 293.94 187.34, 298.63 174.42 M281.02 200.22 C286.66 193.32, 290.96 188.65, 302.92 177.74 M284.44 199.54 C287.68 196.02, 293.54 197.47, 302.21 182.4 M286.94 200.24 C291.68 193.55, 294.35 189.12, 301.81 184.24 M288.98 201.84 C294.14 198.12, 293.85 197.35, 299.42 188.11 M291.53 201.46 C294.68 197.25, 296.58 192.66, 301.54 189.5 M295.89 200.21 C297.44 200.22, 300.17 198.33, 303.4 196.63 M297.22 200.51 C297.6 199.11, 299.18 198.23, 302.54 194.5 M0.36 200.78 C0.36 200.78, 0.36 200.78, 0.36 200.78 M0.36 200.78 C0.36 200.78, 0.36 200.78, 0.36 200.78 M6.68 199.14 C4.98 199.03, 2.26 197.2, -0.68 195.27 M5.98 201 C3.49 198.09, 2.33 197.08, -0.82 195.42 M10.67 199.29 C6.37 196.91, 2.75 191.8, 1.93 190.31 M12.83 201.82 C6.74 196.92, 1.9 193.19, -1.16 189.48 M16.12 201.66 C12.19 199.59, 11.91 195.11, 3.74 184.03 M17.53 201.07 C12.67 194.21, 8.71 192.48, 1.29 185.09 M24.81 201.19 C17.51 195.8, 13.58 190.99, -2.1 179.16 M23.82 201.35 C19.99 193.86, 12.21 188.86, 0.91 178.5 M31.4 200.69 C26.87 194.8, 18.13 189.8, 0.82 173.22 M31.78 202.35 C20.93 191.75, 12.46 183.69, -1.02 174.01 M35.68 203.75 C22.1 185.54, 8.91 180.69, 2.14 166.9 M37.01 201.71 C24.78 189.08, 11.14 176.62, 1.86 167.9 M39.33 203.56 C30.24 186.77, 17.34 174.84, -2.02 165.98 M44.63 198.7 C27.44 185.2, 11.02 170.66, 0.21 162.41 M47.49 201.34 C29.94 189.98, 18.43 175.57, -0.2 157.69 M49.52 201.09 C30 183.21, 13.42 170.41, -1.46 156.49 M53.67 198.8 C40.99 185.02, 25.77 174.12, 3.31 152.58 M53.94 199.85 C41.67 190.24, 25.34 176.35, -1.22 151.93 M57.35 200.62 C47.98 187.51, 26.79 172.73, -2.68 144.94 M59.8 199.93 C41.31 184.43, 17.61 165.68, 1.85 148.09 M69.11 203.58 C44.96 178.15, 19.48 158.56, -3.39 138.6 M66.48 199.74 C50.85 188.26, 31.55 172.2, -0.83 140.05 M71.78 197.62 C51.97 187.44, 39.18 167.67, 2.82 139.39 M74.67 200.52 C53.09 183.28, 35.68 166.22, -1.69 137.34 M82.02 196.39 C47.75 172.57, 19.73 151.28, -2.67 132.94 M80.64 199.17 C53.07 175.96, 28.6 153.22, -1.52 130.09 M83.24 201.62 C62.83 178.9, 35.06 156.98, -1.89 125.09 M83.87 200.97 C62.39 181.01, 42.29 162.51, 0.13 127.75 M95.21 201.67 C57.94 175.69, 24.25 147.51, -3.37 119.79 M93.27 200.4 C55.19 167.46, 17.96 138.74, 0.48 121.23 M95.15 196.59 C64.8 173.92, 34.05 143.54, -1.3 119.4 M99.06 198.57 C61.62 170.5, 26.17 136.85, -0.85 117.66 M102.93 203.24 C78.62 176.02, 48.83 150.43, 1.35 110.67 M102.57 202.6 C64.72 165.03, 25.87 130.2, 1.62 110.49 M110.6 201.79 C92.13 180.65, 66.44 162.12, 1.76 105 M108.54 200.47 C84.72 176.59, 63.37 157.72, 0.89 106.25 M115.36 200.16 C71.55 164.19, 27 123.92, -1.97 100.41 M114.69 199.72 C91.24 180.25, 68.18 158.74, 0.97 98.72 M121.12 204.46 C83.98 172.02, 48.18 140.06, -1.83 97.86 M124.03 202.3 C82.81 162.33, 39.29 125.85, -1.49 95.57 M127.63 200.17 C73.85 163.61, 27.64 114.1, -3.12 87.15 M126.66 199.94 C79.6 159.28, 30.17 116.32, -1.72 88.62 M131.66 201.17 C85.6 163.27, 44.72 117.77, 0.49 87.29 M135.63 199.59 C103.55 173.11, 69.1 149.13, -1.17 84.48 M140.55 200.32 C97.65 164.29, 60.5 130.16, -3.44 77.01 M141.19 200.24 C87.95 152.72, 32.6 107.4, 0.71 79.4 M145.15 197.79 C119.87 172.78, 84.78 152.55, -1.02 71.89 M146.38 201.65 C100.76 159.02, 53.54 119.63, 0.33 74.7 M149.73 199.75 C99.87 146.25, 39.96 100.93, 1.07 69.31 M153.3 201.09 C99.49 158.05, 46.73 112.39, 1.63 69.94 M155.77 202.55 C116.51 166.22, 77.52 126.38, -2.16 63.48 M159.11 199.16 C96.24 144.34, 36.97 91.4, -0.77 61 M168.28 200.48 C127.19 173.79, 98.39 145.02, -2.83 57.22 M165.58 201.8 C120.17 160.1, 70.94 116.84, 0.03 57.71 M168.36 200.15 C129.32 166.45, 89.79 134.94, 1.59 51.68 M171.51 201.76 C112.82 149.51, 54.85 98.72, -0.83 52.14 M177.33 200.45 C135.02 159.85, 85.39 123.93, 0.18 44.12 M178.33 199.22 C113.98 147.72, 53.19 93.27, 1.46 48.03 M181.28 201.35 C110.37 140.91, 42 77.49, -0.67 39.03 M182.9 199.74 C140.29 160.52, 96.29 119.68, 1.22 42.77 M190.46 201.61 C146.95 155.81, 98.49 120.7, 0.21 38.85 M189.32 200.47 C126.03 143.25, 62.25 87.02, -0.05 35.72 M193.8 200.13 C140.03 153.63, 83.38 100.97, 2.05 28.71 M195.87 201.96 C138.14 153.52, 80.43 101.33, -0.35 30.61 M201.96 200.36 C120.94 134.43, 43.35 64.84, 0.95 26.45 M199.48 201.44 C125.8 135.8, 49.77 72.13, 0.28 27.16 M207.08 201.79 C142.55 148.39, 86.6 92.98, -1.06 21.41 M205.96 200.77 C158.75 160.59, 107.34 116.2, 0.04 20.54 M211.93 198.31 C127.11 127.97, 42.67 57.19, 2.36 17.78 M214.72 199.78 C158.04 157.21, 105.13 110.42, -0.54 15.57 M218.27 197.85 C172.88 157.41, 122.2 112.64, -0.14 6.7 M219.6 200.79 C140.07 130.48, 58.7 60.84, 1.02 9.93 M225.44 201.83 C172.43 156.47, 118.43 108.9, -1.72 7.05 M225.95 199.61 C171.35 152.19, 114.38 104.65, 1.28 5.27 M230.44 200.74 C166.28 148.7, 99.4 89.82, 0.85 -2.6 M231.28 201.59 C164.89 140.61, 97.76 79.35, 0.44 0.67 M235.9 199.24 C149.53 123.5, 65.22 49.31, 4.1 0.36 M237.04 201.21 C145.07 120.85, 53.28 42.3, 6.34 0.13 M244 198.99 C156.46 124.81, 73.13 48.69, 15.26 -2.64 M244.42 200.55 C150.89 119.73, 62.04 41.79, 11.67 -0.59 M249.18 202.92 C163.63 126.4, 73.02 49.6, 20.36 -1.26 M250.54 200.65 C178.3 136.77, 103.82 73.38, 19.21 -1.77 M257 199.33 C173.52 126.61, 87.15 52.23, 27.03 1.44 M257.62 200.15 C167.28 124.71, 76.51 46.22, 24.35 0.14 M263.59 199.94 C201.25 149.26, 145.32 104.28, 29.34 -0.58 M261.59 200.45 C208.62 151.69, 153.69 105.26, 30.95 0.01 M266.61 198.32 C212.31 154.43, 157.19 106.29, 39.18 -1.42 M267.92 201.85 C194.25 137.39, 123.91 75.21, 37.09 0.73 M273.67 202.17 C199.95 129.64, 121.69 64.92, 41.51 0.88 M274.49 200.01 C192.76 129.65, 106.12 56.6, 44.18 0.29 M280.58 200.04 C209.87 142.68, 136.3 77.79, 50.76 -3.12 M280.73 199.1 C192.66 121.44, 104.58 46.1, 50.33 0.59 M287.33 200.2 C200.62 121.17, 107.12 41.18, 52.65 1.09 M286.7 200.29 C217.18 140.78, 149.02 79.92, 54.77 -0.45 M291.96 202.29 C237.82 155.37, 191.59 106.54, 58.57 1.6 M291.82 199.71 C217.07 137.2, 144.47 73.45, 60.74 0.27 M298.66 199.08 C218.31 129.91, 139.63 60.96, 70.62 1.1 M297.69 200.47 C239.94 149.72, 180.56 99.16, 68.46 0.26 M302.16 196.85 C216.71 123.83, 131.68 47.55, 74.31 -1.98 M300.18 198.63 C249.43 152.1, 200.23 107, 74.13 0.26 M301.81 193.47 C232.67 134.23, 165.82 72.16, 80.57 -0.55 M301.2 191.79 C213.86 115.67, 126.91 39.34, 79.1 -0.06 M300.57 183.83 C243.45 139.32, 189.07 92.35, 87.85 1.47 M300.85 188.11 C236.27 132.58, 175.66 79.25, 84.38 0.26 M301.42 180.28 C219.39 114.23, 142.75 46.2, 92.83 -0.93 M303.05 180.7 C235.64 119.91, 168.02 63.32, 92.02 -0.64 M303.4 173.35 C224.18 114.03, 151.61 49.06, 99.44 2.56 M301.57 177.68 C234.66 122.42, 170.66 66.7, 99.25 1.18 M303.51 169.63 C255.11 136.03, 213.45 94.32, 101.96 2.03 M301.01 171.84 C222.51 105.14, 144.86 38.03, 105 -1.49 M302.31 167.5 C259.54 126.45, 214.66 88.51, 108.26 2.58 M299.74 165.84 C230.5 104.78, 158.51 45.57, 111.94 1.11 M299.68 157.96 C244.36 110.01, 182.12 59.13, 114.73 0.25 M301.94 159.94 C230.93 97.94, 158.07 32.34, 116.02 -1.06 M301.7 158.59 C231.06 95.16, 166.3 37.05, 120.71 -3.8 M300.39 156.5 C243.03 100.23, 180.59 44.22, 121.89 0.71 M298.84 152.55 C246.13 102.14, 195.92 59.01, 129.1 -1.78 M301.48 149.96 C253.74 108.49, 209.24 66.66, 129.22 -0.5 M300.51 142.2 C255.2 108.96, 211.33 67.74, 137.69 -1.43 M302.27 144.94 C234.77 87.09, 169.58 31.82, 134.29 -0.98 M298.57 141.71 C240.54 84.75, 183.06 26.99, 140.1 1.92 M301.4 139.49 C241.19 90.27, 181.24 36.99, 140.48 -1.55 M299.71 132.71 C258.4 92.48, 211.19 50.44, 143.87 -4.1 M303.4 133.18 C257.67 97.37, 213.85 60.1, 145.76 -0.75 M301.2 131.8 C270.74 99.91, 236.14 74.58, 155.39 -2.3 M301.57 130.34 C267.97 97.97, 230.22 68.96, 153.71 -0.54 M303.01 122.87 C251.85 77.54, 201.68 36.06, 161.16 -3.79 M303.29 122.53 C265.66 93.34, 231.63 60.78, 160.36 1.07 M303.76 114.89 C262.34 83.77, 217.21 43.7, 166.69 -4.67 M301.52 119.14 C273.32 96.17, 241.92 70.45, 165.33 0.23 M298.6 115.61 C265.32 84.73, 228.27 50.89, 171.22 -2.56 M301.49 112.81 C253.48 73.37, 209.03 34.1, 170.08 -1.48 M299.76 105.23 C261.11 70.98, 212.41 30.73, 176.92 -2.53 M302.37 107.49 C275.23 83.85, 250.08 61.11, 178.11 -2.28 M301.48 104.8 C271.02 78.49, 241.22 52.63, 181.86 -0.67 M300.89 103.11 C262.25 70.46, 228.07 37.6, 184.51 -1.45 M300.83 94.07 C257.65 57.77, 207.19 23.54, 189.55 2.42 M300.88 95.78 C261.59 57.79, 217.53 23.95, 188.3 -0.48 M302.62 87.85 C281.25 68.18, 255.22 52.35, 198.14 -1.3 M300.86 90.5 C274.79 67.52, 244.88 40.22, 194.21 0.29 M300.27 85.94 C280.43 61.64, 253.07 41.99, 201.49 -2.19 M299.53 85.28 C262.53 55.75, 224.43 21.25, 200.54 -0.88 M304.68 77.46 C264.66 46.27, 229.56 16.41, 210.81 1.63 M303.42 79.91 C281.19 59.18, 258.17 41.74, 209.42 -2.3 M301.1 78.72 C268.29 49.12, 231.27 20.06, 211.56 0.58 M300.4 76.07 C267.9 46.75, 236.28 21.11, 214.4 -2.17 M302 73.63 C272.62 46.68, 245.84 28.14, 217.05 -3.78 M303.26 70.1 C283.3 54.46, 263.15 34.89, 218.76 -1.74 M303.98 67.56 C274.56 42.84, 244.31 13.96, 229.57 2.3 M303.25 65.1 C272.12 38.69, 244.51 12.54, 227.32 0.12 M300.61 59.7 C279.53 35.7, 250.87 10.27, 229.5 1.89 M301.7 59.68 C275.18 36.45, 251.92 13.95, 232.27 -1.7 M303.31 56.96 C283.01 37.85, 270.66 25.22, 240.96 -2.13 M299.51 56.13 C277.91 35.96, 257.28 13.71, 237.44 0.32 M298.23 46.32 C283.25 33.63, 263.5 11.13, 244.7 -2.66 M300.75 49.1 C285.31 32.74, 266.94 15.85, 243.91 0.99 M299.13 40.72 C290.62 30.94, 271.4 15.66, 251.67 -1.87 M302.23 41.8 C282.95 29.25, 265.41 12.26, 250.28 1.26 M304.26 35.43 C288.06 27.85, 276.63 19.05, 260.17 1.92 M301.05 38.67 C291.29 26.21, 277.6 17.51, 254.51 -0.34 M301.96 30.6 C289.13 22.71, 276.1 8.48, 265.01 -0.69 M300.91 34.23 C289.53 25.17, 279.11 15.54, 261.76 -2.35 M303.8 24.31 C297.67 18.87, 284.11 18.16, 271.08 0.33 M299.91 26.51 C295.06 20.66, 288.67 15.69, 266.6 0.5 M301.71 25.71 C293.73 19.59, 284.02 7.94, 274.27 -1.13 M300.41 24.42 C292.01 14.63, 283.02 9.16, 276.71 -2.02 M301.62 17.52 C293.77 13.08, 292.81 12.32, 283.06 3.18 M301.29 18.62 C296.14 12.73, 290.74 10.6, 283.09 1.2 M300.28 12.44 C298.62 10.55, 294.82 3.9, 287.67 -3.03 M303.53 12.18 C297.53 8.1, 289.4 1.1, 287.9 -0.02 M301.89 6.88 C300.14 6.25, 298.16 2.69, 295.4 0.06 M301.67 6.79 C298.5 3.7, 296.33 2.05, 293.81 -1.13 M302.4 0.99 C301.81 1.15, 300.97 0.81, 299.31 -0.46 M301.9 1.73 C300.72 0.55, 299.72 -0.19, 298.83 -1.24" stroke="#ffffff" stroke-width="0.5" fill="none"></path><path d="M-1.22 0.02 C104.55 -2.73, 206.45 0.73, 301.08 0.43 M-0.37 -0.95 C119.28 2.64, 235.1 4.11, 300.78 -0.88 M304.91 0.16 C300.13 71.1, 305.49 137.21, 304.63 198.98 M302.38 1.07 C305.43 70.61, 303.31 143.14, 300.33 199.61 M301.37 202.05 C181.68 199.74, 59.87 199.27, 1.59 199.28 M301.84 200.07 C233.87 199.86, 166.52 200.33, -1.03 201.81 M-2.43 199.74 C2.83 142.88, 2.18 92.24, 2.26 -3.17 M-0.87 201.76 C1.35 152.09, 1.43 105.32, 0.01 0.04" stroke="#1e1e1e" stroke-width="1" fill="none"></path></g><g stroke-linecap="round" transform="translate(99.55969900993068 172.09945890662414) rotate(360.06059049582194 150.75611075355414 100.23224856353568)"><path d="M0 0 C0 0, 0 0, 0 0 M0 0 C0 0, 0 0, 0 0 M-1.27 5.46 C0.32 2.78, 2.68 0.39, 6.49 -0.72 M-0.19 6.16 C0.86 5.21, 3.7 2.26, 5.22 0.65 M1.01 14.66 C6.12 10.22, 5.71 4.69, 12.31 -2.97 M0.74 12.51 C1.14 10.9, 5.57 7.31, 10.47 -0.27 M-3.45 21.89 C3.01 14.14, 12.29 6.9, 15.96 0.01 M-1.82 17.31 C2.51 14.32, 8.69 7.56, 15.36 1.57 M3.93 20.18 C1.06 22.71, 11.62 10.55, 22.83 1.9 M-1.35 24.26 C5.48 17.03, 14.87 8.37, 21.63 -1.88 M-2.37 29.36 C4.15 22.68, 17.07 14.21, 27.32 -0.27 M1.97 29.08 C9.46 19.57, 16.11 9.04, 24.28 1.88 M-2.95 32.93 C9.78 23.96, 20.07 15.42, 29.35 -3.31 M0.68 36.82 C5.81 29.67, 13.11 20.18, 30.77 -1.78 M3.93 43.88 C15.69 26.94, 26.84 10.04, 36.69 2.34 M-0.43 41.8 C7.92 32.43, 17.92 24.05, 35.16 -1.15 M-0.47 45.8 C13.2 31.62, 29.47 14.84, 41.31 1.48 M1.24 49.5 C7.8 40.04, 19.69 25.71, 40.83 1.4 M0.27 58.52 C14.92 41.23, 26.84 22.29, 45.27 3.02 M0.09 52.77 C15.3 36.58, 29.84 18.09, 46.66 -1.01 M3.68 58.98 C20.01 42.01, 34.68 14.2, 53.09 0.83 M0.49 61.45 C15.66 44.29, 29.74 28.46, 53.67 -0.25 M-3.91 70.83 C19.13 38.94, 37.53 14.29, 57.6 -1.35 M-1.16 66.69 C16.69 48.02, 37.69 26.63, 59.29 0.46 M-2.23 73.59 C20.95 43.32, 43.38 19.89, 64.35 2.94 M1.05 74.71 C23.82 45.39, 47.31 15.79, 63.97 -1.99 M0.12 75.76 C18.02 53.49, 41.21 32.92, 69.48 -0.22 M-2.04 78.68 C27.42 47.88, 51.59 21.01, 69.42 -0.92 M1.37 88.45 C21.16 59.57, 42.1 39.09, 76.09 3.72 M1.42 84.98 C26.29 56.69, 49.09 26.76, 73.26 -0.41 M-3.55 90.23 C28.69 62.05, 47.89 31.31, 80.08 2.67 M0.44 92.77 C23.89 67.67, 46.94 37.86, 79.25 -1.67 M-3.28 96.8 C30.16 60.58, 68.51 22.32, 86.59 -1.23 M1.26 96.35 C30.48 61.65, 62.3 24.6, 83.92 0.52 M-0.88 106.08 C26.26 74.61, 45.41 44.75, 87.83 1.26 M-1.22 104.89 C25.72 77.45, 45.33 50.12, 90.82 -0.65 M-0.67 111.34 C28.46 74.8, 53.3 47.28, 95.47 3.36 M-1.94 108.33 C37.36 68.89, 71.6 30.18, 97.17 -0.46 M-0.5 118.83 C30.94 83.94, 54.39 59.16, 102.51 -0.84 M0.32 113.62 C20.19 92.82, 42.4 67.42, 100.03 -1.08 M2.08 124.67 C26.26 88.14, 55.53 59.78, 107.66 0.46 M1.17 122.34 C27.17 91.81, 53.15 60.48, 107.06 0 M1.59 124.46 C40.82 84.67, 82.38 37.99, 109.2 -2.32 M0.6 126.97 C29.64 90.26, 64.01 55.03, 110.61 -0.5 M-2.23 134.38 C37.98 81.45, 78.82 37.65, 112.72 1.48 M0.46 132.7 C41.89 88.75, 83.32 40.67, 117.84 0.68 M-3.29 136.37 C23.92 108.44, 56.86 78.95, 120.28 -0.16 M-0.05 141.31 C30.16 107.47, 58.36 72.94, 120.14 -0.83 M-1.44 147.7 C46.32 91.11, 95.61 42.15, 123.53 -0.75 M-0.37 145.39 C34.3 104.4, 65.11 70.04, 128.59 -1.24 M3.12 153.74 C53.98 89.18, 104.93 32.31, 131.58 -1.52 M1.44 152.01 C42.76 105.35, 87.73 54.03, 133.87 1.52 M-0.69 161.91 C44.28 100.09, 95 46.48, 136.43 0.54 M1.36 160.55 C45.89 104.43, 97.2 48.04, 139.03 0.32 M2.21 163.47 C51.37 100.98, 107.92 46.49, 141.95 3 M0.25 164.18 C40.6 122.23, 78.96 75.17, 143.5 -1.31 M-0.09 167.87 C46.59 116.88, 88.19 68.41, 145.59 2.73 M0.82 172.42 C45.08 119.46, 92.95 65.87, 147.33 -0.51 M3.21 174.92 C25.91 141.65, 60.23 102.46, 156.94 -0.55 M-0.37 175.83 C55.55 116.98, 106.36 57.04, 152.13 -1.15 M-1.68 183.73 C34.13 145.09, 63.75 112.45, 161.15 0.36 M-1.29 182.79 C54.52 119.24, 111.58 53.37, 160.44 0.48 M1.4 186.78 C50.54 131.37, 98.22 78.13, 164.37 3.05 M0.84 188.19 C60.15 118.28, 118.61 49.64, 163.91 -0.94 M2.29 194.12 C50.68 138.9, 102.82 80.31, 170.3 1.14 M0.85 195.51 C41.85 141.99, 86.99 90.62, 169.17 0.94 M-0.62 201.03 C64.57 126.39, 128.8 57.67, 172.04 0.05 M1.85 199.93 C66.49 121.56, 135.28 42.66, 175.99 1.2 M4.64 202.63 C69.94 131.49, 130.01 61.81, 181.51 2.33 M5.03 199.84 C59.96 139.11, 111.3 77.68, 180.11 0.91 M13.44 202.23 C63.9 137.7, 121.77 78.14, 183.12 -2.01 M9.83 201.05 C53.02 152.9, 98.43 101.89, 184.22 0.54 M15.04 200.78 C78.25 132.27, 134.69 61.04, 187.95 1.16 M15.12 200.5 C73.32 139.63, 124.78 77.77, 190.68 0.91 M20.4 202.33 C74.91 140.19, 128.45 80.41, 194.1 2.14 M20.39 200.14 C75.18 138.09, 131.6 76.39, 196.88 0.03 M24.53 203.36 C76.69 144.92, 129.26 91.81, 202.82 -2.25 M26.33 200 C68.93 153.16, 109.97 107.09, 200.59 0.34 M33.28 198.5 C91.56 126.79, 145.81 63.9, 204.12 0.27 M31.77 199.68 C70.49 161.08, 106.86 121.29, 207.91 -0.84 M38.34 201.49 C85.2 145.88, 135.17 83.89, 211.94 -1.71 M37.44 200.89 C100.66 129.25, 161.87 59.44, 213.4 -0.85 M44.02 200.29 C98.47 140.25, 153.77 82.09, 218.08 -2.75 M42.89 199.51 C87.05 149.04, 129.22 96.5, 217.46 -1.27 M48.55 203.4 C112.14 132.54, 177.36 59.17, 221.11 -0.75 M47.1 200.72 C101.37 140.6, 157.06 78.03, 222.27 -0.62 M51.26 201.97 C97.41 146.02, 143.57 99.29, 230.85 -0.68 M54.24 202.34 C92.64 151.65, 134.79 103.68, 227.11 -0.74 M56.15 199.71 C98.64 157.2, 135.38 116.17, 234.05 -3.14 M58.59 199.91 C101.7 155.48, 142.31 107.08, 233.68 0.44 M66.13 201.59 C123.44 127.97, 185.23 56.75, 236.13 -1.03 M62.67 199.65 C109.8 150.08, 156.91 96.43, 237.67 0.17 M67.92 198.18 C107.4 153.87, 152.47 107.8, 242.82 2.88 M68.74 200.2 C112.84 153.5, 155.36 104.84, 243.69 0.66 M73.54 202.42 C129.98 131.82, 188.97 65.16, 251.12 0.43 M74.72 199.9 C124.65 145.45, 174.51 89.48, 250.22 1.53 M80.62 201.58 C130.76 142.88, 188.39 79.4, 256.36 -2.76 M78.98 199.88 C135.92 138.98, 194.76 73.83, 255.36 -1.09 M82.23 200.37 C137.23 143.65, 186.96 87.66, 258.94 2.03 M85.67 201.86 C148.27 131.7, 211.68 60.49, 260.59 0.63 M90.45 198.19 C130.31 157.69, 168.35 110.09, 265.67 0.72 M90.64 201.74 C133.49 151.21, 177.04 100.65, 264.53 -0.71 M95.63 200.6 C135.71 162.88, 172.51 116.34, 271.25 2.68 M96.19 200.06 C165.95 121.38, 232.17 44.66, 269.88 0.08 M102.56 202.93 C140.15 153.64, 183.08 106.2, 278.59 2.21 M100.17 201.94 C150.13 140.79, 201.61 85.51, 277.17 0.14 M108.75 201.71 C147.88 151.28, 191.76 101.32, 280.23 -0.53 M107.6 202.21 C143.5 154.53, 181.93 111.03, 282.22 0.62 M108.93 203.6 C166.71 139.36, 219 75.53, 285.03 -0.12 M113.39 201.14 C156.95 146.05, 203.41 93.01, 285.69 -1.31 M117.62 198.89 C169.4 133.82, 226.15 73.98, 293.28 -2.86 M117.16 202.29 C176.29 131.74, 231.93 67.69, 290.56 -0.44 M123.08 201.98 C177.87 141.33, 231.26 75.83, 298.08 -2.07 M121.76 199.72 C178.47 133.96, 236.8 68.27, 295.83 -0.95 M128.8 199.7 C167.63 158.44, 208.47 111.86, 304.65 -1.4 M125.96 201.14 C181.54 139.33, 237.05 75.45, 303.53 -1.3 M132.74 197.97 C197.33 127.64, 263.05 55.66, 300.62 3.93 M132.43 199.33 C195.24 129.46, 260.12 56.68, 300.14 7.89 M137.22 202.04 C205.99 126.67, 271.58 52.47, 300.65 13.9 M137.32 201.72 C172.14 163.71, 206.17 122.65, 301.74 11.6 M140.75 199.26 C197.55 134.65, 256.43 68.93, 299.59 17.01 M144.6 201.52 C176.92 160.91, 209.91 123.2, 302.38 17.67 M148.41 203.58 C196.49 144.97, 240.15 91.77, 300.1 27.85 M148.99 201.1 C208.2 130.29, 270.58 62.63, 301.9 23.4 M156.46 198.9 C208.94 139.2, 258.07 82.29, 300.1 29 M153.89 199.2 C209.79 136.1, 266.54 72.67, 302.05 32.24 M155.88 197.81 C197.67 163.02, 228.61 118.69, 303.58 35.87 M160.92 201.78 C197.41 160.08, 233.73 116.46, 300.74 38.69 M164.36 198.37 C198.92 165.03, 229.65 131.6, 300.34 43.4 M163.44 202.51 C214.49 142.74, 263.64 87.86, 301.24 41.27 M171.47 198.74 C199.8 167.27, 228.5 136.36, 301.7 47.61 M170.22 200.02 C218.06 145.66, 264.91 92.6, 303.08 48.66 M177.82 202.26 C213.34 166.14, 243.64 126.75, 298.54 53.55 M175.02 200.06 C225.88 139.71, 278.19 82.26, 300.47 54.46 M180 203.54 C226.55 149.84, 273.08 91.5, 302.59 59.72 M179.9 201.5 C206.53 167.7, 235.57 133.56, 301.96 60.67 M189.57 204.55 C221.61 160.46, 259.68 117.76, 300.84 64.84 M186.52 200.29 C231.99 147.59, 277.02 92.97, 299.74 66.21 M192.64 200.17 C214.36 173.97, 234.27 147.3, 299.15 74.36 M190.56 201.63 C214.17 173.76, 239.33 148.3, 300.82 73.29 M199.91 202.93 C224.21 179.33, 245.33 150.66, 304.07 81.26 M195.94 201.44 C223.74 168.88, 250.61 138.77, 303.42 78.89 M199.04 203.81 C238.04 162.07, 270.95 118.32, 302.59 87.61 M201.51 201.96 C225.04 175.35, 246.12 150.28, 300.95 85.1 M204.5 197.15 C225.1 177.76, 247.71 153.08, 303.29 89.68 M207.23 201.25 C244.56 159.22, 281.29 116.56, 301.51 90.91 M209.99 197.54 C244.98 162.91, 277.99 124.86, 301.45 99.14 M212.87 200.8 C239.68 168.09, 266.41 138.62, 301.35 98.08 M214.29 200.66 C247.1 166.54, 276.31 128.29, 302.85 104.61 M216.18 199.08 C245.03 163.43, 278.09 129.63, 302.87 103.37 M221.62 200.15 C248.59 166.25, 279.5 131.2, 301.57 112.58 M223.6 199.11 C255.75 165.05, 284.39 127.77, 300.86 108.16 M227.54 204.56 C242.62 181.77, 263.65 157, 303.77 117.03 M228.43 201.99 C243.45 185.13, 260.41 165.37, 300.51 114.76 M235.33 198.12 C253.91 183.79, 270.33 164.48, 300.79 120.51 M233.53 202.51 C252.85 175.63, 274.98 151.73, 302.86 120.17 M241.84 197.68 C259.03 174.16, 281.95 147.06, 302.35 127.33 M237.47 202.67 C262.47 170.91, 287.47 143.36, 300.29 127.97 M245.88 197.58 C264.58 176.85, 291.07 148.14, 300.24 133.15 M245.3 199.27 C260.04 181.17, 279.58 158.62, 300.54 134.57 M250.08 202.51 C259.35 191.25, 268.62 171.34, 298.23 137.87 M250.63 201.47 C258.82 187.01, 271.86 175.1, 302.92 140.81 M253.29 204.39 C267.98 179.19, 286.96 166.32, 299.73 143.21 M254.41 202.33 C266.05 190.76, 274.93 177.67, 302.29 146.25 M260.45 199.25 C272.4 189.81, 285.87 168.99, 301.02 153.92 M259.07 200.4 C275.42 182.64, 292.3 166.17, 300.61 152.99 M266.94 204.08 C278.82 188.08, 294.53 171.22, 304.33 158.81 M267.21 199.27 C271.14 192.32, 279.04 183.43, 300.32 159.5 M268.49 201.75 C279.43 186.02, 291.65 177.05, 301.64 164.44 M271.81 201.13 C277.56 193.76, 287.91 181.48, 302.44 164.88 M277.5 197.85 C289.4 192.67, 290.91 179.96, 300.47 172 M274.89 202.33 C284.84 189.93, 291.08 181.36, 300.71 170.51 M285.01 197.59 C288.58 193.27, 287.17 187.85, 299.68 178.86 M281.71 198.96 C285.82 194.69, 292.38 190.05, 299.65 176.27 M284.3 199.39 C290.42 200.85, 293.18 193.1, 302.54 183.79 M286.82 199.16 C288.81 195.5, 294.71 192.4, 300.02 182.39 M292.09 200.2 C292.05 199.33, 293.81 194.74, 301.93 188.36 M291.58 200.86 C294.16 195.45, 299.03 192.36, 302.16 189.34 M295.71 202.17 C298.2 200.7, 301.03 199.5, 301.38 194.18 M296.2 200.59 C297.78 199.75, 299.97 197.47, 302.36 195.4" stroke="#1e1e1e" stroke-width="0.5" fill="none"></path><path d="M2.55 -2.11 C97.15 1.32, 188.97 0.39, 304.2 2.41 M1.11 -0.29 C69.19 4.06, 140.14 2, 302.25 0.24 M299.53 0.82 C308.3 73.96, 308.04 153.1, 303.47 203.98 M301.91 -0.41 C301.52 57.02, 302.07 111.02, 303.25 200.02 M301.19 199.87 C209.33 201.78, 123.96 201.67, -2.25 202.46 M301.08 200.26 C213.19 199.52, 124.96 200.61, -0.33 199.49 M0.43 198.52 C2.22 150.84, 4.7 91.93, -2.42 -2.98 M-1.64 198.76 C0.19 156.04, 1.76 115.21, -1.72 -0.41" stroke="#1e1e1e" stroke-width="1" fill="none"></path></g><g stroke-linecap="round" transform="translate(65.18871275301171 38.897048297075) rotate(360.06059049582194 150.75611075355414 100.23224856353568)"><path d="M0 0 C0 0, 0 0, 0 0 M0 0 C0 0, 0 0, 0 0 M-1.68 5.07 C-0.1 3.72, 3.71 2.63, 5.21 1.53 M-0.7 7.01 C1.56 4.73, 2.12 4.22, 4.64 -0.17 M3.26 13.5 C4.13 6.26, 9.83 -0.36, 7.85 1.26 M-1 13.41 C3.96 9.06, 5.58 5.19, 10.53 1.13 M-1.35 19.44 C8.21 11.95, 9.74 7.24, 13.79 -0.97 M-1.61 19.22 C7.08 10.09, 12.35 5.57, 13.73 -0.59 M-3.48 27.91 C9.75 12.57, 16.26 9.37, 21.97 2.06 M-0.93 24.97 C9.79 15.18, 16.27 4.7, 20.43 -1.22 M-2.97 30.74 C12.67 19.69, 19.73 9.02, 27.18 2.34 M1.28 29.52 C7.68 18.97, 15.1 12.13, 27.29 -0.78 M-1.93 36.38 C4.19 33.84, 11 19, 28.22 -2.35 M-1.3 37.54 C9.48 23.68, 19.29 11.04, 33.74 -0.09 M1.27 43.38 C7.48 31.01, 19.71 20.7, 33.09 -3.26 M-0.38 41.68 C16.18 26.3, 26.38 9.49, 38.14 -0.94 M-2.88 49.55 C11.28 35.95, 25.36 20.59, 39.4 0.23 M-1.59 50.41 C10.32 35.05, 17.8 26.87, 42.47 -0.53 M0.66 57.51 C13.32 36.78, 27.61 22.41, 48.2 -2.54 M-0.44 54.26 C15.56 35.05, 32.2 16.58, 48.48 0.15 M1.42 63.65 C13.95 37.56, 33.84 22.21, 52.36 3.36 M1.85 61.45 C16.87 43.95, 32.46 23.56, 54.46 1.79 M-0.89 63.69 C15.89 41.3, 37.44 22.24, 58.47 -0.61 M-1.58 68.19 C16.84 50.85, 31.15 33.92, 59.34 -1.59 M-3.27 69.83 C16.93 49.78, 41.23 30.35, 67.22 2.3 M0.18 74.45 C21.55 45.42, 45.88 16.97, 63.43 -1.16 M-2.18 75.9 C22.29 55.01, 42.15 32.37, 71.22 -2.87 M1.33 77.82 C29.35 48.77, 56.47 16.22, 68.59 -1.62 M-1.91 82.94 C12.01 68.72, 31.53 53.18, 75.44 -2.02 M1.38 85.82 C28.02 50.39, 56.09 18.28, 74.91 0.26 M3.34 92.09 C23.96 62.08, 53.5 35.59, 79.05 -3.04 M-0.68 93.42 C18.43 66.64, 38.61 43.58, 80.94 -0.71 M-2.81 98.25 C33.83 64.1, 60.71 30.69, 87.79 1.02 M-0.34 99.41 C31.97 61.36, 64.02 23, 84.31 -0.66 M2.19 103.14 C31.69 60.82, 65.43 26.47, 87.88 -3.15 M1.9 104.15 C33.86 62.97, 68.53 25.36, 89.96 0.98 M1.03 108.48 C31.4 74.25, 67.27 35.45, 98.36 -4.26 M0.01 109.46 C30.37 79.02, 61.92 43.89, 94.84 -0.99 M4.2 113.59 C31.25 83.53, 60.79 46.01, 96.96 -1.54 M-1.57 116.83 C30.12 82.39, 60.31 46.47, 100.06 2 M-0.07 120.29 C26.71 91.88, 55.07 58.04, 104.52 0.13 M0.3 123.11 C29.91 85.55, 63.73 47.77, 107.6 -2.11 M-2.14 130.46 C25.94 100.09, 53.26 62.82, 110.83 3.12 M-0.54 126.7 C31.23 94.73, 59.29 58.8, 112.49 1.52 M-1.8 131.26 C42.37 85.22, 85.26 34.66, 118.33 -1.36 M-0.08 135.43 C33.59 97.25, 68.25 58.71, 114.84 0.98 M-3.08 140.18 C39.4 104.73, 70.79 61.77, 119.34 -0.13 M1.34 140.37 C36.53 96.54, 69.65 55.98, 123.33 1.38 M1.44 142.69 C31.11 116.67, 50.26 83.91, 125.12 -0.88 M1.07 144.12 C51 89.62, 103.96 28.96, 128.64 -1.3 M0.46 149.46 C44.76 96.63, 90.68 41.92, 133.56 1.27 M0.28 154.18 C32.68 115.34, 65.35 78.38, 133.43 0.05 M-3.63 156.58 C47.39 100.88, 95.07 46.38, 139.33 1.28 M-1.65 160.13 C40.82 108.57, 82.74 59.74, 138.8 1.23 M-0.25 161.1 C38.73 125.57, 71.71 82.54, 142.43 0.15 M0.97 165.97 C30.37 129.4, 62.38 92.2, 142.9 -1.12 M2.72 167.73 C60.5 102.84, 113.96 41.3, 148.28 -1.47 M-1.37 171.4 C45.74 114.52, 89.05 62.38, 146.53 1.92 M-2.59 179.11 C52.1 114.73, 109.45 52.3, 154.87 -3.18 M1.97 176.85 C57.14 114.24, 107.91 52.06, 152.25 -0.72 M0.12 180.94 C33.62 144.95, 74.46 101.2, 160.85 3.4 M-0.06 183.93 C41.04 139.33, 82.26 93.34, 158.8 0.11 M0.84 186.27 C34.62 149.3, 72.38 109.15, 166.55 1.11 M1.3 189.9 C62.69 117.35, 127.23 40.71, 164.31 -1.77 M-1.88 196.04 C51 134.89, 103.52 76.25, 168.09 2.42 M0.26 194.63 C65.57 117.52, 129.06 44.53, 170.5 1.3 M2.74 197.48 C40.45 160.22, 71.31 116.87, 177.88 2.4 M1.22 201.49 C63.6 128.09, 127.01 55.67, 175.92 -0.1 M8.33 200.37 C45.94 156.07, 84.75 113.2, 180.28 0.66 M6.84 201.56 C62.81 137.85, 121.08 71.88, 180.1 -0.87 M9.02 197.79 C60.11 141.94, 102.9 86.18, 184.04 0.35 M10.4 201.88 C63.16 144.62, 108.1 90.32, 186.5 0.83 M19.17 203.08 C70.42 139.2, 124.34 75.74, 190.86 -2.31 M17.53 201.19 C71.44 139.64, 125.6 78.89, 190.67 -0.15 M22.16 201.58 C85.72 130.29, 142.62 61.4, 196.86 0.3 M20.48 199.02 C60.07 160.59, 96.37 119.57, 196.05 -1.74 M24.47 199.99 C72.43 152.63, 115.27 98.9, 199.22 -2.44 M25.6 199.82 C77.6 143.74, 128.58 85.76, 201.95 1.49 M35.01 197.34 C95.87 127.6, 162.35 49.07, 203.97 -2.05 M32.89 200.3 C74.38 157.54, 113.97 110.16, 206.81 0.95 M36.97 202.78 C78.5 148.87, 122.9 99.08, 213.66 -0.6 M38.15 199.79 C86.03 145.16, 135.92 88.14, 211.96 -1.36 M43.04 200.19 C93.89 146.19, 140.72 85.28, 216.18 1.36 M44.18 200.23 C93.98 140.93, 146.99 81.82, 218.54 -0.79 M48.31 203.92 C96.26 147.57, 138.36 91.61, 223 0.47 M47.12 200.79 C85.15 160.85, 119.89 119.48, 221.79 -0.16 M53.17 198.88 C125.1 123.86, 193.12 44.08, 226.37 2.56 M53.29 201.69 C112.11 129.67, 172.28 57.46, 226.93 -1.9 M57.48 198.79 C97.16 158.23, 138.97 110.07, 231.29 -0.6 M59.35 201.45 C97.77 157.27, 138.07 112.11, 233.96 0.74 M64.25 200.18 C130.41 120.67, 194.21 43.94, 237.27 0.41 M62.57 201.89 C100.42 163.77, 137.16 120.68, 237.12 0.78 M67.69 201.48 C132.07 137.03, 186.63 71.35, 242.05 -0.7 M69.7 200.95 C114.43 152.01, 157.34 102.25, 244.56 1.44 M72.62 198.7 C108.45 158.4, 150.15 116.29, 248.32 0.72 M75.47 201.56 C121.43 151.18, 167.89 97.34, 249.05 0.78 M76.86 203.74 C117.4 158.37, 157.99 108.86, 255.09 -1.72 M78.45 200.52 C118.9 160.17, 153.73 119.47, 254.29 -1.38 M84.24 202.21 C142.53 140.09, 199.59 74.02, 261.16 -1.31 M84.88 200.46 C122.72 155.55, 159.99 113.24, 258.13 0.72 M93.4 203.35 C160 125.19, 223.73 51.27, 263.38 -1.03 M89.7 201.94 C151.54 128.31, 212.45 57.18, 263.73 -0.26 M98.16 204.07 C139.62 152.46, 180.58 107.28, 272.82 -2 M96.21 199.62 C149.96 137.47, 206.63 73.06, 269.05 1.42 M101.52 201.04 C156.07 136.65, 210.64 76.8, 275.11 -1 M100.3 199.6 C172.85 120.17, 240.67 42.22, 274.92 -0.66 M103.44 198.94 C139.37 154.54, 179.17 112.14, 278.21 2.09 M106.87 199.81 C162.61 131.02, 222.15 64.34, 280.82 1.04 M114.87 203.58 C185.97 118.84, 252.2 38.38, 285.33 0.49 M110.95 201.04 C168.3 130.94, 229.37 58.93, 286.6 -0.39 M113.87 198.61 C176.04 133.42, 240.57 58.66, 292.21 -1.67 M117.28 199.96 C183.16 121.01, 251.5 41.38, 291.52 -0.15 M122.88 201.74 C160.6 152.3, 201.46 107.11, 297.98 0.57 M121.42 200.13 C173.53 144.68, 223.09 85.8, 295.84 -0.71 M126.9 203.58 C175.5 147.58, 226.46 88.06, 302.34 -0.85 M126.18 201.88 C182.79 139.78, 236.93 78.36, 303.09 -1.38 M131.79 198.59 C179.85 149.45, 221.4 97.6, 304.31 7.68 M132.15 200.69 C168.61 164.09, 201.74 124.57, 303.16 5.21 M139.48 199.84 C188.63 144.53, 230.85 94.19, 299.16 13.01 M138.5 202.4 C183.29 149.25, 226.62 98.31, 302.91 12.33 M142.57 200.29 C208.96 130.01, 264.24 61.75, 298.73 16.81 M142.66 199.13 C192.96 138.06, 245.71 79.4, 301.85 18.9 M151.13 200.08 C208.68 129.13, 266.55 64.68, 304.71 24.61 M147.88 201.09 C206.3 137.06, 261.54 68.89, 302.48 23.46 M154.19 199.87 C197.96 148.22, 247.77 88.28, 304.81 30.44 M153.17 198.83 C185.61 166.12, 217.94 131.76, 301.09 29.63 M160.64 202.7 C195.96 158.73, 237.89 116.83, 300.39 38.06 M160.95 202.35 C196.4 155.38, 233.83 111.32, 300.5 36.23 M165.92 200.57 C200.82 164.25, 234.36 121.21, 304.43 44.69 M165.74 199.63 C201.44 160.01, 235.86 116.28, 300.64 41.6 M169.6 200.17 C208.5 157.56, 248.46 108.88, 303.8 45.78 M168.85 200.04 C211.8 152.06, 257.18 102.04, 301.34 47.7 M176.73 203.6 C197.97 171.53, 224.68 135.41, 305.39 53.66 M174.56 199.45 C225.85 144.44, 271.89 88.59, 303.16 54.38 M179.09 204.36 C224.83 145.7, 271.12 94.7, 299.48 64.3 M179.94 199.87 C212.65 161.72, 244.59 126.88, 302.18 59.75 M183.79 200.26 C209.93 166.23, 235.51 134.93, 305.45 65.51 M185.01 201.53 C225.08 152.1, 266.24 104.25, 299.74 69.07 M194.07 198.51 C218.53 165.87, 242.84 138.4, 298.63 72.72 M190.3 200.54 C224.17 165.03, 253.69 127.47, 300.52 71.65 M199.12 204.57 C218.72 174.08, 244.19 146.59, 300.46 81.45 M196.89 200.47 C224.66 169.31, 255.25 134.28, 302.71 78.3 M202.45 202.98 C240.84 153.23, 280.52 113.3, 298.17 84.96 M203.1 201.84 C242.62 154.74, 280.45 107.86, 299.99 85.6 M203.81 202.3 C237.77 167.89, 271.38 129.71, 305.94 95.35 M208.67 201.73 C229.87 176.25, 251.61 147.64, 303.06 89.73 M211.51 199.9 C244.44 164.8, 273.9 133.68, 302.08 96.73 M211.48 199.31 C234.6 173.4, 260.43 144.56, 303.08 98.31 M216.31 202.93 C244.35 167.96, 276.54 136.81, 304.72 106.78 M215.67 199.43 C246.78 170.95, 274.86 138.67, 303.67 104.68 M219.81 201.09 C248.48 169.57, 277.15 141.64, 305.7 109.68 M224.41 202.15 C251.19 167.69, 281.22 131.44, 301.17 111.46 M224.33 203.6 C245.13 178.05, 268.6 156.44, 298.29 117.73 M228.03 202.35 C245.08 181.43, 259.4 160.98, 300.59 116.88 M237.25 204.03 C259.82 177.77, 279.49 145.13, 302.33 124.42 M232.73 199.22 C251.38 178.2, 269.56 157.35, 303.13 122.58 M236.93 201.17 C260.87 172.62, 287.5 144.14, 305.41 125.63 M236.77 199.91 C259.93 174.42, 282.08 148.87, 303.66 127.46 M241.03 203.92 C265.24 178.12, 284.19 151.9, 302.57 137.21 M243.12 201.02 C257.38 184.57, 268.76 171.16, 300.69 135.9 M248.46 204.16 C256.99 184.44, 268.42 171.49, 298.18 139.87 M247.71 200.2 C268.03 178.75, 287.57 157.28, 302.62 139.46 M251.68 197.63 C271.05 183.93, 284.94 159.85, 297.68 144.78 M256.07 201.71 C270.47 181.78, 285.26 165.37, 301.74 145.04 M258.61 204.8 C272.48 183.73, 285.7 171.74, 304.7 150.75 M259.55 199.97 C271.93 189.39, 280.03 177.38, 303.71 152.82 M265.01 203.72 C275.52 191.88, 285.95 179, 298.23 161.29 M263.97 201.12 C274.32 189.1, 285.12 176.68, 303.01 160.01 M268.35 198.97 C277.84 193.45, 287.22 181.34, 300.35 166.27 M269.82 202.61 C279.1 190.97, 285.33 183.98, 303.01 163.16 M280.18 202.45 C278.68 193.32, 286.63 188.05, 302.1 170.81 M276.99 198.72 C282.45 191.02, 288.8 184.19, 300.09 169.75 M283.99 198.29 C284.34 190.68, 291.87 187.66, 299.18 176.88 M280.9 200.18 C288.02 195.13, 290.27 187.3, 299.77 176.47 M286.97 204.49 C290.74 195.94, 295.16 192.62, 301.14 184.4 M284.55 200.41 C289.98 198.05, 292.2 191.58, 300.08 181.08 M289.83 201.71 C292.87 195.65, 298.7 192.09, 303.82 188.68 M290.47 199.73 C295.17 196.87, 299.21 192.77, 301.25 188.49 M296.72 202.25 C299.52 201.12, 298.79 197.2, 301.5 195.74 M296.46 201.24 C298.58 199.24, 299.59 198.77, 302.44 194.45 M0.36 200.78 C0.36 200.78, 0.36 200.78, 0.36 200.78 M0.36 200.78 C0.36 200.78, 0.36 200.78, 0.36 200.78 M6.77 201.2 C3.94 199.4, 3.44 196.71, -0.36 195.09 M6 200.38 C3.04 198.6, 1.69 196.77, -0.8 194.71 M10.52 198.68 C11.03 198.09, 8.75 194.73, 1.19 191.01 M10.94 201.02 C6.57 196.09, 2.85 194.16, 1.48 189.38 M21.47 202.93 C15.86 194.78, 4.85 187.23, -0.12 183.47 M18.35 201.04 C13.33 195.15, 5.76 187.84, -0.3 184.69 M27.67 203.54 C14.4 193.69, 6.64 186.76, -0.88 178.28 M23.61 198.97 C16.55 191.94, 5.7 187.32, -1.12 179.8 M30.97 201.04 C22.19 192.09, 12.81 182.48, -2.34 175.75 M31.87 201.18 C18.29 190.69, 8.9 180.27, 0.86 173.47 M35.7 203.66 C24.6 185.65, 10.49 173.93, -3.1 169.94 M35.69 198.79 C24.68 187.89, 10.42 176.15, -0.66 167.12 M45.29 199.93 C24.75 189.19, 14.12 172.91, 1.96 166.74 M44.48 199.23 C34.02 191.64, 25.04 185.09, -0.35 162.73 M47.88 201.2 C33.1 186.56, 20.1 176.44, -1.43 160.25 M48.81 201.01 C30.53 183.37, 15.54 169.22, 0.36 157.64 M57.23 202.05 C43.9 187.73, 24.57 176.4, 1.94 150.66 M53.99 200.48 C38.61 187.88, 23.98 177.46, 0.84 150.63 M58.34 198.77 C39.58 182.17, 26.4 168.33, 1.63 144.58 M60.37 202.59 C46.54 188.68, 30.48 173.8, -1.2 148.7 M68.54 202.51 C37.57 174.88, 13.19 156.54, 2.43 141.01 M65.14 200.39 C47.88 183.8, 29.39 169.41, -2.14 141.2 M74.68 200.32 C60.83 190.15, 40.59 169.58, 1.26 139.61 M74.17 200.36 C51.04 181.9, 32.8 162.85, 1.15 138.51 M78.67 201.73 C61.06 186.68, 48.3 172.38, -4.03 134.63 M80.31 199.29 C58.11 181.62, 40 164.94, -1.2 130.28 M86.43 203.09 C54.41 175.71, 27.09 150.91, 2.33 123.3 M86.93 200.95 C58.61 177.3, 32.05 153.07, 1.58 128.07 M89.48 202.11 C59.32 174.72, 36.16 152.95, -1.22 123.66 M90.28 200.97 C66.48 176.91, 40.42 153.27, 0.4 119.58 M98.06 198.96 C76.43 187.1, 60.71 167.46, -0.59 118.97 M99.26 200.2 C75.21 186.44, 55.33 165.71, -0.08 115.28 M106.28 201.37 C66.11 168.65, 29.78 133.92, -1.24 107.55 M105.26 200.14 C64.02 164.57, 18.75 126.18, -1.94 110.65 M109.72 203.15 C72.51 168.89, 30.62 133.57, -3.26 103.22 M110.44 201.77 C78.13 170.97, 44.75 139.95, -0.36 104.85 M114.33 200.55 C80.79 173.31, 44.76 145.87, -0.5 97.08 M117.35 200.28 C86.15 174.02, 54.41 149.68, -0.16 98.88 M122.02 202.82 C72.82 163.98, 28.18 117.74, -3.73 97.97 M121.16 199.84 C73.45 161.44, 30.55 121.82, 1.87 94.33 M127.81 197.3 C89.08 168.12, 57.24 135.78, 0.28 86.31 M127.54 201.08 C90.79 170.47, 57.4 137.99, 0.45 87.51 M136.96 198.5 C94.77 169.09, 49.45 130.36, 1.61 86.47 M132.48 202.45 C98.35 170.43, 65.78 141.07, -0.59 84.14 M138.59 198.62 C95.9 160.79, 60.98 125.58, 0.83 81.3 M140.52 201.08 C96.17 163.15, 51.87 125.51, 0 78.26 M142.54 203.97 C110.1 168.3, 77.68 137.36, -1.91 73.25 M144.41 201.46 C95.69 156.63, 44.41 109.15, -1.3 71.53 M152.97 201.38 C109.87 163.2, 69 129.13, 2.09 69.31 M151.49 200.35 C105.35 161.15, 54.73 118.24, -0.85 66.9 M161.26 199.78 C98.52 154.14, 46.27 102.69, -2.94 64 M158.79 199.98 C122.99 165.84, 85.29 136.34, 1.61 64.35 M168.24 201.92 C114.49 158.12, 68.53 114.23, -0.17 59.16 M164.54 199.79 C101.95 149.98, 40.41 98.57, 0.85 56.54 M169.09 201.27 C121.8 154.9, 70.49 113.37, -1.64 54.08 M170.35 198.94 C101.9 142.79, 35.61 83.3, 0.48 52.21 M175.77 203.59 C122.36 150.58, 71.08 110.55, -0.57 49.95 M176.43 199.12 C138.58 168.01, 99.11 133.32, -0.73 45.98 M183.24 200.92 C125.68 150.26, 65.97 100.85, -2.76 40.64 M184.58 199.51 C139.53 165.71, 93.42 124.61, -1.39 42.13 M188.22 203.2 C123.71 145.36, 61.21 86.55, -1.15 37.21 M189.97 199.93 C129.61 149.34, 71.72 100.45, -0.4 35.59 M196.85 199.55 C139.99 153.06, 81.74 108.12, 0.41 31.88 M194.87 199.14 C118.9 138.28, 45.58 73.23, 0.14 31.22 M202.21 202.18 C141.05 150.42, 81.3 99.35, -0.77 22.82 M199.42 201.07 C123.81 136.95, 47.87 71.3, -0.97 25.59 M208.83 199.2 C137.6 142.4, 65.66 77.42, 2.59 17.34 M205.78 200.39 C141.97 145.07, 77.05 87.98, -0.89 19.16 M210.71 203.42 C170.68 163.7, 119.88 121.61, 1.3 17.09 M212.51 201.34 C164.93 160.06, 113.76 116.3, -1.37 14.52 M217.34 197.52 C170.33 157.55, 124.47 120.98, -2.54 9.91 M218.15 200.31 C145.75 140.51, 71.28 78.49, 0.54 9.28 M227.34 199.7 C144.58 136.64, 67.98 64.38, 2.52 4.83 M226.14 201.36 C174.29 152.69, 120.41 107.65, 1.31 3.96 M229.27 197.79 C157.31 135.61, 83.34 72.17, -1.11 -0.78 M231.72 199.1 C140.99 124.87, 50.91 44.96, 0.63 -1.48 M238.74 198.82 C176.61 146.67, 122.67 96.01, 7.26 -1.81 M236.61 199.8 C156.92 128.01, 77.56 58.3, 5.43 -0.37 M245.59 200.19 C192.06 152.32, 136.53 107.6, 10.39 -0.24 M244.68 201.72 C179.42 143.47, 114.89 86.09, 12.76 -1 M247.35 199.72 C160.07 122.38, 69.44 42.49, 19.97 0.99 M249.47 201.11 C176.17 133.78, 102.71 70.3, 17.76 -0.02 M256.47 202.76 C197.99 154.38, 138.81 99.73, 26.85 1.96 M254.95 199.49 C194.3 146.12, 131.57 92.4, 25.09 0.05 M262.37 202.52 C194.01 139, 126.55 81.1, 29.42 -1.13 M261.25 200.18 C187.45 136.87, 113.46 73.14, 30.08 -1.37 M265.62 202.01 C219.55 157.37, 166 114.6, 36.16 -1 M268.92 201.48 C178.57 123.92, 88.07 43.83, 36.23 -0.78 M274.73 200.2 C190.23 129.36, 112.54 56.24, 43.96 -1.05 M273.36 201.87 C215.76 153.67, 156.81 102.15, 44.23 -0.54 M278.67 199.08 C214.36 141.3, 148.55 83.7, 48.27 0.41 M279.71 201.53 C234.29 157.15, 185.29 111.85, 48.04 -0.1 M285.93 202.12 C216.19 147.93, 152.2 90.25, 54.34 -0.85 M287.55 199.57 C220.75 145.86, 155.4 90.46, 53.91 -1 M295.25 197.5 C205.35 129.92, 122.86 53.8, 62.19 -1.64 M292.45 200.6 C232.36 148.06, 172.37 94.87, 60.05 -0.59 M298.01 200.29 C243.75 152.05, 181.27 102.1, 66.31 -2.43 M297.51 200.79 C228.85 143.01, 160.09 82.72, 67 0.1 M303.04 197.69 C237.18 143.55, 170.39 90.9, 71.56 -3.09 M302.54 196.91 C215.45 124.48, 128.09 48.97, 73.71 -0.65 M304.53 190.66 C227.27 128.76, 155.12 66.49, 77.28 -1.51 M301.28 192.12 C243.95 145.97, 187.62 97.29, 81 -0.8 M303.93 188.33 C260.01 150.55, 213.93 113.03, 85.81 -1.81 M302.82 187.43 C217.71 114.91, 136.74 42.88, 85.85 -0.95 M300.51 180.47 C252.29 135.05, 199.64 88.9, 89.71 2.14 M301.7 182.63 C253.77 138.08, 207.05 98.22, 91.64 0.47 M299.71 176.26 C261.58 143.8, 218.29 106.99, 98.87 0.23 M299.98 176.22 C223.36 109.47, 141.17 38.49, 99.69 0.62 M303.21 169.4 C251.53 131.83, 206.97 86.66, 105.37 -2.02 M301.08 171.97 C236.97 112.43, 167.5 56.46, 103.23 -0.18 M301.36 162.93 C228.06 107.69, 163.77 46.33, 112.49 -3.51 M301.6 166.92 C240.1 112.27, 178.13 59.42, 111.32 -1.39 M300.63 158.4 C256.97 124.33, 220.5 84.5, 116.04 -0.22 M303.29 160.75 C252.17 121.02, 205.04 79.36, 116.32 -0.96 M305.14 156.79 C231.36 90.71, 164.45 31.57, 119.19 -3.78 M302.53 154.12 C235.67 103.37, 172.49 47.91, 121.87 -1.91 M300.93 149.71 C238.43 90.16, 171.89 36.24, 126.52 -0.54 M302.21 148.66 C251.45 105.43, 198.62 60.34, 129.41 -1.01 M304.14 147.46 C268.66 114.94, 231.66 85.37, 135.31 -0.09 M302.02 145.09 C252.3 98.48, 203.85 53.69, 133.17 -2.16 M304.37 136.46 C242.72 91.17, 186.86 39.41, 143.15 -0.77 M302.89 139.63 C249.75 97, 200.25 53.81, 140.77 -1.52 M303.42 131.86 C258.47 95.8, 220.65 65.82, 145.16 2.12 M300.5 135.77 C265.39 104.76, 227.8 73.64, 147.02 -0.97 M297.86 126.35 C247.51 75.62, 186.31 26.67, 153.55 -0.49 M299.72 129.91 C244.75 78.51, 187.89 29.24, 151.36 0 M300.08 123.52 C264.41 84.6, 220.6 52.73, 159.03 2.49 M301.9 122.43 C270.2 95.88, 235.12 62.57, 160.44 0.83 M303.43 119.09 C271.49 89.63, 236.22 64.73, 168.79 -0.65 M299.7 119.4 C253.65 78.64, 204.39 37.27, 164.48 -2.32 M302.57 114.44 C253.46 72.1, 208.07 35.55, 172.8 -1.18 M301.77 112.47 C264.62 78.13, 229.26 46.72, 170.74 -1.29 M298.48 106.13 C269.44 80.18, 235.48 53.05, 177.26 0.96 M302.1 107.22 C265.81 72.39, 226 42.81, 175.9 -1 M303.41 106.33 C257.18 67.43, 216.75 31.73, 181.48 -2.45 M303.62 103.84 C265.04 69.21, 226.34 37.2, 183.63 -0.87 M297.68 100.65 C274.3 76.66, 251.45 49.77, 187.5 -1.4 M299.69 97.32 C271.32 70.5, 243.13 44.56, 188.86 0.11 M298.63 92.54 C283.02 70.96, 257.87 49.37, 197.21 -2.57 M301.77 90.15 C275.1 71.3, 250.33 46.78, 195.64 -1.26 M301.42 85.14 C270.73 57.38, 244.72 37.32, 205.48 -4.18 M300.89 84.48 C274.54 63.84, 251.66 43.09, 200.96 1.03 M299.95 77.69 C286.24 64.84, 261.18 42.16, 205.79 2.49 M303.24 82.85 C280.38 59.32, 258.05 39.62, 208.98 -0.96 M299.74 79.38 C265.7 48.93, 236.93 22.36, 211.11 -2.5 M299.75 76.33 C274.13 48.54, 245.47 24.74, 214.72 -0.43 M298.78 73.74 C268.83 39.78, 238.88 14.69, 219.48 2.75 M301.66 69.24 C277.29 50.46, 257.61 31.71, 218.25 1.02 M300.41 64.5 C277.02 45.36, 248.84 19.05, 223.21 3.14 M302.02 63.32 C279.65 45.17, 256.25 23.7, 224.58 -1.24 M302.21 55.97 C277.44 44.14, 262.23 27.84, 229.96 -0.42 M303.34 58.45 C281.85 40.71, 260.63 24.17, 233.45 0.57 M300.86 50.91 C281.99 31.49, 258.11 12.39, 240.34 -4.41 M303.07 52.78 C276.22 34.31, 253.16 9.88, 239.63 -2.55 M305.02 46.94 C288.63 36.44, 275.56 23.5, 240.85 -2.38 M301.24 47.47 C284.42 36.21, 268 18.23, 242.5 -1.64 M300.21 42.35 C290.03 32.39, 279.83 26.44, 253.45 1.63 M301.95 42.86 C290.24 36.37, 279.57 26.91, 250.36 1.01 M301.68 40.55 C295.67 32.66, 280.48 18.63, 252.72 -1.85 M300.98 39.13 C285.76 26.64, 275.25 12.74, 258.22 -0.72 M304.03 32.53 C295.36 25.94, 282.71 22.17, 262.95 -2.59 M300.1 33.21 C288.69 20.69, 275.01 12.28, 263.66 0.66 M298.34 30 C296.93 22.66, 283.9 15.5, 267.81 -4.19 M302.84 28.1 C292.21 22.53, 286.78 16.15, 269.08 -0.96 M301.31 22.48 C291.41 14.34, 282.42 9.74, 271.18 -3.65 M300.36 24.36 C294.11 12.73, 280.21 4.04, 273.34 -0.55 M300.84 19.82 C297.61 15.49, 286.64 3.55, 278.82 -0.85 M299.73 18.9 C296.3 12.44, 287.72 5.08, 281.98 -1.13 M304.98 12.55 C298.11 6.33, 296.43 8.55, 283.43 2.53 M301.51 11.67 C298.4 9.48, 291.93 3.62, 287.11 -0.37 M302.18 6.25 C301.13 5.17, 297.97 2.36, 293.57 -0.14 M302.48 7.38 C299.59 3.85, 296.03 1.54, 293.21 0.26 M302.49 2.17 C301.68 1.64, 300.83 1.43, 298.42 -0.81 M301.74 1.55 C301 0.58, 299.87 -0.17, 298.56 -1.22" stroke="#ffffff" stroke-width="0.5" fill="none"></path><path d="M2.45 1.35 C90.27 3.62, 184.09 5.6, 299.57 -0.74 M-1.24 1.18 C70.03 -0.01, 142.27 1.12, 302.76 1.38 M304.89 -3.33 C302.65 59.54, 301.48 125.56, 300.76 202.2 M299.78 1.09 C301.13 71.23, 304.04 143.72, 301.46 200.38 M298.9 199.4 C196.31 198.38, 85.67 201.56, -0.26 201.12 M300.95 200.73 C218.26 201.18, 136.75 198.86, -0.54 199.48 M-0.22 203.52 C1.83 141.19, -2.85 85.28, -3.14 -1.75 M-1.56 198.68 C3.29 125.97, 1.56 50.98, -1.09 1.46" stroke="#1e1e1e" stroke-width="1" fill="none"></path></g><g stroke-linecap="round"><g transform="translate(12.629698019623902 156.49248638260156) rotate(0 423.6028839917303 20.611549724430006)"><path d="M0.53 2.07 C28.33 -2.77, 80.83 -43.07, 164.08 -27.7 C247.33 -12.33, 386.3 98.49, 500.03 94.3 C613.75 90.11, 789 -27.92, 846.42 -52.85 M-2.63 0.73 C25.23 -3.82, 78.19 -40.34, 162.95 -24.44 C247.7 -8.54, 391.97 101.63, 505.91 96.12 C619.84 90.62, 789.52 -32.41, 846.57 -57.47" stroke="#9c36b5" stroke-width="4" fill="none"></path></g></g><mask></mask></svg>