<svg version="1.1" xmlns="http://www.w3.org/2000/svg" viewBox="0 0 876.6086175308897 379.4747534441045" width="876.6086175308897" height="379.4747534441045" filter="invert(93%) hue-rotate(180deg)">
  <!-- svg-source:excalidraw -->
  
  <defs>
    <style class="style-fonts">
      @font-face {
        font-family: "Virgil";
        src: url("https://excalidraw.com/Virgil.woff2");
      }
      @font-face {
        font-family: "Cascadia";
        src: url("https://excalidraw.com/Cascadia.woff2");
      }
      @font-face {
        font-family: "Assistant";
        src: url("https://excalidraw.com/Assistant-Regular.woff2");
      }
    </style>
    
  </defs>
  <g stroke-linecap="round" transform="translate(94.5614196008055 160.82024035409006) rotate(360.06059049582194 155.74288916463956 104.24493636831272)"><path d="M0.33 2.57 C109.05 0.09, 213.28 3.77, 310.94 -1.73 M1.11 -0.2 C92.5 3.06, 186.55 2.28, 310.62 0.82 M308.91 3.4 C312.42 49.01, 312.3 104.71, 309.89 210.41 M313.02 -0.39 C311.42 72.52, 311.01 147.33, 310 207.1 M311.06 208.06 C243.08 206.09, 173.75 206.6, -1.49 207.29 M310.96 208.04 C216.46 207.53, 118.41 207.59, -0.7 208.27 M2.78 211.54 C-2.38 153.67, 3.91 103.85, 0.76 0.92 M-0.58 209.92 C1.71 150.32, 1.09 90.8, -1.49 0.34" stroke="#1e1e1e" stroke-width="4" fill="none"></path></g><g stroke-linecap="round" transform="translate(60.560893086003034 27.818124789214835) rotate(360.06059049582194 155.74288916463956 104.24493636831272)"><path d="M0.36 2.67 C84.36 -1.78, 163.71 -1.25, 311.43 -2.14 M0.92 -0.35 C75.41 -0.83, 149.19 -1.03, 310.68 1.31 M314.88 3.23 C315.33 75.13, 313.43 149.01, 312.8 207.8 M312.72 -0.12 C312.4 64.03, 309.84 129.07, 310.65 207.91 M309.93 206.03 C247.33 209.81, 185.14 211.87, 0.57 208.27 M311.06 207.31 C244.91 207.23, 179.61 204.91, 1.14 208.94 M1.24 205 C2.83 132.64, 4.06 50.77, -0.81 -1.67 M1.58 210.18 C-2.68 154.01, -1.52 97.82, -0.24 0.12" stroke="#1e1e1e" stroke-width="4" fill="none"></path></g><g stroke-linecap="round" transform="translate(99.55969900993068 165.3029730813115) rotate(360.06059049582194 150.75611075355414 100.23224856353568)"><path d="M0 0 C0 0, 0 0, 0 0 M0 0 C0 0, 0 0, 0 0 M-1.27 5.46 C0.32 2.78, 2.68 0.39, 6.49 -0.72 M-0.19 6.16 C0.86 5.21, 3.7 2.26, 5.22 0.65 M1.01 14.66 C6.12 10.22, 5.71 4.69, 12.31 -2.97 M0.74 12.51 C1.14 10.9, 5.57 7.31, 10.47 -0.27 M-3.45 21.89 C3.01 14.14, 12.29 6.9, 15.96 0.01 M-1.82 17.31 C2.51 14.32, 8.69 7.56, 15.36 1.57 M3.93 20.18 C1.06 22.71, 11.62 10.55, 22.83 1.9 M-1.35 24.26 C5.48 17.03, 14.87 8.37, 21.63 -1.88 M-2.37 29.36 C4.15 22.68, 17.07 14.21, 27.32 -0.27 M1.97 29.08 C9.46 19.57, 16.11 9.04, 24.28 1.88 M-2.95 32.93 C9.78 23.96, 20.07 15.42, 29.35 -3.31 M0.68 36.82 C5.81 29.67, 13.11 20.18, 30.77 -1.78 M3.93 43.88 C15.69 26.94, 26.84 10.04, 36.69 2.34 M-0.43 41.8 C7.92 32.43, 17.92 24.05, 35.16 -1.15 M-0.47 45.8 C13.2 31.62, 29.47 14.84, 41.31 1.48 M1.24 49.5 C7.8 40.04, 19.69 25.71, 40.83 1.4 M0.27 58.52 C14.92 41.23, 26.84 22.29, 45.27 3.02 M0.09 52.77 C15.3 36.58, 29.84 18.09, 46.66 -1.01 M3.68 58.98 C20.01 42.01, 34.68 14.2, 53.09 0.83 M0.49 61.45 C15.66 44.29, 29.74 28.46, 53.67 -0.25 M-3.91 70.83 C19.13 38.94, 37.53 14.29, 57.6 -1.35 M-1.16 66.69 C16.69 48.02, 37.69 26.63, 59.29 0.46 M-2.23 73.59 C20.95 43.32, 43.38 19.89, 64.35 2.94 M1.05 74.71 C23.82 45.39, 47.31 15.79, 63.97 -1.99 M0.12 75.76 C18.02 53.49, 41.21 32.92, 69.48 -0.22 M-2.04 78.68 C27.42 47.88, 51.59 21.01, 69.42 -0.92 M1.37 88.45 C21.16 59.57, 42.1 39.09, 76.09 3.72 M1.42 84.98 C26.29 56.69, 49.09 26.76, 73.26 -0.41 M-3.55 90.23 C28.69 62.05, 47.89 31.31, 80.08 2.67 M0.44 92.77 C23.89 67.67, 46.94 37.86, 79.25 -1.67 M-3.28 96.8 C30.16 60.58, 68.51 22.32, 86.59 -1.23 M1.26 96.35 C30.48 61.65, 62.3 24.6, 83.92 0.52 M-0.88 106.08 C26.26 74.61, 45.41 44.75, 87.83 1.26 M-1.22 104.89 C25.72 77.45, 45.33 50.12, 90.82 -0.65 M-0.67 111.34 C28.46 74.8, 53.3 47.28, 95.47 3.36 M-1.94 108.33 C37.36 68.89, 71.6 30.18, 97.17 -0.46 M-0.5 118.83 C30.94 83.94, 54.39 59.16, 102.51 -0.84 M0.32 113.62 C20.19 92.82, 42.4 67.42, 100.03 -1.08 M2.08 124.67 C26.26 88.14, 55.53 59.78, 107.66 0.46 M1.17 122.34 C27.17 91.81, 53.15 60.48, 107.06 0 M1.59 124.46 C40.82 84.67, 82.38 37.99, 109.2 -2.32 M0.6 126.97 C29.64 90.26, 64.01 55.03, 110.61 -0.5 M-2.23 134.38 C37.98 81.45, 78.82 37.65, 112.72 1.48 M0.46 132.7 C41.89 88.75, 83.32 40.67, 117.84 0.68 M-3.29 136.37 C23.92 108.44, 56.86 78.95, 120.28 -0.16 M-0.05 141.31 C30.16 107.47, 58.36 72.94, 120.14 -0.83 M-1.44 147.7 C46.32 91.11, 95.61 42.15, 123.53 -0.75 M-0.37 145.39 C34.3 104.4, 65.11 70.04, 128.59 -1.24 M3.12 153.74 C53.98 89.18, 104.93 32.31, 131.58 -1.52 M1.44 152.01 C42.76 105.35, 87.73 54.03, 133.87 1.52 M-0.69 161.91 C44.28 100.09, 95 46.48, 136.43 0.54 M1.36 160.55 C45.89 104.43, 97.2 48.04, 139.03 0.32 M2.21 163.47 C51.37 100.98, 107.92 46.49, 141.95 3 M0.25 164.18 C40.6 122.23, 78.96 75.17, 143.5 -1.31 M-0.09 167.87 C46.59 116.88, 88.19 68.41, 145.59 2.73 M0.82 172.42 C45.08 119.46, 92.95 65.87, 147.33 -0.51 M3.21 174.92 C25.91 141.65, 60.23 102.46, 156.94 -0.55 M-0.37 175.83 C55.55 116.98, 106.36 57.04, 152.13 -1.15 M-1.68 183.73 C34.13 145.09, 63.75 112.45, 161.15 0.36 M-1.29 182.79 C54.52 119.24, 111.58 53.37, 160.44 0.48 M1.4 186.78 C50.54 131.37, 98.22 78.13, 164.37 3.05 M0.84 188.19 C60.15 118.28, 118.61 49.64, 163.91 -0.94 M2.29 194.12 C50.68 138.9, 102.82 80.31, 170.3 1.14 M0.85 195.51 C41.85 141.99, 86.99 90.62, 169.17 0.94 M-0.62 201.03 C64.57 126.39, 128.8 57.67, 172.04 0.05 M1.85 199.93 C66.49 121.56, 135.28 42.66, 175.99 1.2 M4.64 202.63 C69.94 131.49, 130.01 61.81, 181.51 2.33 M5.03 199.84 C59.96 139.11, 111.3 77.68, 180.11 0.91 M13.44 202.23 C63.9 137.7, 121.77 78.14, 183.12 -2.01 M9.83 201.05 C53.02 152.9, 98.43 101.89, 184.22 0.54 M15.04 200.78 C78.25 132.27, 134.69 61.04, 187.95 1.16 M15.12 200.5 C73.32 139.63, 124.78 77.77, 190.68 0.91 M20.4 202.33 C74.91 140.19, 128.45 80.41, 194.1 2.14 M20.39 200.14 C75.18 138.09, 131.6 76.39, 196.88 0.03 M24.53 203.36 C76.69 144.92, 129.26 91.81, 202.82 -2.25 M26.33 200 C68.93 153.16, 109.97 107.09, 200.59 0.34 M33.28 198.5 C91.56 126.79, 145.81 63.9, 204.12 0.27 M31.77 199.68 C70.49 161.08, 106.86 121.29, 207.91 -0.84 M38.34 201.49 C85.2 145.88, 135.17 83.89, 211.94 -1.71 M37.44 200.89 C100.66 129.25, 161.87 59.44, 213.4 -0.85 M44.02 200.29 C98.47 140.25, 153.77 82.09, 218.08 -2.75 M42.89 199.51 C87.05 149.04, 129.22 96.5, 217.46 -1.27 M48.55 203.4 C112.14 132.54, 177.36 59.17, 221.11 -0.75 M47.1 200.72 C101.37 140.6, 157.06 78.03, 222.27 -0.62 M51.26 201.97 C97.41 146.02, 143.57 99.29, 230.85 -0.68 M54.24 202.34 C92.64 151.65, 134.79 103.68, 227.11 -0.74 M56.15 199.71 C98.64 157.2, 135.38 116.17, 234.05 -3.14 M58.59 199.91 C101.7 155.48, 142.31 107.08, 233.68 0.44 M66.13 201.59 C123.44 127.97, 185.23 56.75, 236.13 -1.03 M62.67 199.65 C109.8 150.08, 156.91 96.43, 237.67 0.17 M67.92 198.18 C107.4 153.87, 152.47 107.8, 242.82 2.88 M68.74 200.2 C112.84 153.5, 155.36 104.84, 243.69 0.66 M73.54 202.42 C129.98 131.82, 188.97 65.16, 251.12 0.43 M74.72 199.9 C124.65 145.45, 174.51 89.48, 250.22 1.53 M80.62 201.58 C130.76 142.88, 188.39 79.4, 256.36 -2.76 M78.98 199.88 C135.92 138.98, 194.76 73.83, 255.36 -1.09 M82.23 200.37 C137.23 143.65, 186.96 87.66, 258.94 2.03 M85.67 201.86 C148.27 131.7, 211.68 60.49, 260.59 0.63 M90.45 198.19 C130.31 157.69, 168.35 110.09, 265.67 0.72 M90.64 201.74 C133.49 151.21, 177.04 100.65, 264.53 -0.71 M95.63 200.6 C135.71 162.88, 172.51 116.34, 271.25 2.68 M96.19 200.06 C165.95 121.38, 232.17 44.66, 269.88 0.08 M102.56 202.93 C140.15 153.64, 183.08 106.2, 278.59 2.21 M100.17 201.94 C150.13 140.79, 201.61 85.51, 277.17 0.14 M108.75 201.71 C147.88 151.28, 191.76 101.32, 280.23 -0.53 M107.6 202.21 C143.5 154.53, 181.93 111.03, 282.22 0.62 M108.93 203.6 C166.71 139.36, 219 75.53, 285.03 -0.12 M113.39 201.14 C156.95 146.05, 203.41 93.01, 285.69 -1.31 M117.62 198.89 C169.4 133.82, 226.15 73.98, 293.28 -2.86 M117.16 202.29 C176.29 131.74, 231.93 67.69, 290.56 -0.44 M123.08 201.98 C177.87 141.33, 231.26 75.83, 298.08 -2.07 M121.76 199.72 C178.47 133.96, 236.8 68.27, 295.83 -0.95 M128.8 199.7 C167.63 158.44, 208.47 111.86, 304.65 -1.4 M125.96 201.14 C181.54 139.33, 237.05 75.45, 303.53 -1.3 M132.74 197.97 C197.33 127.64, 263.05 55.66, 300.62 3.93 M132.43 199.33 C195.24 129.46, 260.12 56.68, 300.14 7.89 M137.22 202.04 C205.99 126.67, 271.58 52.47, 300.65 13.9 M137.32 201.72 C172.14 163.71, 206.17 122.65, 301.74 11.6 M140.75 199.26 C197.55 134.65, 256.43 68.93, 299.59 17.01 M144.6 201.52 C176.92 160.91, 209.91 123.2, 302.38 17.67 M148.41 203.58 C196.49 144.97, 240.15 91.77, 300.1 27.85 M148.99 201.1 C208.2 130.29, 270.58 62.63, 301.9 23.4 M156.46 198.9 C208.94 139.2, 258.07 82.29, 300.1 29 M153.89 199.2 C209.79 136.1, 266.54 72.67, 302.05 32.24 M155.88 197.81 C197.67 163.02, 228.61 118.69, 303.58 35.87 M160.92 201.78 C197.41 160.08, 233.73 116.46, 300.74 38.69 M164.36 198.37 C198.92 165.03, 229.65 131.6, 300.34 43.4 M163.44 202.51 C214.49 142.74, 263.64 87.86, 301.24 41.27 M171.47 198.74 C199.8 167.27, 228.5 136.36, 301.7 47.61 M170.22 200.02 C218.06 145.66, 264.91 92.6, 303.08 48.66 M177.82 202.26 C213.34 166.14, 243.64 126.75, 298.54 53.55 M175.02 200.06 C225.88 139.71, 278.19 82.26, 300.47 54.46 M180 203.54 C226.55 149.84, 273.08 91.5, 302.59 59.72 M179.9 201.5 C206.53 167.7, 235.57 133.56, 301.96 60.67 M189.57 204.55 C221.61 160.46, 259.68 117.76, 300.84 64.84 M186.52 200.29 C231.99 147.59, 277.02 92.97, 299.74 66.21 M192.64 200.17 C214.36 173.97, 234.27 147.3, 299.15 74.36 M190.56 201.63 C214.17 173.76, 239.33 148.3, 300.82 73.29 M199.91 202.93 C224.21 179.33, 245.33 150.66, 304.07 81.26 M195.94 201.44 C223.74 168.88, 250.61 138.77, 303.42 78.89 M199.04 203.81 C238.04 162.07, 270.95 118.32, 302.59 87.61 M201.51 201.96 C225.04 175.35, 246.12 150.28, 300.95 85.1 M204.5 197.15 C225.1 177.76, 247.71 153.08, 303.29 89.68 M207.23 201.25 C244.56 159.22, 281.29 116.56, 301.51 90.91 M209.99 197.54 C244.98 162.91, 277.99 124.86, 301.45 99.14 M212.87 200.8 C239.68 168.09, 266.41 138.62, 301.35 98.08 M214.29 200.66 C247.1 166.54, 276.31 128.29, 302.85 104.61 M216.18 199.08 C245.03 163.43, 278.09 129.63, 302.87 103.37 M221.62 200.15 C248.59 166.25, 279.5 131.2, 301.57 112.58 M223.6 199.11 C255.75 165.05, 284.39 127.77, 300.86 108.16 M227.54 204.56 C242.62 181.77, 263.65 157, 303.77 117.03 M228.43 201.99 C243.45 185.13, 260.41 165.37, 300.51 114.76 M235.33 198.12 C253.91 183.79, 270.33 164.48, 300.79 120.51 M233.53 202.51 C252.85 175.63, 274.98 151.73, 302.86 120.17 M241.84 197.68 C259.03 174.16, 281.95 147.06, 302.35 127.33 M237.47 202.67 C262.47 170.91, 287.47 143.36, 300.29 127.97 M245.88 197.58 C264.58 176.85, 291.07 148.14, 300.24 133.15 M245.3 199.27 C260.04 181.17, 279.58 158.62, 300.54 134.57 M250.08 202.51 C259.35 191.25, 268.62 171.34, 298.23 137.87 M250.63 201.47 C258.82 187.01, 271.86 175.1, 302.92 140.81 M253.29 204.39 C267.98 179.19, 286.96 166.32, 299.73 143.21 M254.41 202.33 C266.05 190.76, 274.93 177.67, 302.29 146.25 M260.45 199.25 C272.4 189.81, 285.87 168.99, 301.02 153.92 M259.07 200.4 C275.42 182.64, 292.3 166.17, 300.61 152.99 M266.94 204.08 C278.82 188.08, 294.53 171.22, 304.33 158.81 M267.21 199.27 C271.14 192.32, 279.04 183.43, 300.32 159.5 M268.49 201.75 C279.43 186.02, 291.65 177.05, 301.64 164.44 M271.81 201.13 C277.56 193.76, 287.91 181.48, 302.44 164.88 M277.5 197.85 C289.4 192.67, 290.91 179.96, 300.47 172 M274.89 202.33 C284.84 189.93, 291.08 181.36, 300.71 170.51 M285.01 197.59 C288.58 193.27, 287.17 187.85, 299.68 178.86 M281.71 198.96 C285.82 194.69, 292.38 190.05, 299.65 176.27 M284.3 199.39 C290.42 200.85, 293.18 193.1, 302.54 183.79 M286.82 199.16 C288.81 195.5, 294.71 192.4, 300.02 182.39 M292.09 200.2 C292.05 199.33, 293.81 194.74, 301.93 188.36 M291.58 200.86 C294.16 195.45, 299.03 192.36, 302.16 189.34 M295.71 202.17 C298.2 200.7, 301.03 199.5, 301.38 194.18 M296.2 200.59 C297.78 199.75, 299.97 197.47, 302.36 195.4" stroke="#1e1e1e" stroke-width="0.5" fill="none"></path><path d="M2.55 -2.11 C97.15 1.32, 188.97 0.39, 304.2 2.41 M1.11 -0.29 C69.19 4.06, 140.14 2, 302.25 0.24 M299.53 0.82 C308.3 73.96, 308.04 153.1, 303.47 203.98 M301.91 -0.41 C301.52 57.02, 302.07 111.02, 303.25 200.02 M301.19 199.87 C209.33 201.78, 123.96 201.67, -2.25 202.46 M301.08 200.26 C213.19 199.52, 124.96 200.61, -0.33 199.49 M0.43 198.52 C2.22 150.84, 4.7 91.93, -2.42 -2.98 M-1.64 198.76 C0.19 156.04, 1.76 115.21, -1.72 -0.41" stroke="#1e1e1e" stroke-width="1" fill="none"></path></g><g stroke-opacity="0.7" fill-opacity="0.7" stroke-linecap="round" transform="translate(69.18871275242054 35.100562472353204) rotate(360.06059049582194 148.7571693753182 98.23119217839928)"><path d="M-0.47 0.99 L296.79 1.5 L301.02 197.88 L-0.35 199.84" stroke="none" stroke-width="0" fill="#ffffff"></path><path d="M2.47 1.36 C89.06 3.61, 181.71 5.61, 295.56 -0.75 M-1.25 1.19 C69.08 -0.02, 140.4 1.12, 298.78 1.39 M301.27 -3.71 C298.82 58.15, 297.53 123.52, 296.68 198.39 M295.59 1.21 C297.07 69.69, 300.31 140.79, 297.46 196.36 M294.88 195.38 C193.74 194.37, 84.49 197.58, -0.26 197.12 M296.94 196.73 C215.35 197.2, 134.93 194.85, -0.55 195.46 M-0.24 199.86 C2.04 137.95, -3.16 83.18, -3.49 -1.94 M-1.73 194.48 C3.58 123.46, 1.66 49.91, -1.21 1.62" stroke="transparent" stroke-width="1" fill="none"></path></g><g stroke-linecap="round" transform="translate(535.8151302912129 63.62725507112759) rotate(270.38057368141716 149.73305820074074 96.74510181646019)"><path d="M2.4 1.33 C94.88 -1.79, 190.43 -1.33, 297.36 -1.3 M0.92 -0.22 C109.08 -3.8, 219 -5.14, 300.62 -0.15 M296.06 2.14 C302.07 60.57, 299.64 130.98, 302.65 195.02 M301.42 -1.28 C299.93 38.31, 301.05 78.92, 300.76 192.72 M301.42 191.76 C179.31 195.91, 62.89 193.9, 0 193.26 M300.26 192.09 C228.16 190.38, 159.19 189.9, -0.11 192.21 M-0.26 191.86 C-5.11 119.42, -4 46.72, 2.36 2.79 M-1.87 194.76 C0.66 138, 0.7 85.05, 0.08 0.19" stroke="#1e1e1e" stroke-width="4" fill="none"></path></g><g stroke-linecap="round" transform="translate(389.0162724966963 103.27770087265435) rotate(270.38057368141716 147.74306564266362 104.24493636831272)"><path d="M-1.45 -2.59 C81.2 -4.1, 164.74 -3.3, 297.43 -1.33 M-0.45 0.24 C115.78 -0.43, 232.79 0.52, 295.97 -0.06 M297.93 -3.38 C292.62 53.54, 295.15 104.52, 291.95 210.05 M294.39 -0.36 C298.99 48.9, 300.25 94.51, 297.21 208.26 M294.36 208.08 C189.38 203.47, 80.25 205.67, -1.91 207.95 M294.71 209.07 C232.42 204.41, 167.63 203.02, 1.3 209.3 M-2.65 209.38 C-1.43 158.9, 2.33 105.8, -0.83 -0.36 M0.24 206.72 C3.73 152.77, 3.53 99.8, 0.67 1.69" stroke="#1e1e1e" stroke-width="4" fill="none"></path></g><g stroke-linecap="round" transform="translate(536.2490386631948 71.57453182866777) rotate(270.38057368141716 147.26283017763467 91.2556948536195)"><path d="M0 0 C0 0, 0 0, 0 0 M0 0 C0 0, 0 0, 0 0 M-0.57 4.88 C1.47 3.79, 3.44 3.19, 5.07 0.44 M-0.07 6.18 C1.7 4.51, 2.64 4.26, 5.3 0.64 M-1.33 11.72 C6.23 5.67, 10.18 5.92, 11.69 -2.61 M-1.29 13.11 C2.42 6.4, 7.51 4.62, 9.26 -0.25 M1.39 17.97 C7.82 14.46, 8.79 3.76, 17.16 3.07 M-0.35 19.2 C3.28 15.8, 6.51 10.84, 16.91 -0.07 M2.84 22.98 C9.75 14.31, 12.26 6.94, 20.59 -1.85 M-1.55 24.82 C5.23 17.39, 13.55 9.28, 20.42 -1.75 M-0.55 31.14 C7.15 19.77, 15.47 14.5, 27.63 -1.66 M-1.26 30.56 C6.88 19.11, 17.59 11.35, 27.05 -0.39 M-0.76 38.39 C4.82 32.33, 14.1 21.9, 30.87 1.34 M1.49 36.46 C6.02 29.99, 14.91 18.87, 31.37 -0.34 M3.79 40.02 C11.64 27.84, 25.99 13.42, 33.24 1.82 M-0.46 40.72 C14.23 26.33, 26.74 10.85, 36.51 0.88 M2.69 50.56 C15.66 36.87, 21.95 19.8, 45.62 -0.96 M-1.53 48.17 C10.82 37.19, 19.85 24.85, 44.22 -1.2 M2.48 56.1 C8.09 42.52, 19.79 27.68, 46.01 -3.5 M1.92 53.17 C16.45 38.1, 30.21 22.4, 48.42 2.21 M1.8 62 C20.94 38.88, 43.79 13.71, 57.1 1.53 M1.23 59.83 C11.61 42.93, 26.85 29.91, 53.24 -0.72 M-3.64 69.17 C22.16 44.05, 48.35 15.01, 57.43 0.96 M0.82 68.91 C20.54 43.45, 39.28 21.89, 58.65 1.83 M-2.68 70.01 C21.43 51.51, 40.02 24.53, 67 0.67 M-0.96 74.27 C23.32 46.32, 47.94 19.59, 62.46 -0.58 M-2.29 80.3 C21.79 57.05, 44.37 29.72, 66.41 1.32 M-1.01 81.36 C14.15 61.69, 28.25 45.4, 69.89 -0.35 M-2.59 87.5 C28.44 51.19, 57.49 13.92, 74.47 -2.13 M-0.05 84.05 C28.54 55.11, 52.7 25.92, 75.68 -1.76 M-1.74 94.43 C14.62 65.11, 36.12 47.42, 83.32 3.28 M0.94 90.93 C23.97 62.05, 51.37 31.08, 77.59 -0.68 M-2.98 99.64 C29.83 66.96, 63.62 31.94, 88.07 0.09 M0.13 98.18 C34.35 58.09, 63.83 20.92, 86.51 1.51 M-0.19 105.27 C23.97 71.71, 48.96 42.97, 93.93 -3.91 M1.65 104.02 C28.82 70.54, 59 37.61, 91.99 -1.8 M0.5 112.94 C23.97 80.11, 56.46 50.1, 97.82 -0.12 M0.5 109.15 C23.18 83.02, 46.81 56.92, 96.33 -0.31 M1.65 116.1 C27.02 90.25, 49.03 57.65, 103.49 -3.43 M-0.12 115.71 C24.75 86.8, 49.27 59.81, 100.11 1.39 M-2.33 123.71 C26.54 87.94, 48.53 58.29, 103.17 3.33 M0.81 123.43 C21.35 94.78, 45.56 70.2, 108.29 -2.01 M-4.2 128.54 C37.07 81.82, 73.76 39.08, 108.66 -2.9 M-0.5 128.58 C31.44 92.48, 65.12 53.39, 111.74 -0.32 M2.46 135.1 C28.37 103.9, 59.12 72.48, 116.34 2.87 M0.23 132.43 C43.86 85.56, 85.88 33.29, 116.68 -0.93 M-2.29 143.49 C52.47 85.41, 101.75 31.61, 125.54 1.62 M-1.86 139.67 C28.53 108.73, 53.33 76.75, 121.47 -0.4 M0.21 145.78 C48.74 94.19, 96.77 33.13, 128.97 2.19 M-1.29 147.31 C34.65 105.07, 67.57 64.45, 127.52 2.04 M-1.51 153.53 C29.85 114.54, 60.9 79.41, 129.98 -2.13 M1.12 151.12 C37.81 107.61, 70.68 68.2, 130.85 1.23 M-0.85 162.31 C46.85 103.48, 88.48 54.41, 136.33 0.79 M-1.5 157.82 C36.23 119.61, 68.63 81.68, 136.78 0.94 M2.29 161.11 C35.01 127.35, 74.94 82.42, 140.46 0.18 M-1.13 164.46 C53.58 106.72, 106.62 47.14, 141.67 0.84 M-2.95 170.45 C46.34 115.35, 89.23 66.62, 150.71 2.78 M-0.08 170.66 C42.46 118.73, 84.61 72.29, 146.67 0.1 M0.93 178.96 C36.88 136.01, 66.54 94.4, 151.5 -0.02 M1.82 176.78 C47.47 126.09, 90 75.32, 154.61 0.05 M3.1 186.1 C38.32 141.84, 70.76 102.47, 160.2 -0.67 M0.95 181.49 C38.02 143.14, 72.79 102.61, 158.82 0.02 M3.26 181.03 C53.94 124.52, 104.01 65.21, 161.25 -0.73 M4.46 183.31 C60.51 121.45, 115.7 58.97, 164.32 0.03 M13.55 181.1 C69.91 114.05, 134.34 44.19, 168.51 0.16 M11.4 183.26 C66.98 119.43, 125.65 55.25, 169.68 0.24 M13.62 179.37 C64.27 125.74, 114.12 69.12, 174.12 -0.48 M17.91 180.83 C58.72 129.85, 103.05 78.13, 174.65 0.03 M23.42 184.56 C86.84 107.21, 147.78 32.88, 176.81 2.74 M22.31 181.21 C73.98 122.43, 131.5 55.84, 178.98 0.94 M29.06 179.83 C77.31 123.59, 131.68 60.34, 184.11 -1.51 M27.74 182.74 C88.66 111.01, 149.85 41.56, 186.62 -0.93 M34.36 183.27 C69.37 138.5, 106.89 95.89, 187.53 2.58 M32.56 181.51 C90.8 115.31, 152.43 47.22, 191.22 1.25 M39.78 180.19 C97.66 114.1, 154.84 47.56, 197.99 0.22 M36.29 182.03 C98.13 111.09, 163.21 40.1, 196.96 0.93 M40.89 183.56 C103.99 108.9, 166.39 40.12, 201.01 3.14 M43.33 181.83 C102.18 109.67, 165.34 40.63, 200.74 0.9 M47.14 179.55 C97.8 129.5, 148.28 71.79, 205.48 -1.54 M48.99 182.25 C98.8 121.19, 153.3 58.95, 206.36 -0.82 M53.69 181.42 C100.74 124.13, 152.4 73.43, 212.12 -0.79 M53.13 182.92 C86.73 140.78, 118.74 102.66, 213.34 -1.48 M60.31 181.63 C104.17 125.82, 150.34 72.49, 215.74 -0.17 M59.49 182.59 C113.26 122.75, 166.06 64.59, 217.82 -1.18 M63.05 185.8 C114.54 119.18, 172.04 55.69, 220.24 0.15 M62.78 183.62 C108.52 127.69, 155.4 74.12, 221.32 0.03 M65.81 185.55 C104.82 140.39, 134.61 102.95, 227.52 0.67 M67.25 183.56 C129.82 113.13, 192.43 41.72, 228.34 1.24 M75.37 182.01 C112.2 136.91, 149.06 97.71, 232.59 0.04 M73.75 182.55 C122 127.4, 174.36 68.38, 231.79 0.28 M79.82 186.15 C141.72 113.42, 206.03 44.79, 238.42 -2.31 M78.47 182.38 C139.02 114.71, 201 48.58, 236.58 0.11 M83.33 181.58 C115.95 146.35, 155.12 105.67, 240.99 0.86 M86.49 183.07 C147.45 113.88, 207.57 42.78, 245 1.38 M87.92 181.82 C136.41 135.68, 181.77 78.14, 250.88 1.57 M90.6 182.41 C138.24 126.73, 182.81 74.65, 250.46 -0.18 M95.72 185.7 C143.88 128.85, 192.8 74.79, 251.72 2.6 M95.47 181.67 C139.72 127.98, 187.44 76.41, 256.04 1.05 M97.41 181.47 C158.89 109.92, 226.69 37.54, 258.27 -1.67 M99.85 181.89 C163.85 112.47, 223.47 42.28, 258.3 1.86 M107.61 181.92 C141.34 141.97, 170.74 105.03, 262.3 -0.1 M107.42 182.92 C170.56 111.45, 228.94 43.07, 266.48 0.93 M113.5 182.01 C164.93 111.81, 229.98 46.05, 270.73 2.77 M112.27 182.99 C148.18 144.09, 181.91 104.55, 269.69 0.07 M116.9 180.69 C151.18 139.95, 183.63 97.11, 278.08 -1.36 M116.44 181.16 C170.07 126.87, 221.06 68.66, 276.04 -1.72 M122.66 184.98 C170.58 126.82, 212.49 74.55, 278.03 2.75 M122.06 183.48 C185.05 110.69, 245.52 39.76, 279.87 -0.32 M127.66 185.41 C176.07 124.12, 231.66 60.56, 289 -0.62 M128.91 182.16 C179.22 119.18, 235.94 55.22, 287.56 0.91 M135.78 179.93 C184.93 118.93, 245.04 52.04, 292.71 2.37 M133.22 181.72 C173.59 132.04, 215.46 81.96, 291.41 -0.95 M140.21 182.56 C188.2 125.82, 245.62 65.69, 298.19 2.15 M138.55 181.46 C200.59 115.98, 259.45 46.24, 294.11 0.48 M145.09 180.92 C175.21 140.81, 214.74 98.59, 294.33 5.51 M144.61 181.65 C173.22 143.56, 205.55 107.21, 296.63 8.1 M147.67 184.9 C188.81 135.37, 224.86 95.55, 293.31 15.92 M148.03 182.71 C200.72 126.66, 249.68 69.33, 295.28 13.38 M153.8 183.54 C203.2 131.33, 248.48 77.23, 298.73 18.08 M154.86 181.15 C204.16 122.58, 253.47 66.97, 295.02 18.87 M159.5 181.12 C212.54 125.73, 261.69 64.48, 293.81 27.8 M160.86 182.63 C189.44 150.28, 215.65 117.49, 295.97 25.37 M166.71 180.89 C199.85 140.51, 230.15 98.26, 292.24 33.29 M163.99 183.97 C194.56 147.42, 224.46 116.01, 297.2 32.44 M171.36 179.96 C199.46 146.23, 233.29 115.14, 294.25 36.55 M168.83 182.79 C217.75 125.57, 266.24 71.86, 294.7 36.55 M171.84 181.32 C197.9 151.79, 226.54 120.71, 292.19 40.04 M175.59 183.94 C215.75 137.6, 256.34 90.7, 297.57 43.26 M180.49 180.98 C223.07 138.62, 261.1 91.37, 297.45 46.9 M178.2 181.39 C215.7 141.82, 252.35 101.03, 295.06 50.68 M188.73 184.78 C208.06 154.37, 229.22 129.31, 296.5 56.34 M187.68 184.03 C231.18 134.44, 273.13 85.37, 296.53 57.6 M193.74 180.02 C227.77 141.52, 260.73 97.75, 296.96 63.68 M188.83 184.22 C220.18 150.81, 246.57 116.44, 294.49 61.98 M195.41 183.86 C232.51 137.42, 274.69 90.51, 296.51 64.68 M197.72 180.73 C223.62 152.98, 246.61 125.04, 296.01 69.88 M203.46 186.91 C225.44 158.33, 246.21 125.37, 294.07 75.23 M203.2 182.97 C241.11 138.56, 276.27 93.48, 294.25 73.65 M203.07 184.9 C239.31 150.63, 263.17 118.73, 298.73 79.69 M205 181.11 C226.96 157.33, 247.23 133.16, 295.91 80.88 M210.04 186.28 C241.68 148.61, 271.17 115.97, 296.17 86.73 M211.24 182.34 C229.35 165.49, 247.37 145.04, 296.03 84.84 M220.35 179.82 C245 146.68, 277.32 110.01, 299.08 93.3 M216.57 180.96 C243.9 153.47, 272.42 121.82, 294.87 92.89 M225.35 182.31 C249.2 154.27, 272.95 125.72, 296.09 100.9 M223.65 182.7 C246.56 156.48, 267.26 130.76, 295.29 97.44 M225.32 182.09 C253.56 157.58, 272.56 130.31, 298.94 107.28 M229.28 182.79 C244.65 162.66, 263.83 141.68, 296.35 104.14 M236.67 186.76 C253.02 157.57, 274.85 130.88, 299.42 114.77 M233.92 182.19 C253.84 160.01, 271.99 138.18, 294.64 110.8 M241.49 182.75 C255.09 165.07, 269.72 151.6, 295.79 118.18 M239.76 181.8 C260.74 157.85, 283.51 131.52, 297.23 115.84 M242.74 182.96 C255.89 168.42, 263.71 157.83, 299.18 120.69 M244.31 182.63 C257.96 165.9, 277.33 147.66, 296.42 124.73 M245.82 186.39 C266.54 162.92, 275.74 151.07, 294.55 130.15 M250.42 183.96 C268.37 162.67, 284.68 142.21, 297.2 126.92 M257.72 185.77 C264.56 165.09, 278.09 147.88, 291.84 138.82 M255.88 183.58 C269.83 168.3, 281.37 150.43, 296.79 134.03 M260.68 183.17 C277.01 165.26, 287.85 150.54, 294.92 143.63 M259.45 183.92 C272.76 167.68, 286.82 153.2, 296.06 140.78 M267.23 181.65 C278.37 168.08, 291.23 157.09, 291.99 146.13 M266.45 184.3 C274.94 170.39, 289.56 154.91, 294.35 147.43 M269.89 184.83 C279.61 176.32, 278.75 166.15, 298 156.36 M270.82 183.06 C278.37 175.67, 283.8 171.35, 294.34 152.27 M272.29 180.59 C282.9 172.63, 285.47 166.32, 295.63 161.17 M276.65 181.79 C281.94 173.11, 291.07 166.49, 295.46 158.43 M278.73 180.64 C285.62 181.55, 286.88 176.53, 298.37 163.92 M280.28 183.48 C285.95 179.47, 287.74 173.38, 295.42 166.23 M285.69 180.93 C291.58 180.04, 295.28 176.75, 298.35 169.79 M287.41 181.33 C288.56 180.22, 293.47 175.34, 295.62 172.02 M292.02 182.76 C292.82 180.11, 294.39 178.89, 296.92 177.39 M291.84 182.95 C293.17 181.84, 292.83 181.05, 295.31 177.32" stroke="#1e1e1e" stroke-width="0.5" fill="none"></path><path d="M-2.24 -2.13 C99.55 2.5, 205.3 2.48, 297.26 1.87 M-0.04 -1.11 C85.01 -0.86, 168.18 -0.77, 293.74 -1.27 M294.85 2.2 C300.22 66.04, 293.04 130.78, 291.66 186.43 M294.4 1.47 C293.55 42.26, 294.21 85.8, 295.81 183.84 M296.04 180.07 C223.52 181.67, 150.6 181.37, -2.49 184.11 M295.33 182.61 C234.16 182.94, 175.33 185.04, -0.71 182.41 M-1.88 185.89 C5.09 137.97, 1.79 87.43, -1.56 -3.75 M0.3 181.05 C-0.41 116.39, 0.27 51.79, 0.41 -0.28" stroke="#1e1e1e" stroke-width="1" fill="none"></path></g><g stroke-opacity="0.7" fill-opacity="0.7" stroke-linecap="round" transform="translate(396.27321667190563 108.65641198658045) rotate(270.38057368141716 141.7573237935892 98.23119217839928)"><path d="M1.38 -0.38 L283.39 -3.01 L284.58 194.4 L-3.17 196.93" stroke="none" stroke-width="0" fill="#ffffff"></path><path d="M-2.18 -1.35 C62.29 1.72, 123.38 5, 283.05 -0.92 M1.19 -0.16 C90.16 3.16, 178.53 1.92, 284.33 1.05 M286.69 1.53 C279.83 41.95, 280.96 84.28, 280.95 193.98 M284.81 -0.77 C285.22 54.65, 284.56 111.17, 282.34 195.7 M283.52 196.22 C200.4 192.36, 118.67 194.55, -2.9 194.88 M283.4 195.13 C188.65 197.59, 90.38 196.65, -0.62 195.32 M2.36 199.26 C0.91 132.19, 0.29 64.99, 2.53 0.54 M0.08 196.65 C0.16 159.03, -0.18 117.51, 1.55 0.18" stroke="transparent" stroke-width="1" fill="none"></path></g><g stroke-linecap="round"><g transform="translate(12.629698019623902 149.69600055728893) rotate(0 423.6028839917303 20.611549724430006)"><path d="M0.53 2.07 C28.33 -2.77, 80.83 -43.07, 164.08 -27.7 C247.33 -12.33, 386.3 98.49, 500.03 94.3 C613.75 90.11, 789 -27.92, 846.42 -52.85 M-2.63 0.73 C25.23 -3.82, 78.19 -40.34, 162.95 -24.44 C247.7 -8.54, 391.97 101.63, 505.91 96.12 C619.84 90.62, 789.52 -32.41, 846.57 -57.47" stroke="#9c36b5" stroke-width="4" fill="none"></path></g></g><mask></mask><g stroke-linecap="round"><g transform="translate(13.877599918316719 147.4054208270761) rotate(0 423.6028839917303 20.611549724430006)"><path d="M0 0 C27.01 -4.5, 78.42 -43.12, 162.05 -27.01 C245.68 -10.9, 387.59 101.4, 501.78 96.66 C615.98 91.92, 789.64 -30.09, 847.21 -55.44 M0 0 C27.01 -4.5, 78.42 -43.12, 162.05 -27.01 C245.68 -10.9, 387.59 101.4, 501.78 96.66 C615.98 91.92, 789.64 -30.09, 847.21 -55.44" stroke="#9c36b5" stroke-width="4" fill="none"></path></g></g><mask></mask><g stroke-linecap="round"><g transform="translate(13.246544963191809 145.14616389770117) rotate(0 423.6028839917303 20.611549724430006)"><path d="M0 0 C27.01 -4.5, 78.42 -43.12, 162.05 -27.01 C245.68 -10.9, 387.59 101.4, 501.78 96.66 C615.98 91.92, 789.64 -30.09, 847.21 -55.44 M0 0 C27.01 -4.5, 78.42 -43.12, 162.05 -27.01 C245.68 -10.9, 387.59 101.4, 501.78 96.66 C615.98 91.92, 789.64 -30.09, 847.21 -55.44" stroke="#9c36b5" stroke-width="4" fill="none"></path></g></g><mask></mask><g stroke-linecap="round"><g transform="translate(11.937443023658034 145.34833986559613) rotate(0 423.6028839917303 20.611549724430006)"><path d="M-1.75 1.32 C24.68 -3.08, 77.28 -42.91, 161.03 -26.74 C244.79 -10.56, 386.2 102.77, 500.78 98.37 C615.36 93.96, 790.33 -27.67, 848.53 -53.16 M2.5 -0.43 C28.24 -4.29, 75.59 -38.66, 158.24 -22.96 C240.9 -7.26, 383.16 99.59, 498.43 93.76 C613.69 87.93, 791.57 -33.46, 849.82 -57.96" stroke="#9c36b5" stroke-width="4" fill="none"></path></g></g><mask></mask><g stroke-linecap="round"><g transform="translate(13.185344922351305 143.05776013538332) rotate(0 423.6028839917303 20.611549724430006)"><path d="M0 0 C27.01 -4.5, 78.42 -43.12, 162.05 -27.01 C245.68 -10.9, 387.59 101.4, 501.78 96.66 C615.98 91.92, 789.64 -30.09, 847.21 -55.44 M0 0 C27.01 -4.5, 78.42 -43.12, 162.05 -27.01 C245.68 -10.9, 387.59 101.4, 501.78 96.66 C615.98 91.92, 789.64 -30.09, 847.21 -55.44" stroke="#9c36b5" stroke-width="4" fill="none"></path></g></g><mask></mask><g stroke-linecap="round"><g transform="translate(12.554289967225941 140.7985032060086) rotate(0 423.6028839917303 20.611549724430006)"><path d="M0 0 C27.01 -4.5, 78.42 -43.12, 162.05 -27.01 C245.68 -10.9, 387.59 101.4, 501.78 96.66 C615.98 91.92, 789.64 -30.09, 847.21 -55.44 M0 0 C27.01 -4.5, 78.42 -43.12, 162.05 -27.01 C245.68 -10.9, 387.59 101.4, 501.78 96.66 C615.98 91.92, 789.64 -30.09, 847.21 -55.44" stroke="#9c36b5" stroke-width="4" fill="none"></path></g></g><mask></mask><g stroke-linecap="round"><g transform="translate(16.888588449485724 159.33891029651465) rotate(0 423.6028839917303 20.611549724430006)"><path d="M-0.61 -1.69 C25.8 -6.85, 76.87 -45.17, 160.64 -29.21 C244.4 -13.26, 387.95 98.18, 501.98 94.06 C616 89.94, 787.03 -28.82, 844.78 -53.93 M4.25 3.56 C31.41 -1.47, 83.6 -42.15, 166.27 -26.78 C248.94 -11.42, 387.31 101.15, 500.27 95.76 C613.23 90.36, 786.47 -33.81, 844.05 -59.14" stroke="#9c36b5" stroke-width="4" fill="none"></path></g></g><mask></mask><g stroke-linecap="round"><g transform="translate(18.136490348178995 157.04833056630184) rotate(0 423.6028839917303 20.611549724430006)"><path d="M0 0 C27.01 -4.5, 78.42 -43.12, 162.05 -27.01 C245.68 -10.9, 387.59 101.4, 501.78 96.66 C615.98 91.92, 789.64 -30.09, 847.21 -55.44 M0 0 C27.01 -4.5, 78.42 -43.12, 162.05 -27.01 C245.68 -10.9, 387.59 101.4, 501.78 96.66 C615.98 91.92, 789.64 -30.09, 847.21 -55.44" stroke="#9c36b5" stroke-width="4" fill="none"></path></g></g><mask></mask><g stroke-linecap="round"><g transform="translate(17.50543539305363 154.7890736369269) rotate(0 423.6028839917303 20.611549724430006)"><path d="M0 0 C27.01 -4.5, 78.42 -43.12, 162.05 -27.01 C245.68 -10.9, 387.59 101.4, 501.78 96.66 C615.98 91.92, 789.64 -30.09, 847.21 -55.44 M0 0 C27.01 -4.5, 78.42 -43.12, 162.05 -27.01 C245.68 -10.9, 387.59 101.4, 501.78 96.66 C615.98 91.92, 789.64 -30.09, 847.21 -55.44" stroke="#9c36b5" stroke-width="4" fill="none"></path></g></g><mask></mask><g stroke-linecap="round"><g transform="translate(16.1963334535194 154.99124960482175) rotate(0 423.6028839917303 20.611549724430006)"><path d="M-2.42 1.51 C24.77 -2.75, 79.49 -43.75, 163.35 -28.14 C247.2 -12.53, 386.45 99.5, 500.71 95.18 C614.97 90.87, 791.37 -29.37, 848.91 -54.03 M1.45 -0.14 C28.37 -3.78, 79 -41.4, 161.81 -25.13 C244.62 -8.85, 383.56 103.19, 498.32 97.49 C613.09 91.8, 791.73 -33.22, 850.41 -59.3" stroke="#9c36b5" stroke-width="4" fill="none"></path></g></g><mask></mask><g stroke-linecap="round"><g transform="translate(17.444235352213582 152.70066987460893) rotate(0 423.6028839917303 20.611549724430006)"><path d="M0 0 C27.01 -4.5, 78.42 -43.12, 162.05 -27.01 C245.68 -10.9, 387.59 101.4, 501.78 96.66 C615.98 91.92, 789.64 -30.09, 847.21 -55.44 M0 0 C27.01 -4.5, 78.42 -43.12, 162.05 -27.01 C245.68 -10.9, 387.59 101.4, 501.78 96.66 C615.98 91.92, 789.64 -30.09, 847.21 -55.44" stroke="#9c36b5" stroke-width="4" fill="none"></path></g></g><mask></mask><g stroke-linecap="round"><g transform="translate(16.813180397088217 150.44141294523422) rotate(0 423.6028839917303 20.611549724430006)"><path d="M0 0 C27.01 -4.5, 78.42 -43.12, 162.05 -27.01 C245.68 -10.9, 387.59 101.4, 501.78 96.66 C615.98 91.92, 789.64 -30.09, 847.21 -55.44 M0 0 C27.01 -4.5, 78.42 -43.12, 162.05 -27.01 C245.68 -10.9, 387.59 101.4, 501.78 96.66 C615.98 91.92, 789.64 -30.09, 847.21 -55.44" stroke="#9c36b5" stroke-width="4" fill="none"></path></g></g><mask></mask></svg>