<svg version="1.1" xmlns="http://www.w3.org/2000/svg" viewBox="0 0 869.2030541124586 382.7233250954306" width="869.2030541124586" height="382.7233250954306" filter="invert(93%) hue-rotate(180deg)">
  <!-- svg-source:excalidraw -->
  
  <defs>
    <style class="style-fonts">
      @font-face {
        font-family: "Virgil";
        src: url("https://excalidraw.com/Virgil.woff2");
      }
      @font-face {
        font-family: "Cascadia";
        src: url("https://excalidraw.com/Cascadia.woff2");
      }
      @font-face {
        font-family: "Assistant";
        src: url("https://excalidraw.com/Assistant-Regular.woff2");
      }
    </style>
    
  </defs>
  <g stroke-linecap="round" transform="translate(524.1226691842676 61.5042047326757) rotate(89.4354136562254 150.75611075355414 100.23224856353568)"><path d="M0 0 C0 0, 0 0, 0 0 M0 0 C0 0, 0 0, 0 0 M-2.91 14.94 C5.14 5.39, 5.68 1.35, 7.79 -2.69 M-0.94 12.26 C3.93 7.56, 5.32 5.8, 9.76 1.18 M1.69 22.36 C6.15 17.85, 18.18 8.2, 25.17 1.76 M-1.57 22.34 C7.54 16.02, 13.8 9.91, 19.85 1.65 M-0.85 36.64 C14.28 23.09, 19.83 13.26, 30.67 0.9 M-0.42 35.96 C11.66 24.45, 23.01 7.17, 30.41 0.68 M2.37 45.15 C12.99 34.77, 32.75 12.31, 38.78 3.69 M0.86 49.27 C17.22 32.07, 29.99 13.22, 41.32 0.75 M-3.62 59.3 C17.74 39.72, 37.64 13.68, 50.17 0.08 M-0.27 61.43 C21.3 38.23, 42.38 12.95, 54.43 -1.13 M3.32 75.08 C16.58 50.61, 33.32 30.48, 62.11 -0.71 M-1.46 71.16 C12.35 57.34, 29.19 39.73, 62.74 0.45 M-3.08 88.75 C21.9 61.32, 46.31 39.74, 75.55 0.62 M1.32 83.15 C16.55 65.63, 36.02 42.35, 73.9 -1.08 M-3.06 100.37 C31.75 60.82, 67.67 18.26, 82.28 0.36 M0.56 96.28 C20.47 72.54, 43.01 49.79, 83.58 1.21 M2.96 109.77 C34.62 73.63, 68.77 38.68, 96.06 2.64 M1.29 110.22 C22.99 83.59, 48.76 52.61, 94.96 -0.62 M-2.45 123.87 C27.56 94.34, 57.16 61.53, 107.72 2.35 M0.52 121.52 C29.48 92.82, 53.57 64.06, 108.14 0.15 M0 136.58 C42.59 86.98, 75.89 42.74, 115.63 -3.29 M-0.62 134.13 C26.7 105.24, 50.62 77.4, 114.94 1.21 M0.82 148.41 C45.05 89.15, 94.78 33.43, 123.49 -2.83 M1.86 147.72 C27.35 117.41, 52.64 88.36, 126.94 1.79 M-3.38 158.17 C32.19 119.27, 68.29 76.62, 135.71 -2.78 M-0.4 159.88 C46.72 105.84, 93.47 49.34, 138.82 -1.08 M-1.94 170.52 C46.53 109.23, 100.44 58.04, 146.29 -1.53 M1.59 171.28 C31.54 132.18, 67.31 91.42, 149.11 0.94 M-0.26 183.71 C48.65 132.56, 90.55 78.25, 161.56 0.78 M1.09 182.73 C33.64 141.71, 69.92 103.89, 158.22 1.88 M-2.71 197.39 C45.1 145.37, 88.36 92.24, 167.37 0.53 M-0.22 196.02 C67.47 119.29, 134.26 40.57, 169.35 1.47 M6.81 199.76 C58.49 141.84, 112.98 78.7, 181.67 -0.1 M6.01 200.07 C48.23 155.66, 90.03 107.84, 181.44 0.7 M15.02 200.78 C64.97 149.07, 108.61 96.26, 191.59 -0.97 M17.62 201.95 C53.37 153.09, 95.23 103.76, 190.78 -0.2 M26.56 199.54 C69.03 146.24, 114.88 96.95, 204.42 -1.42 M26.45 199.39 C82.2 132.29, 141.38 63.43, 199.86 1.14 M35.66 199.87 C88.97 144.85, 135.77 92.82, 211.88 -1.22 M37.75 200.11 C89.62 137.34, 144.75 75.04, 212.17 1.01 M48.61 202.83 C88.12 147, 136.95 94.09, 221.08 1.73 M47.14 200.6 C95.34 146.78, 142.63 91.06, 222.34 -1.25 M57.87 202.64 C129.82 124.67, 194.57 43.25, 231.67 -2.13 M59.13 201.56 C96.44 157.36, 137.06 110.9, 233.02 1.16 M69.81 198.45 C125.42 134.13, 177.62 67.32, 241.49 -0.18 M69.27 199.7 C129.01 130.86, 190.72 60.84, 244.98 -0.03 M78.67 202.91 C144.76 130.8, 201.48 65.77, 255.38 -2.69 M79.53 199.98 C145.85 126.65, 213.55 46.69, 255.08 -1.56 M88.08 203.39 C132.23 147.4, 183.32 94.21, 265.48 -2.7 M89.94 201.09 C144.73 139.81, 198.23 79.48, 265.32 1.46 M103.99 202.16 C169.82 120.41, 238.5 41.97, 272.69 -2.12 M101.32 201.41 C150.75 145.6, 200.38 91.15, 274.46 1.05 M111.86 202.83 C180.48 118.87, 248.61 41.11, 285.99 -3.21 M113.25 200.24 C176.51 122.53, 244.04 45.91, 287.1 1.22 M120.26 200.04 C165.86 150.3, 213.53 91.94, 299.59 -3.08 M123.61 200.59 C188.54 129.13, 254.2 56.83, 295.82 0.31 M131.63 197.43 C205.31 126.78, 271.75 46.79, 298.96 9.06 M132.9 201.01 C183.07 140.18, 234.89 80.07, 303.32 6.9 M141.71 197.4 C207.11 128.4, 269.24 59.75, 301.94 16.64 M143.8 201.5 C174.34 160.86, 203.47 124.81, 301.76 19.64 M154.86 200.45 C191.79 149.44, 233.69 103.45, 303.11 27.46 M156.05 201.55 C195.49 154.89, 237 104.9, 303.59 31.29 M162.65 200.88 C199.76 155.38, 246.35 107.31, 299.87 43.91 M164.86 200.42 C210.08 151.35, 253.66 99.83, 302.22 42.36 M176.81 203.79 C229.96 140.53, 275.55 87.49, 304.35 51.56 M175.12 202.9 C222.58 150.07, 270.22 93.11, 302.43 56.64 M189.12 203.25 C232.05 143.14, 277.1 95.1, 305.25 66.81 M186.97 201.23 C223.96 155.99, 261.76 109.48, 303.36 68.31 M198.12 201.16 C217.35 171.17, 247.93 145.38, 299.11 76.08 M195.1 200.01 C239.21 154.62, 278.54 108.17, 300.85 81.26 M208.8 203.05 C246.51 160.78, 279.45 117.46, 305.78 94.36 M207.51 201.13 C227.58 176.12, 250.99 148.79, 303.7 91.97 M219.45 200.95 C239.69 176.87, 261.25 151.21, 302.55 105 M219.01 201.32 C246.89 165.89, 274.59 133, 300.43 101.76 M228.86 200.24 C245.12 173.8, 267.15 154.92, 298.65 115.33 M226.63 199.63 C249.46 172.03, 274.84 143.09, 300.08 115.12 M239.36 202.52 C257.59 187.38, 270.27 164.17, 304.97 124.52 M239.11 199.02 C250.44 184.67, 264.53 169.22, 302.29 128.26 M248 200.51 C270.52 176.32, 287.51 157.44, 301.28 142.99 M248.26 201.97 C263.33 184.65, 277.5 169.38, 302.77 139.2 M257.69 200.9 C269.04 184.56, 286.68 170.4, 301.95 152.25 M258.48 199.96 C276.64 182.03, 291.52 162.31, 303.39 152.3 M268.25 203.23 C276.98 191.56, 285.62 188.42, 302.44 168.55 M270.15 201.08 C282.43 185.32, 292.94 173.42, 300.94 164.59 M279.63 198.79 C286.87 197.23, 291.27 187.68, 301.76 174.51 M281.07 199.61 C290.57 192.63, 297.9 184.32, 301.91 178.08 M291.18 198.29 C291.8 195.03, 295.33 192.97, 300.59 187.56 M290.41 199.83 C293.72 197.08, 296.08 194.92, 302.36 190.09" stroke="#868e96" stroke-width="1" fill="none"></path><path d="M1.72 0.41 C114.04 -1.66, 233.06 -3.8, 303.96 1.35 M1.21 -0.97 C85.62 -5.01, 173.09 -4.34, 300.27 1.18 M302.11 3.08 C302.74 50.21, 297.36 100.92, 304.89 197.13 M303.27 -0.38 C300.89 78.58, 300.42 154.6, 299.78 201.55 M300.79 200.38 C230.65 206.3, 159.76 204.11, -2.61 199.4 M302.51 200.33 C194.95 196.67, 87.31 196.86, -0.57 200.73 M-2.39 199.13 C-5.76 153.76, -2.9 106.57, -0.22 3.05 M-1.49 198.9 C2.3 129.01, 1.54 53.28, -1.56 -1.78" stroke="#1e1e1e" stroke-width="2" fill="none"></path></g><g stroke-opacity="0.7" fill-opacity="0.7" stroke-linecap="round" transform="translate(375.4506734302613 105.57363806936439) rotate(89.4354136562254 150.75611075355414 100.23224856353568)"><path d="M-3.83 -0.92 L299.09 3.24 L301.04 201.45 L-0.72 201.97" stroke="none" stroke-width="0" fill="#ffffff"></path><path d="M-1.22 0.02 C104.55 -2.73, 206.45 0.73, 301.08 0.43 M-0.37 -0.95 C119.28 2.64, 235.1 4.11, 300.78 -0.88 M304.91 0.16 C300.13 71.1, 305.49 137.21, 304.63 198.98 M302.38 1.07 C305.43 70.61, 303.31 143.14, 300.33 199.61 M301.37 202.05 C181.68 199.74, 59.87 199.27, 1.59 199.28 M301.84 200.07 C233.87 199.86, 166.52 200.33, -1.03 201.81 M-2.43 199.74 C2.83 142.88, 2.18 92.24, 2.26 -3.17 M-0.87 201.76 C1.35 152.09, 1.43 105.32, 0.01 0.04" stroke="#1e1e1e" stroke-width="2" fill="none"></path></g><g stroke-linecap="round" transform="translate(99.55969900993068 172.09945890662414) rotate(360.06059049582194 150.75611075355414 100.23224856353568)"><path d="M0 0 C0 0, 0 0, 0 0 M0 0 C0 0, 0 0, 0 0 M-1.89 10.16 C1.29 4.81, 6.02 0.03, 13.63 -2.19 M0.27 11.58 C2.38 9.66, 8.05 3.76, 11.09 0.54 M1.36 27.35 C9.9 19.34, 11.41 10.11, 23.36 -3.74 M1.03 24.66 C3.13 20.77, 10.35 14.36, 21.06 -0.36 M-3.58 40.32 C7.43 27.06, 21.53 14.27, 32.24 -0.42 M-1.95 35.74 C6.67 27.65, 17.02 16.09, 31.63 1.14 M3.54 45.02 C5.35 42.19, 20.36 24.9, 44.1 1.84 M-1.74 49.1 C11.71 33.68, 27.98 17.1, 42.89 -1.95 M-2.37 59.84 C11.47 44.9, 31.34 28.44, 54.22 -0.73 M1.98 59.56 C17.84 39.84, 33.19 19.32, 51.19 1.42 M-2.56 69.05 C21.66 47.91, 43.03 26.62, 61.24 -3.42 M1.07 72.94 C13.18 58.08, 27.04 41.04, 62.66 -1.89 M4.07 86.4 C30.51 52.72, 56.34 18.94, 74.22 1.84 M-0.29 84.32 C16.49 65.54, 34.18 48.32, 72.69 -1.65 M-0.59 94.72 C29.16 62.61, 60.93 28.01, 83.83 1.35 M1.12 98.42 C17.05 78.6, 38.42 53.37, 83.35 1.26 M-0.11 113.84 C29.18 79.82, 55.54 44.26, 93.44 2.49 M-0.3 108.08 C31.08 73.74, 61.03 37.53, 94.82 -1.55 M3.69 119.94 C38.6 81.33, 71.81 32.19, 106.24 0.66 M0.5 122.41 C29.47 88.1, 58.44 55.14, 106.82 -0.42 M-3.51 137.43 C39.33 81.07, 78.84 32.14, 115.73 -1.16 M-0.75 133.29 C35.16 94.67, 73.97 52.8, 117.43 0.64 M-2.09 146.59 C45.07 90.08, 90.18 40.56, 127.48 3.49 M1.19 147.71 C47.35 89.64, 95.15 32.07, 127.1 -1.44 M-0.03 155.59 C38.17 110.9, 80.38 67.74, 138.17 -0.02 M-1.93 158.16 C52.94 97.83, 102.08 42.12, 138.11 -0.64 M0.83 173.75 C43.74 121.89, 86.33 75.98, 149.6 3.67 M0.87 170.78 C50.44 113.64, 97.58 56.23, 147.18 0.12 M-2.93 181.88 C53.64 123.45, 99.78 63.2, 159.36 2.36 M0.38 183.99 C48.09 132.73, 94.28 76.87, 158.67 -1.24 M-2.27 194.09 C63.23 120.76, 132.02 46.32, 170.67 -0.57 M1.37 193.72 C61.51 121.86, 124.23 49.35, 168.53 0.84 M4.73 202.97 C53.72 145.8, 96.1 90.86, 178.32 1.09 M4.46 202.04 C52.49 150.11, 93.49 99.17, 180.68 -0.41 M15.74 202.04 C67.43 138.81, 116.38 83.32, 190.53 3.03 M14.73 199.67 C83.48 126.69, 146.83 54.36, 191.87 0.01 M26.18 203.47 C76.1 147.7, 119.24 99.81, 202.78 -0.61 M26.84 199.35 C62.83 160.16, 100.14 117.35, 200.82 -0.79 M39.06 202.99 C81.41 146.44, 129 95.89, 213.02 0.7 M38.34 201.15 C81.87 150.39, 125.53 99.02, 212.54 0.34 M49.51 197.74 C113.04 130.49, 177.39 57.35, 220.92 -1.81 M48.73 199.72 C95.7 142.3, 147.78 85.8, 222.04 -0.38 M56.81 201.08 C117.57 124.31, 179.62 55.44, 230.4 0.87 M58.94 199.76 C121.22 131.68, 183.04 60.22, 234.44 0.24 M66.81 197.56 C105.85 155.09, 149.7 111.29, 242.54 -0.15 M69.37 201.47 C111.66 153.62, 152.33 105.18, 242.43 -0.68 M78.59 202.02 C143.31 126.28, 209.84 55.86, 251.8 -0.93 M79.44 200.2 C126.11 145.18, 169.48 96.15, 255.79 -1.32 M93.31 201.83 C161.1 118.88, 228.33 43.07, 264.24 -1.4 M91.83 200.3 C146.9 137.73, 205.48 70.71, 266.27 1.28 M100.81 203.4 C158.89 127.24, 222.15 58.7, 274.74 0.07 M102.64 202.18 C160.28 131.26, 224.15 60.14, 277.06 -0.13 M113.71 199.7 C174.63 124.07, 242.56 55.52, 285.24 2.63 M111.93 200.34 C160.96 148.36, 208.22 91.33, 286.65 -1.28 M122.49 197.8 C176.55 138.04, 225.66 81, 294.61 2.06 M123.33 202 C175.84 139.95, 231.44 77.35, 296.22 -0.93 M135.9 199.02 C161.8 161.94, 199.07 119.35, 304.7 6.14 M132.48 199.89 C193.42 135.17, 249.23 69.55, 300.11 5.57 M142.02 201.33 C177.7 162.84, 207.17 130.36, 304.2 18.71 M142.41 200.38 C198 137.11, 254.81 71.51, 303.5 18.83 M156.08 197.81 C200.06 148.15, 242.52 101.01, 301.91 34 M155.49 199.29 C208.68 136.77, 260.83 75.31, 301.42 29.81 M166.68 200.28 C205.13 155.86, 248.33 107.69, 303.07 43.71 M165.1 201.81 C198.13 157.81, 235.27 115.7, 301.83 43.48 M173.47 201.72 C222.18 146.13, 268.9 98.93, 297.76 55.77 M176.6 200.33 C222.66 143.94, 273.07 86.26, 302.76 57.22 M184.46 203.25 C230.09 154.95, 269.03 109.42, 303.57 70.24 M184.95 199.73 C222.5 160.2, 255.29 119.47, 301.8 68.45 M199.08 203.21 C227.04 161.32, 265.42 126.05, 298.59 77.28 M194.51 201.72 C220.94 173.24, 249.87 141.5, 299.98 80.51 M205.43 200.89 C242.55 165.14, 269.88 125.71, 298.53 92.89 M205.52 200.53 C239.34 167.82, 266.05 133.73, 301.98 92.57 M215.69 203.32 C243.58 172.42, 270.58 143.64, 299.3 106.67 M215.68 200.54 C242.25 169.91, 270.51 141.45, 302.82 104 M225.24 204.13 C247.49 176.85, 272.44 157.48, 303.5 113.45 M227.52 199.87 C245.13 180.03, 262.63 161.34, 300.68 116.73 M239.8 198.44 C262.13 171.29, 277.1 153.46, 298.14 129.18 M237.89 199.93 C253.05 186.75, 266.65 173.69, 302.94 127.78 M250.53 201.73 C263.1 186.37, 277.41 164.21, 301.85 138.26 M249.39 200.98 C269.14 178.41, 286.94 158.7, 303.7 139.35 M261.2 200.68 C273.48 186.16, 289.6 174.54, 302.62 149.49 M259.77 199.7 C271.61 188.29, 279.29 174.36, 301.83 151.35 M271.26 204.12 C282.51 191.95, 296.8 177.61, 300.28 163.6 M269.42 200.74 C279.21 190.09, 290.36 179.16, 301.75 163.77 M279 201.82 C286.57 191.69, 294.59 190.55, 304.95 176.98 M282.78 202.3 C286.05 195.62, 290.77 190.84, 300.2 176.9 M289.49 199.76 C293.12 196.57, 294.01 196.72, 302.54 186.44 M291.81 199.95 C294.92 198.85, 296.19 195.79, 302.19 189.84" stroke="#868e96" stroke-width="1" fill="none"></path><path d="M2.55 -2.11 C97.15 1.32, 188.97 0.39, 304.2 2.41 M1.11 -0.29 C69.19 4.06, 140.14 2, 302.25 0.24 M299.53 0.82 C308.3 73.96, 308.04 153.1, 303.47 203.98 M301.91 -0.41 C301.52 57.02, 302.07 111.02, 303.25 200.02 M301.19 199.87 C209.33 201.78, 123.96 201.67, -2.25 202.46 M301.08 200.26 C213.19 199.52, 124.96 200.61, -0.33 199.49 M0.43 198.52 C2.22 150.84, 4.7 91.93, -2.42 -2.98 M-1.64 198.76 C0.19 156.04, 1.76 115.21, -1.72 -0.41" stroke="#1e1e1e" stroke-width="2" fill="none"></path></g><g stroke-opacity="0.7" fill-opacity="0.7" stroke-linecap="round" transform="translate(65.18871275301171 38.897048297075) rotate(360.06059049582194 150.75611075355414 100.23224856353568)"><path d="M-0.47 0.99 L300.79 1.5 L305.01 201.88 L-0.35 203.84" stroke="none" stroke-width="0" fill="#ffffff"></path><path d="M2.45 1.35 C90.27 3.62, 184.09 5.6, 299.57 -0.74 M-1.24 1.18 C70.03 -0.01, 142.27 1.12, 302.76 1.38 M304.89 -3.33 C302.65 59.54, 301.48 125.56, 300.76 202.2 M299.78 1.09 C301.13 71.23, 304.04 143.72, 301.46 200.38 M298.9 199.4 C196.31 198.38, 85.67 201.56, -0.26 201.12 M300.95 200.73 C218.26 201.18, 136.75 198.86, -0.54 199.48 M-0.22 203.52 C1.83 141.19, -2.85 85.28, -3.14 -1.75 M-1.56 198.68 C3.29 125.97, 1.56 50.98, -1.09 1.46" stroke="#1e1e1e" stroke-width="2" fill="none"></path></g><g stroke-linecap="round"><g transform="translate(12.629698019623902 156.49248638260156) rotate(0 423.6028839917303 20.611549724430006)"><path d="M0.53 2.07 C28.33 -2.77, 80.83 -43.07, 164.08 -27.7 C247.33 -12.33, 386.3 98.49, 500.03 94.3 C613.75 90.11, 789 -27.92, 846.42 -52.85 M-2.63 0.73 C25.23 -3.82, 78.19 -40.34, 162.95 -24.44 C247.7 -8.54, 391.97 101.63, 505.91 96.12 C619.84 90.62, 789.52 -32.41, 846.57 -57.47" stroke="#9c36b5" stroke-width="4" fill="none"></path></g></g><mask></mask><g stroke-linecap="round"><g transform="translate(20.629698019623902 155.4365224410269) rotate(0 418.6028839917303 17.111549724430006)"><path d="M0.42 -0.21 C27.49 -4.65, 78.58 -42.96, 161.6 -26.94 C244.62 -10.91, 386.01 101.53, 498.53 95.94 C611.05 90.34, 779.98 -34.37, 836.7 -60.51 M-2.8 -2.79 C23.93 -7.97, 75.97 -46.47, 159.11 -30.82 C242.25 -15.17, 383.06 95.62, 496.04 91.1 C609.02 86.58, 780.3 -32.72, 837.01 -57.94" stroke="#9c36b5" stroke-width="4" fill="none"></path></g></g><mask></mask></svg>